SplineFontDB: 3.2
FontName: SeriousShannsLightItalic
FullName: Serious Shanns Light Italic
FamilyName: Serious Shanns Light Italic
Weight: Light
Copyright: https://github.com/kaBeech/serious-sans/blob/main/LICENSE
Version: 6.0.0
ItalicAngle: -11.8
UnderlinePosition: 0
UnderlineWidth: 0
Ascent: 800
Descent: 200
InvalidEm: 0
sfntRevision: 0x00001999
LayerCount: 2
Layer: 0 0 "Back" 1
Layer: 1 0 "Fore" 0
XUID: [1021 329 -1817886000 6804199]
StyleMap: 0x0040
FSType: 0
OS2Version: 3
OS2_WeightWidthSlopeOnly: 0
OS2_UseTypoMetrics: 0
CreationTime: 1532631502
ModificationTime: 315532800
PfmFamily: 49
TTFWeight: 300
TTFWidth: 5
LineGap: 0
VLineGap: 0
Panose: 0 0 0 0 0 0 0 0 0 0
OS2TypoAscent: 613
OS2TypoAOffset: 0
OS2TypoDescent: -188
OS2TypoDOffset: 0
OS2TypoLinegap: 98
OS2WinAscent: 778
OS2WinAOffset: 0
OS2WinDescent: 308
OS2WinDOffset: 0
HheadAscent: 796
HheadAOffset: 0
HheadDescent: -317
HheadDOffset: 0
OS2SubXSize: 317
OS2SubYSize: 293
OS2SubXOff: 0
OS2SubYOff: 37
OS2SupXSize: 317
OS2SupYSize: 293
OS2SupXOff: 0
OS2SupYOff: 171
OS2StrikeYSize: 0
OS2StrikeYPos: 132
OS2CapHeight: 576
OS2XHeight: 485
OS2Vendor: 'NONE'
OS2CodePages: 00000001.00000000
OS2UnicodeRanges: 00000001.00000000.00000000.00000000
MarkAttachClasses: 1
DEI: 91125
LangName: 1033 "" "" "Normal" "FontForge 2.0 : Serious Shanns Light Italic : 11-6-2024" "" "Version 0.1.2"
Encoding: UnicodeBmp
Compacted: 1
UnicodeInterp: none
NameList: AGL For New Fonts
DisplaySize: -48
AntiAlias: 1
FitToEm: 0
WinInfo: 0 16 4
BeginPrivate: 8
BlueValues 32 [-39 -6 490 521 685 718 765 769]
OtherBlues 11 [-304 -292]
BlueScale 9 0.0291667
BlueShift 1 3
StdHW 4 [67]
StdVW 4 [65]
StemSnapH 23 [61 62 63 65 67 94 130]
StemSnapV 14 [40 58 65 125]
EndPrivate
BeginChars: 65537 122

StartChar: .notdef
Encoding: 65536 -1 0
Width: 593
GlyphClass: 1
Flags: HMW
HStem: 688 20G<243 566 243 243>
LayerCount: 2
Fore
SplineSet
225 737 m 1
 598 737 l 1
 369 -255 l 1
 -4 -255 l 1
 225 737 l 1
566 708 m 1
 243 708 l 1
 27 -226 l 1
 351 -226 l 1
 566 708 l 1
EndSplineSet
Validated: 1
EndChar

StartChar: exclam
Encoding: 33 33 11
Width: 593
GlyphClass: 2
Flags: HMW
HStem: -13 130<196.5 259.5>
VStem: 163 131<27.5 80.5>
LayerCount: 2
Fore
SplineSet
314 274 m 0
 310 262 304 253 295 247 c 0
 286 241 278 237 269 237 c 2
 266 237 l 2
 257 237 251 240 248 245 c 0
 246 247 245 250 245 254 c 0
 245 258 246 264 248 272 c 0
 251 281 254 290 258 300 c 0
 262 310 265 318 267 325 c 0
 269 332 272 347 278 371 c 0
 284 395 290 423 296 454 c 0
 302 485 308 515 315 544 c 0
 322 573 327 593 329 603 c 0
 331 613 337 634 346 668 c 0
 355 702 360 724 362 732 c 0
 366 747 373 759 381 766 c 0
 389 773 399 777 409 777 c 2
 412 777 l 2
 420 777 426 775 429 771 c 0
 431 769 432 764 432 759 c 0
 432 754 430 748 429 742 c 0
 428 736 416 691 395 609 c 0
 374 527 358 462 347 411 c 0
 336 360 329 330 326 320 c 0
 323 310 318 295 314 274 c 0
294 75 m 0
 294 70 293 64 292 57 c 0
 288 39 280 24 265 11 c 0
 250 -2 232 -10 211 -12 c 0
 209 -12 206 -13 204 -13 c 0
 189 -13 178 -7 171 3 c 0
 165 12 163 22 163 33 c 0
 163 38 164 44 165 51 c 0
 170 68 179 83 196 96 c 0
 215 110 233 117 252 117 c 0
 267 117 280 112 287 102 c 0
 292 95 294 86 294 75 c 0
EndSplineSet
Validated: 1
EndChar

StartChar: quotedbl
Encoding: 34 34 12
Width: 593
GlyphClass: 2
Flags: HMW
HStem: 448 323<176.5 265 181 265 259 330 259 331>
LayerCount: 2
Fore
SplineSet
265 771 m 2
 273 771 280 769 286 765 c 0
 287 763 289 760 290 756 c 0
 291 752 291 748 290 741 c 0
 284 714 273 669 257 607 c 0
 241 545 230 502 222 479 c 0
 218 468 212 461 204 456 c 0
 196 451 189 448 182 448 c 2
 181 448 l 2
 172 448 164 452 158 457 c 0
 156 459 154 462 154 466 c 0
 154 470 155 474 156 478 c 0
 167 512 178 556 189 609 c 0
 200 662 209 706 216 741 c 0
 217 748 220 753 223 757 c 0
 226 762 230 765 234 766 c 0
 243 769 252 771 259 771 c 2
 265 771 l 2
407 607 m 0
 392 545 380 502 372 479 c 0
 368 468 362 461 354 456 c 0
 346 451 338 448 331 448 c 2
 330 448 l 2
 321 448 313 452 307 457 c 0
 305 459 304 463 304 466 c 0
 304 469 305 473 306 478 c 0
 316 512 327 556 338 609 c 0
 349 662 358 706 365 741 c 0
 366 748 369 753 373 757 c 0
 377 761 380 765 384 766 c 0
 393 769 401 771 408 771 c 2
 414 771 l 2
 419 771 423 771 426 770 c 0
 429 769 433 767 436 765 c 0
 439 763 440 758 440 751 c 0
 440 743 429 695 407 607 c 0
EndSplineSet
Validated: 1
EndChar

StartChar: numbersign
Encoding: 35 35 13
Width: 593
GlyphClass: 2
Flags: HMW
HStem: 205 57<399 437 376 456> 457 60<300 410 276 434 300 518 300 475>
LayerCount: 2
Fore
SplineSet
180 203 m 1
 171 203 l 1
 139 126 117 74 105 47 c 0
 98 36 89 26 76 18 c 0
 67 13 59 10 53 10 c 0
 51 10 47 11 45 12 c 0
 41 12 39 14 38 16 c 0
 36 20 34 26 34 34 c 0
 34 44 36 55 42 67 c 0
 51 86 73 131 104 202 c 1
 57 202 l 2
 45 202 37 204 33 208 c 0
 31 210 28 214 28 217 c 0
 28 218 29 221 29 223 c 0
 31 232 36 241 43 247 c 0
 50 253 62 257 75 257 c 0
 80 257 87 258 97 258 c 0
 107 258 116 260 127 260 c 1
 209 456 l 1
 190 456 l 1
 152 455 l 1
 148 455 l 2
 138 455 131 457 128 461 c 0
 126 464 125 468 125 473 c 2
 125 480 l 2
 126 489 131 497 139 503 c 0
 147 509 157 514 170 514 c 2
 171 514 l 2
 183 514 202 515 226 515 c 2
 233 515 l 1
 299 677 l 2
 306 692 316 702 325 707 c 0
 332 710 337 712 342 712 c 0
 344 712 349 711 351 711 c 0
 360 709 366 705 368 698 c 0
 369 696 370 692 370 689 c 0
 370 683 367 675 363 666 c 2
 300 517 l 1
 434 517 l 1
 495 670 l 2
 502 685 510 695 520 700 c 0
 526 703 532 705 538 705 c 0
 540 705 543 704 546 704 c 0
 555 702 562 698 564 691 c 0
 564 689 565 686 565 684 c 0
 565 677 564 669 559 659 c 0
 546 633 526 586 500 519 c 1
 519 519 l 1
 529 519 l 2
 540 519 550 515 555 509 c 0
 560 504 562 500 562 495 c 0
 562 494 561 492 561 491 c 0
 559 482 553 473 546 467 c 0
 539 461 530 457 518 457 c 2
 475 457 l 1
 399 262 l 1
 456 262 l 2
 466 262 472 260 473 258 c 0
 475 254 476 248 475 239 c 0
 473 228 467 219 462 214 c 0
 456 208 448 205 437 205 c 2
 376 205 l 1
 345 124 324 70 312 43 c 0
 305 31 295 22 283 16 c 0
 275 12 268 10 262 10 c 0
 260 10 255 11 252 12 c 0
 246 13 243 18 242 25 c 0
 242 28 241 32 241 34 c 0
 241 43 244 52 249 63 c 0
 262 90 282 137 309 204 c 1
 290 204 l 1
 180 203 l 1
410 457 m 1
 276 457 l 1
 194 261 l 1
 232 262 276 263 324 263 c 2
 332 263 l 1
 357 323 383 387 410 457 c 1
EndSplineSet
Validated: 1
EndChar

StartChar: dollar
Encoding: 36 36 14
Width: 593
GlyphClass: 2
Flags: HMW
HStem: -17 60<178 212 188 212 192 212>
VStem: 157 63 423 69<235 287>
LayerCount: 2
Fore
SplineSet
134 -8 m 0
 117 -2 104 4 93 13 c 0
 72 31 58 52 51 76 c 0
 50 82 49 89 49 95 c 0
 49 101 51 107 53 112 c 0
 57 121 63 127 72 131 c 0
 79 134 85 137 88 137 c 0
 91 137 95 138 96 138 c 2
 101 138 l 2
 102 138 104 135 106 133 c 0
 108 131 112 125 115 118 c 0
 124 96 135 77 150 64 c 0
 165 50 185 43 210 43 c 2
 212 43 l 1
 220 43 l 1
 247 161 270 268 290 365 c 1
 279 366 270 368 264 369 c 0
 258 370 252 371 248 371 c 0
 230 373 215 378 202 387 c 0
 189 396 179 406 172 419 c 0
 162 438 157 458 157 480 c 0
 157 487 158 494 160 503 c 0
 165 526 173 548 184 569 c 0
 194 590 207 610 223 628 c 0
 239 646 259 661 281 674 c 0
 303 687 328 697 355 702 c 2
 362 704 l 1
 367 725 373 747 378 769 c 0
 381 784 386 795 392 803 c 0
 398 811 404 815 413 815 c 2
 415 815 l 2
 422 815 427 814 429 811 c 0
 431 808 432 803 432 797 c 0
 432 791 430 785 429 778 c 2
 415 711 l 1
 428 710 l 2
 441 710 459 706 481 700 c 0
 503 694 519 689 530 684 c 0
 537 681 542 676 544 670 c 0
 544 668 545 664 545 660 c 0
 545 656 543 651 541 644 c 0
 540 639 538 634 534 631 c 0
 530 628 526 626 523 626 c 2
 514 626 l 2
 508 626 502 627 496 629 c 0
 491 630 485 634 478 638 c 0
 471 642 462 646 451 649 c 0
 440 652 426 655 411 655 c 2
 402 656 l 1
 389 596 371 518 350 421 c 1
 362 419 l 2
 386 415 406 408 423 399 c 0
 441 389 454 378 464 366 c 0
 474 354 481 341 485 326 c 0
 489 311 492 295 492 279 c 0
 492 263 490 247 485 227 c 0
 478 198 468 170 452 144 c 0
 436 118 419 96 399 76 c 0
 379 56 358 40 335 26 c 0
 312 12 288 1 263 -6 c 2
 257 -8 l 1
 248 -52 242 -82 240 -96 c 0
 236 -107 230 -117 222 -123 c 0
 214 -129 206 -132 197 -132 c 2
 196 -132 l 2
 194 -132 191 -131 189 -131 c 0
 186 -129 184 -125 184 -118 c 0
 184 -113 185 -106 187 -97 c 0
 192 -81 198 -54 206 -17 c 1
 192 -17 l 1
 188 -17 l 2
 168 -17 151 -14 134 -8 c 0
234 468 m 0
 247 450 266 437 292 429 c 2
 303 426 l 1
 315 480 331 555 351 651 c 1
 333 645 l 2
 305 636 281 623 261 603 c 0
 241 583 228 560 223 533 c 0
 221 526 220 520 220 513 c 0
 220 496 225 481 234 468 c 0
423 241 m 0
 423 253 421 266 416 281 c 0
 412 294 404 306 392 317 c 0
 380 328 365 338 346 346 c 2
 334 352 l 1
 331 338 l 1
 331 338 320 287 299 188 c 0
 287 133 277 88 269 53 c 1
 289 62 l 2
 321 76 349 95 373 120 c 0
 397 145 412 173 419 205 c 0
 421 217 423 229 423 241 c 0
EndSplineSet
Validated: 1
EndChar

StartChar: percent
Encoding: 37 37 15
Width: 593
GlyphClass: 2
Flags: HMW
HStem: -16 52<331.5 367 340 367> 184 49<394.5 395.5> 444 51<199.5 234 208 234> 645 48<263.5 268>
VStem: 143 41<522.5 546.5> 275 41<63.5 86.5> 306 41<589.5 628> 437 35<99 143> 437 45<129.5 169>
LayerCount: 2
Fore
SplineSet
166 461 m 0xfa
 155 472 147 486 145 503 c 0
 144 510 143 518 143 527 c 0
 143 536 144 548 147 561 c 0
 156 600 172 631 195 656 c 0
 218 681 247 693 280 693 c 0
 306 693 325 683 337 664 c 0
 344 653 347 638 347 618 c 0
 347 601 344 581 338 559 c 0
 329 521 313 493 292 473 c 0
 271 453 244 444 209 444 c 2
 208 444 l 2
 191 444 177 450 166 461 c 0xfa
43 12 m 0
 65 44 109 104 174 192 c 2
 369 470 l 2
 435 563 481 629 507 670 c 0
 515 680 524 686 534 688 c 0
 537 688 541 689 543 689 c 0
 548 689 552 687 557 684 c 0
 560 683 562 681 563 680 c 0
 564 679 565 675 565 673 c 0
 565 665 561 654 550 641 c 0
 517 600 441 497 323 330 c 0
 208 163 129 51 87 -9 c 0
 78 -21 70 -29 63 -34 c 0
 58 -37 53 -39 49 -39 c 0
 45 -39 42 -38 39 -36 c 0
 36 -34 32 -31 31 -29 c 0
 30 -27 29 -24 29 -21 c 0
 29 -12 34 -1 43 12 c 0
232 495 m 2
 234 495 l 2
 251 495 265 501 276 514 c 0
 287 527 296 543 302 563 c 0
 304 574 306 585 306 594 c 0
 306 605 305 615 300 623 c 0
 291 638 278 645 258 645 c 0
 241 645 226 638 214 623 c 0
 203 610 194 592 188 570 c 0
 186 560 184 551 184 542 c 0
 184 533 185 526 188 519 c 0
 195 505 210 497 232 495 c 2
298 1 m 0
 287 12 280 26 277 43 c 0
 276 50 275 59 275 68 c 0xfc80
 275 77 277 88 279 101 c 0
 287 140 304 171 327 196 c 0
 350 221 378 233 411 233 c 0
 424 233 436 231 445 226 c 0
 455 221 464 214 471 204 c 0
 478 194 482 179 482 159 c 0
 482 142 479 122 472 100 c 1xfd
 472 99 l 1
 461 61 445 32 424 12 c 0
 403 -7 376 -16 343 -16 c 2
 340 -16 l 2
 323 -16 309 -10 298 1 c 0
364 36 m 2
 367 36 l 2
 383 36 397 42 408 55 c 0
 419 68 428 83 433 103 c 0
 435 114 437 125 437 134 c 0
 437 152 433 165 422 174 c 0
 413 181 402 184 389 184 c 0
 372 184 358 176 346 162 c 0
 334 149 325 131 320 110 c 0
 318 100 316 91 316 82 c 0
 316 73 318 66 321 59 c 0
 328 45 342 37 364 36 c 2
EndSplineSet
Validated: 1
EndChar

StartChar: ampersand
Encoding: 38 38 16
Width: 593
GlyphClass: 2
Flags: HMW
HStem: -29 69 657 55
VStem: 51 71<105.001 142.501> 229 64<541.001 542.001> 396 71<8.00098 34>
LayerCount: 2
Fore
SplineSet
463 5 m 0
 458 -11 451 -20.9990234375 443 -23.9990234375 c 0
 438 -25.9990234375 434 -27.9990234375 430 -27.9990234375 c 0
 425 -27.9990234375 421 -25.9990234375 417 -23.9990234375 c 0
 408 -17.9990234375 401 -6.9990234375 396 8.0009765625 c 0
 396 12.0009765625 394 22.0009765625 392 38.0009765625 c 0
 390 54.0009765625 388 65.0009765625 386 73.0009765625 c 2
 381 97.0009765625 l 1
 365 79.0009765625 l 2
 363 77.0009765625 358 70.0009765625 350 62.0009765625 c 2
 332 44.0009765625 l 2
 313 25.0009765625 300 13.0009765625 292 8.0009765625 c 0
 286 4.0009765625 278 0.0009765625 269 -5.9990234375 c 0
 260 -11.9990234375 251 -16.9990234375 243 -18.9990234375 c 0
 235 -20.9990234375 226 -23.9990234375 215 -25.9990234375 c 0
 204 -27.9990234375 194 -28.9990234375 184 -28.9990234375 c 0
 152 -28.9990234375 125 -19.9990234375 103 -2.9990234375 c 0
 81 14.0009765625 65 37.0009765625 57 66.0009765625 c 0
 53 81.0009765625 51 97.0009765625 51 113.000976562 c 0
 51 129.000976562 53 145.000976562 57 162.000976562 c 0
 85 284.000976562 150 367.000976562 254 411.000976562 c 2
 265 416.000976562 l 1
 249 460.000976562 240 486.000976562 238 491.000976562 c 0
 236 497.000976562 234 505.000976562 232 513.000976562 c 0
 230 521.000976562 229 528.000976562 229 533.000976562 c 0
 229 551.000976562 231 569.000976562 235 587.000976562 c 0
 240 609.000976562 251 632.000976562 269 653.000976562 c 0
 278 664.000976562 289 675.000976562 301 683.000976562 c 0
 313 691.000976562 328 698.000976562 346 704.000976562 c 0
 364 710.000976562 382 712.000976562 403 712.000976562 c 0
 420 712.000976562 436 710.000976562 450 704.000976562 c 0
 464 698.000976562 476 690.000976562 486 680.000976562 c 0
 496 670.000976562 502 657.000976562 506 640.000976562 c 0
 507.888671875 631.974609375 508.885742188 623.279296875 508.885742188 614.020507812 c 0
 508.885742188 603.668945312 507.639648438 592.61328125 505 581 c 0
 500 561 493 542 484 525 c 0
 475 508 466 493 456 481 c 0
 446 469 434 458 420 447 c 0
 406 436 393 427 382 421 c 0
 371 415 359 409 344 402 c 2
 335 397 l 1
 338 387 l 2
 345 366 357 335 374 294 c 0
 391 253 402 227 407 214 c 2
 415 191 l 1
 430 213 442 232 450 244 c 0
 458 256 465 266 470 273 c 0
 475 280 479 286 481 289 c 0
 495 305 506 315 515 318 c 0
 517 319 521 320 523 320 c 0
 527 320 531 318 536 316 c 0
 541 313 543 307 543 300 c 0
 543 287 536 272 525 255 c 0
 521 249 509 236 489 215 c 0
 469 194 450 174 433 153 c 1
 438 137 445 116 452 93 c 0
 459 70 463 55 464 50 c 0
 465 45 467 38 467 30 c 0
 467 22 465 14 463 5 c 0
382 657.000976562 m 0
 357 657.000976562 337 648.000976562 322 631.000976562 c 0
 310 617.000976562 301 598.000976562 296 575.000976562 c 0
 294 566.000976562 293 556.000976562 293 546.000976562 c 0
 293 536.000976562 294 526.000976562 296 515.000976562 c 0
 299 493.000976562 306 474.000976562 315 458.000976562 c 2
 320 450.000976562 l 1
 330 453.000976562 l 2
 345 458.000976562 359 463.000976562 370 468.000976562 c 0
 381 473.000976562 392 480.000976562 403 489.000976562 c 0
 414 498.000976562 424 508.000976562 431 521.000976562 c 0
 438 534.000976562 444 550.000976562 448 567.000976562 c 0
 450 576.000976562 452 585.000976562 452 593.000976562 c 0
 452 610.000976562 447 623.000976562 438 634.000976562 c 0
 424 649.000976562 405 657.000976562 382 657.000976562 c 0
135 82.0009765625 m 0
 150 54.0009765625 175 40.0009765625 208 40.0009765625 c 0
 223 40.0009765625 240 43.0009765625 260 49.0009765625 c 0
 267 51.0009765625 275 56.0009765625 283 61.0009765625 c 0
 291 66.0009765625 296 69.0009765625 301 72.0009765625 c 0
 306 75.0009765625 311 80.0009765625 318 87.0009765625 c 0
 325 94.0009765625 331 99.0009765625 333 102.000976562 c 0
 335 105.000976562 340 109.000976562 346 116.000976562 c 0
 352 123.000976562 356 127.000976562 357 128.000976562 c 2
 362 133.000976562 l 1
 356 163.000976562 351 186.000976562 347 201.000976562 c 0
 342 217.000976562 332 242.000976562 318 277.000976562 c 0
 304 312.000976562 294 337.000976562 288 354.000976562 c 2
 283 366.000976562 l 1
 271 361.000976562 l 2
 250 352.000976562 231 341.000976562 214 327.000976562 c 0
 197 313.000976562 183 298.000976562 172 282.000976562 c 0
 161 266.000976562 152 249.000976562 145 232.000976562 c 0
 138 215.000976562 133 197.000976562 128 177.000976562 c 0
 124 162.000976562 122 149.000976562 122 136.000976562 c 0
 122 115.000976562 126 97.0009765625 135 82.0009765625 c 0
EndSplineSet
Validated: 524289
EndChar

StartChar: quotesingle
Encoding: 39 39 17
Width: 593
GlyphClass: 2
Flags: HMW
HStem: 458 302<257 336 257 336>
LayerCount: 2
Fore
SplineSet
337 760 m 2
 345 760 352 758 358 754 c 0
 359 753 361 750 362 746 c 0
 363 742 362 737 361 730 c 0
 355 704 346 663 332 608 c 0
 318 553 307 513 299 490 c 0
 295 479 289 470 281 465 c 0
 273 460 266 458 259 458 c 2
 257 458 l 2
 247 459 239 463 234 468 c 0
 232 470 231 473 231 477 c 0
 231 481 232 484 233 489 c 0
 243 524 253 563 263 609 c 0
 273 655 282 696 289 731 c 0
 289 737 291 743 295 747 c 0
 299 751 303 754 307 755 c 0
 316 758 324 760 331 760 c 2
 336 760 l 1
 337 760 l 2
EndSplineSet
Validated: 1
EndChar

StartChar: parenleft
Encoding: 40 40 18
Width: 593
GlyphClass: 2
Flags: HMW
HStem: -119 60<232.5 275> 745 57<440.5 473.5>
VStem: 105 71<140.5 147.5>
LayerCount: 2
Fore
SplineSet
271 -59 m 0
 279 -59 284 -61 286 -64 c 0
 287 -65 289 -67 289 -71 c 0
 289 -75 287 -81 286 -90 c 0
 284 -98 280 -104 272 -110 c 0
 264 -116 257 -119 251 -119 c 0
 214 -119 183 -105 159 -76 c 0
 134 -45 118 -3 110 52 c 0
 107 77 105 103 105 130 c 0
 105 165 107 203 113 244 c 0
 120 293 136 356 160 433 c 0
 184 510 210 574 239 623 c 0
 252 644 267 666 285 687 c 0
 303 708 322 727 343 744 c 0
 364 761 386 775 408 786 c 0
 430 797 450 802 470 802 c 0
 477 802 482 801 484 799 c 0
 486 797 488 793 488 788 c 0
 488 785 488 781 487 776 c 0
 485 765 480 757 473 752 c 0
 466 747 459 745 450 745 c 0
 431 745 414 740 396 729 c 0
 378 718 361 703 346 685 c 0
 317 651 292 609 270 558 c 0
 253 523 236 475 219 414 c 0
 202 353 191 304 185 268 c 0
 179 232 176 197 176 164 c 0
 176 117 181 76 190 41 c 0
 197 12 208 -11 221 -29 c 0
 236 -49 252 -59 271 -59 c 0
EndSplineSet
Validated: 1
EndChar

StartChar: parenright
Encoding: 41 41 19
Width: 593
GlyphClass: 2
Flags: HMW
HStem: -119 60<138.5 142.5> 745 57<320.5 350.5>
VStem: 423 65<551.5 571>
LayerCount: 2
Fore
SplineSet
488 571 m 0
 488 532 484 488 477 438 c 0
 466 361 452 298 436 250 c 0
 413 177 385 113 351 57 c 0
 317 1 281 -42 241 -73 c 0
 201 -104 162 -119 123 -119 c 0
 118 -119 113 -117 109 -112 c 0
 107 -110 106 -106 106 -102 c 2
 106 -96 l 2
 109 -81 114 -71 120 -66 c 0
 126 -61 134 -59 143 -59 c 0
 160 -59 180 -50 202 -31 c 0
 223 -14 243 10 264 38 c 0
 285 66 304 99 324 139 c 0
 344 179 359 218 372 259 c 0
 384 297 396 348 407 410 c 0
 418 472 423 522 423 560 c 0
 423 582 422 603 419 624 c 0
 416 645 411 663 404 682 c 0
 397 701 387 716 373 728 c 0
 359 740 343 745 324 745 c 0
 317 745 311 747 307 751 c 0
 305 753 304 755 304 759 c 0
 304 763 305 768 306 773 c 0
 307 778 310 784 313 788 c 0
 316 792 319 795 321 796 c 0
 328 800 334 802 341 802 c 0
 360 802 378 797 395 787 c 0
 412 777 426 764 438 747 c 0
 450 730 461 711 469 690 c 0
 477 669 483 648 485 627 c 0
 487 610 488 592 488 571 c 0
EndSplineSet
Validated: 1
EndChar

StartChar: asterisk
Encoding: 42 42 20
Width: 593
GlyphClass: 2
Flags: HMW
HStem: 305 80<96.5 119> 313 71<485 505.5> 319 52<388.5 398.5 347 416>
VStem: 215 62 315 66<145 173>
LayerCount: 2
Fore
SplineSet
341 129 m 0x98
 334 129 328 131 323 134 c 0
 321 135 318 137 317 139 c 0
 316 141 315 144 315 146 c 0
 314 173 307 213 294 264 c 2
 287 290 l 1
 272 268 l 2
 228 206 200 165 189 145 c 0
 186 139 181 134 176 131 c 0
 171 129 165 126 160 126 c 2
 154 126 l 2
 152 126 148 126 144 127 c 0
 140 128 135 130 133 132 c 0
 131 134 128 137 127 141 c 0
 126 145 125 148 125 151 c 2
 125 159 l 2
 125 166 129 173 135 182 c 2
 239 312 l 1
 212 311 l 2
 161 307 123 305 99 305 c 0
 94 305 89 307 86 308 c 0
 83 309 80 312 78 315 c 0
 75 320 73 325 73 331 c 2
 75 341 l 2
 75 346 77 351 79 356 c 0
 86 369 93 378 102 382 c 0
 107 384 111 385 116 385 c 2
 119 385 l 2
 147 383 194 379 261 374 c 1
 255 391 l 2
 240 440 226 477 215 503 c 0
 213 509 212 515 212 521 c 0
 212 527 213 534 215 540 c 0
 219 551 225 559 233 562 c 0
 239 566 245 568 251 568 c 0
 256 568 262 566 267 562 c 0
 272 558 276 552 277 545 c 0
 280 529 291 483 311 406 c 1
 327 426 l 2
 362 471 390 509 410 540 c 0
 415 549 422 556 429 560 c 0
 436 564 443 566 448 566 c 0
 453 566 458 564 461 561 c 2
 462 561 l 2
 464 560 467 557 468 552 c 0
 468 550 469 546 469 543 c 0
 469 530 465 518 455 507 c 0
 428 476 396 437 361 390 c 2
 347 371 l 1x38
 371 371 l 2
 426 371 467 375 493 382 c 0
 497 383 501 384 503 384 c 0x58
 508 384 512 381 514 378 c 0
 518 373 521 367 521 362 c 0
 521 357 519 350 515 341 c 0
 508 328 501 319 493 315 c 0
 491 314 488 313 486 313 c 0
 484 313 482 314 481 314 c 0
 465 317 437 319 395 319 c 0x38
 382 319 363 318 338 318 c 1
 379 187 l 2
 380 182 381 176 381 170 c 0
 381 164 380 159 378 154 c 0
 375 145 370 138 364 134 c 0
 358 130 350 129 341 129 c 0x98
EndSplineSet
Validated: 1
EndChar

StartChar: plus
Encoding: 43 43 21
Width: 593
GlyphClass: 2
Flags: HMW
HStem: 370 59<248 277 248 277>
LayerCount: 2
Fore
SplineSet
154 369 m 2
 143 369 135 371 133 376 c 0
 131 379 129 383 129 388 c 0
 129 390 130 394 130 397 c 0
 132 407 137 415 144 422 c 0
 151 428 159 431 170 431 c 2
 173 431 l 2
 216 430 247 429 267 429 c 2
 277 429 l 1
 286 469 295 508 302 547 c 0
 303 557 307 565 312 570 c 0
 319 577 328 580 340 580 c 2
 343 580 l 2
 350 580 356 578 360 575 c 0
 361 574 362 571 362 567 c 0
 362 563 361 559 359 553 c 0
 348 514 338 472 327 427 c 1
 445 427 l 2
 455 427 461 425 462 423 c 0
 463 421 465 418 465 413 c 0
 465 406 463 398 460 391 c 0
 458 387 455 383 452 379 c 0
 447 373 440 370 431 370 c 2
 431 370 429 371 427 371 c 0
 417 371 403 372 383 372 c 0
 363 372 340 371 313 371 c 1
 308 347 302 323 297 298 c 0
 292 273 288 258 287 253 c 0
 284 240 279 232 274 227 c 0
 268 223 261 220 253 220 c 0
 246 220 241 221 238 223 c 0
 235 225 234 229 234 235 c 0
 234 239 234 243 235 248 c 2
 263 370 l 1
 248 370 l 1
 154 369 l 2
EndSplineSet
Validated: 1
EndChar

StartChar: comma
Encoding: 44 44 22
Width: 593
GlyphClass: 2
Flags: HMW
VStem: 180 234
LayerCount: 2
Fore
SplineSet
180 -185 m 2
 180 -182 l 2
 180 -176 183 -169 190 -161 c 0
 208 -140 237 -95 276 -27 c 0
 315 41 340 89 351 116 c 0
 353 123 359 129 365 133 c 0
 371 137 377 139 382 139 c 2
 383 139 l 2
 389 139 395 138 400 137 c 0
 405 135 410 131 412 125 c 0
 413 123 414 120 414 117 c 0
 414 114 412 108 410 101 c 0
 397 68 372 19 336 -48 c 0
 300 -115 275 -157 261 -172 c 0
 249 -185 236 -195 221 -200 c 0
 213 -202 206 -204 200 -204 c 0
 197 -204 193 -203 191 -202 c 0
 188 -201 185 -198 183 -196 c 0
 181 -193 180 -189 180 -185 c 2
EndSplineSet
Validated: 1
EndChar

StartChar: hyphen
Encoding: 45 45 23
Width: 593
GlyphClass: 2
Flags: HMW
HStem: 255 62<179.5 219.5> 264 56<389 416.5>
LayerCount: 2
Fore
SplineSet
202 317 m 0x80
 237 317 279 317 328 318 c 0
 377 319 405 320 412 320 c 0x40
 421 320 427 318 429 316 c 0
 431 312 432 306 431 298 c 0
 429 287 423 278 418 273 c 0
 412 267 404 264 393 264 c 0
 385 264 353 262 298 259 c 0
 243 256 204 255 183 255 c 0
 176 255 170 256 167 258 c 0
 164 260 163 264 163 270 c 0
 163 274 164 278 165 283 c 0
 166 294 170 303 175 308 c 0
 182 314 191 317 202 317 c 0x80
EndSplineSet
Validated: 1
EndChar

StartChar: period
Encoding: 46 46 24
Width: 593
GlyphClass: 2
Flags: HMW
HStem: -2 130<263.5 327.5 271 327.5>
VStem: 231 131<37.5 90.5>
LayerCount: 2
Fore
SplineSet
362 85 m 0
 362 80 361 74 360 68 c 0
 356 49 348 34 333 21 c 0
 318 8 300 0 279 -2 c 2
 271 -2 l 2
 256 -2 246 3 239 13 c 0
 234 22 231 32 231 43 c 0
 231 49 232 55 233 61 c 0
 237 79 248 94 265 107 c 0
 284 121 301 128 320 128 c 0
 335 128 347 123 354 113 c 0
 359 105 362 96 362 85 c 0
EndSplineSet
Validated: 1
EndChar

StartChar: slash
Encoding: 47 47 25
Width: 593
GlyphClass: 2
Flags: W
LayerCount: 2
Fore
SplineSet
-8 -31 m 0
 -8 -28 -7 -24 -7 -20 c 0
 -5 -3 3 12 14 27 c 0
 142 187 252 329 345 454 c 0
 404 530 467 617 534 714 c 0
 541 723 547 730 555 734 c 0
 563 738 570 741 576 741 c 0
 582 741 587 739 593 737 c 0
 599 733 603 727 603 719 c 0
 603 710 596 698 587 683 c 0
 563 649 499 566 394 433 c 0
 289 300 225 218 202 185 c 0
 187 164 163 129 129 80 c 0
 95 31 74 1 66 -10 c 0
 53 -27 38 -38 23 -45 c 0
 16 -47 11 -49 7 -49 c 0
 3 -49 -1 -48 -3 -46 c 2
 -4 -46 l 2
 -6 -44 -8 -38 -8 -31 c 0
EndSplineSet
Validated: 1
EndChar

StartChar: zero
Encoding: 48 48 26
Width: 593
GlyphClass: 2
Flags: HMW
HStem: -12 60<213 213.5> 649 57<372 373>
VStem: 65 77<133.5 211>
LayerCount: 2
Fore
SplineSet
76 211 m 0
 77 218 80 235 86 261 c 0
 92 287 97 308 101 324 c 0
 105 340 111 361 118 388 c 0
 125 415 132 438 138 458 c 0
 144 478 152 500 162 522 c 0
 172 544 181 565 190 582 c 0
 212 623 240 653 275 674 c 0
 310 695 350 706 394 706 c 0
 416 706 437 702 455 693 c 0
 473 684 488 671 500 655 c 0
 512 639 520 618 525 591 c 0
 527 578 528 564 528 548 c 0
 528 532 526 516 524 496 c 0
 519 463 511 425 502 383 c 0
 493 341 482 298 470 256 c 0
 458 214 447 181 436 159 c 0
 416 117 396 82 376 57 c 0
 367 45 359 34 348 26 c 0
 337 18 327 11 317 6 c 0
 307 1 296 -3 284 -5 c 0
 272 -7 260 -10 248 -11 c 0
 236 -12 222 -12 205 -12 c 0
 180 -12 157 -7 136 3 c 0
 115 13 100 27 88 46 c 0
 76 65 68 88 66 116 c 0
 66 123 65 130 65 137 c 0
 65 159 69 184 76 211 c 0
278 616 m 0
 255 594 234 559 214 511 c 0
 207 494 200 473 194 451 c 0
 188 429 181 402 174 370 c 0
 167 338 162 315 160 302 c 2
 146 232 l 2
 146 230 144 226 144 221 c 0
 144 216 142 212 142 210 c 2
 127 160 l 1
 163 198 l 1
 265 321 360 447 451 576 c 1
 456 581 l 1
 453 588 l 2
 444 608 432 622 416 633 c 0
 401 644 383 649 363 649 c 0
 330 649 301 638 278 616 c 0
266 53 m 0
 279 56 293 61 306 70 c 0
 333 86 356 117 377 162 c 0
 381 171 388 194 398 230 c 0
 409 266 421 307 433 354 c 0
 445 401 453 446 460 489 c 2
 468 542 l 1
 438 498 l 1
 345 352 248 230 144 131 c 1
 139 127 l 1
 140 120 l 2
 145 93 156 74 173 62 c 0
 186 53 203 48 223 48 c 0
 239 48 253 50 266 53 c 0
EndSplineSet
Validated: 1
EndChar

StartChar: one
Encoding: 49 49 27
Width: 593
GlyphClass: 2
Flags: HMW
HStem: 3 67
LayerCount: 2
Fore
SplineSet
500 47 m 2
 500 40 l 2
 498 29 493 21 486 14 c 0
 479 7 468 3 453 3 c 0
 250 5 135 7 113 7 c 0
 104 7 99 9 97 13 c 0
 95 16 93 19 93 23 c 0
 93 27 95 31 95 35 c 0
 97 46 100 55 107 62 c 0
 114 69 123 72 134 72 c 0
 162 72 210 71 277 70 c 1
 284 103 290 129 292 146 c 0
 292 151 295 168 301 197 c 2
 315 262 l 2
 317 275 324 300 332 336 c 0
 340 372 347 399 351 417 c 0
 366 481 381 549 401 620 c 1
 374 598 l 2
 327 558 293 534 273 525 c 0
 271 524 269 523 267 523 c 0
 263 523 258 527 254 532 c 0
 249 539 248 545 248 551 c 0
 248 553 249 555 249 557 c 0
 250 566 253 574 258 581 c 0
 263 588 270 595 281 604 c 0
 300 619 319 636 340 653 c 2
 387 692 l 2
 398 699 408 705 417 710 c 0
 426 715 433 718 438 718 c 0
 447 718 456 713 465 704 c 0
 472 697 477 691 477 686 c 2
 477 685 l 1
 477 685 463 633 436 529 c 0
 409 430 394 373 391 357 c 0
 377 290 365 234 356 190 c 0
 351 165 343 124 334 67 c 1
 359 67 393 66 433 65 c 0
 455 65 470 64 476 64 c 0
 482 64 488 63 491 62 c 0
 494 61 497 59 497 58 c 0
 499 56 500 52 500 47 c 2
EndSplineSet
Validated: 1
EndChar

StartChar: two
Encoding: 50 50 28
Width: 593
GlyphClass: 2
Flags: HMW
HStem: -5 59 0 64<402 408> 650 60<381.5 393.5>
VStem: 474 68<578.5 582>
LayerCount: 2
Fore
SplineSet
224 -5 m 0xb0
 197 -6 168 -7 137 -7 c 0
 106 -7 82 -6 65 -4 c 0
 61 -4 59 -1 57 1 c 0
 54 5 51 12 51 23 c 0
 51 38 56 57 61 81 c 0
 68 108 79 137 97 167 c 0
 115 197 138 227 167 256 c 0
 194 284 221 307 250 324 c 0
 319 365 366 393 387 409 c 0
 416 431 438 456 451 482 c 0
 458 496 465 514 470 536 c 0
 472 549 474 560 474 571 c 0
 474 593 468 610 456 623 c 0
 439 641 411 650 376 650 c 0
 352 650 329 642 304 625 c 0
 279 608 259 590 243 569 c 0
 230 553 220 544 214 544 c 2
 210 544 l 2
 209 544 207 544 205 545 c 0
 203 546 198 549 193 551 c 0
 188 554 187 559 187 566 c 0
 187 572 193 584 202 603 c 0
 209 615 219 627 232 639 c 0
 245 651 260 662 277 673 c 0
 294 684 313 693 333 700 c 0
 353 707 372 710 391 710 c 0
 453 710 495 695 520 664 c 0
 535 645 542 620 542 588 c 0
 542 569 540 548 535 525 c 0
 522 472 499 430 467 398 c 0
 443 374 405 347 354 318 c 0
 338 308 318 296 291 281 c 0
 261 265 234 246 212 223 c 0
 190 200 173 176 160 151 c 0
 147 127 135 101 127 73 c 2
 123 58 l 1
 170 56 210 54 243 54 c 0
 268 54 287 55 303 56 c 0
 319 57 332 58 343 59 c 0
 354 60 373 62 402 64 c 2x70
 411 64 l 2
 415 64 419 65 423 65 c 0
 427 65 431 64 433 64 c 0
 434 63 436 61 438 60 c 2
 438 56 l 1
 438 52 l 2
 438 45 436 37 433 29 c 0
 430 21 424 14 418 8 c 0
 414 3 410 0 406 0 c 0
 366 0 307 -1 224 -5 c 0xb0
EndSplineSet
Validated: 1
EndChar

StartChar: three
Encoding: 51 51 29
Width: 593
GlyphClass: 2
Flags: HMW
HStem: -12 60<228.5 250.5> 330 76<258.5 279> 650 60<356.5 370.5>
VStem: 396 74<214.5 271> 458 69<584.5 585.5>
LayerCount: 2
Fore
SplineSet
463 201 m 0xf0
 448 136 418 84 374 45 c 0
 332 7 281 -12 220 -12 c 0
 201 -12 183 -9 165 -2 c 0
 147 4 132 12 119 22 c 0
 106 32 95 44 86 56 c 0
 77 68 71 80 69 91 c 0
 68 96 67 101 67 107 c 0
 67 113 69 119 71 125 c 0
 76 135 82 142 90 146 c 0
 98 150 105 152 110 152 c 0
 112 152 115 151 117 151 c 0
 124 149 129 143 134 132 c 0
 143 110 157 90 177 73 c 0
 195 56 216 48 241 48 c 0
 277 48 309 60 337 84 c 0
 365 108 384 140 392 179 c 0
 394 194 396 208 396 221 c 0
 396 248 390 271 375 289 c 0
 353 316 310 330 248 330 c 0
 245 330 241 332 239 333 c 0
 237 334 234 337 232 341 c 0
 229 346 227 352 227 359 c 0
 227 361 228 365 228 368 c 0
 230 380 235 389 241 396 c 0
 247 403 254 406 263 406 c 0
 312 406 353 418 386 442 c 0
 422 466 445 501 454 546 c 0
 456 557 458 566 458 575 c 0xe8
 458 596 451 612 436 625 c 0
 416 642 389 650 352 650 c 0
 340 650 327 647 313 642 c 0
 308 640 302 636 296 632 c 0
 290 628 285 624 282 622 c 0
 279 620 275 614 269 608 c 2
 256 595 l 2
 254 593 250 587 245 580 c 0
 234 567 225 560 218 558 c 0
 216 558 214 557 212 557 c 0
 207 557 203 559 198 562 c 0
 196 564 193 566 192 568 c 0
 191 570 191 574 191 577 c 0
 191 588 196 600 205 615 c 0
 220 640 241 662 267 680 c 0
 280 689 296 697 313 702 c 0
 330 707 347 710 366 710 c 0
 430 710 476 695 502 666 c 0
 519 648 527 624 527 593 c 0
 527 576 524 556 519 535 c 0
 515 516 509 500 501 485 c 0
 493 470 484 458 474 448 c 0
 464 438 453 429 440 421 c 0
 427 413 415 408 403 403 c 0
 392 398 380 394 367 392 c 2
 319 381 l 1
 367 368 l 2
 388 363 405 356 419 348 c 0
 433 340 445 330 454 317 c 0
 465 302 470 283 470 259 c 0
 470 242 468 222 463 201 c 0xf0
EndSplineSet
Validated: 1
EndChar

StartChar: four
Encoding: 52 52 30
Width: 593
GlyphClass: 2
Flags: HMW
HStem: 236 55<266.5 371 358 359>
VStem: 315 50 315 63<17 62 19 62>
LayerCount: 2
Fore
SplineSet
322 -1 m 0xa0
 317 5 315 11 315 17 c 2
 315 19 l 1
 320 40 328 78 339 134 c 2
 359 236 l 1
 307 236 l 2
 226 236 166 232 125 223 c 0
 121 223 117 222 114 222 c 0
 111 222 107 222 105 223 c 0
 101 225 98 228 96 231 c 0
 94 238 92 246 92 255 c 0
 92 260 94 266 95 274 c 0
 96 282 99 290 103 297 c 0
 114 315 137 345 174 387 c 0
 209 429 251 480 301 542 c 0
 351 604 389 650 413 679 c 0
 423 690 433 699 443 705 c 0
 453 711 462 713 469 713 c 2
 470 713 l 1
 476 713 l 2
 483 713 490 711 495 708 c 0
 500 705 502 699 502 691 c 2
 502 691 501 689 501 688 c 0
 500 665 494 629 485 581 c 0
 476 533 468 491 461 458 c 2
 425 291 l 1
 446 291 463 290 476 290 c 0
 486 290 492 287 494 285 c 0
 496 281 496 275 495 267 c 0
 493 256 488 247 483 242 c 0
 477 235 469 232 457 232 c 0
 445 232 430 233 413 234 c 1
 391 129 378 69 378 55 c 0
 378 36 373 20 365 7 c 0xc0
 358 -5 350 -11 341 -11 c 0
 334 -11 328 -8 322 -1 c 0xa0
440 640 m 1
 412 610 l 1
 303 481 225 380 179 308 c 2
 165 287 l 1
 190 289 l 2
 222 291 261 292 305 292 c 0
 323 292 345 291 371 291 c 1
 400 423 420 526 433 600 c 2
 440 640 l 1
EndSplineSet
Validated: 1
EndChar

StartChar: five
Encoding: 53 53 31
Width: 593
GlyphClass: 2
Flags: HMW
HStem: -6 60<200.5 217.5> 433 64<322 382.5> 633 62<489.5 547.5 532 547.5> 639 61
VStem: 415 70<327 379.5>
LayerCount: 2
Fore
SplineSet
478 299 m 0xd8
 467 250 451 207 431 168 c 0
 412 129 390 97 367 72 c 0
 344 47 318 27 290 14 c 0
 262 1 233 -6 202 -6 c 0
 178 -6 155 -3 135 3 c 0
 114 9 98 17 86 26 c 0
 74 35 66 45 59 56 c 0
 52 67 46 78 43 89 c 0
 42 96 42 102 42 108 c 0
 42 114 42 121 44 126 c 0
 48 134 55 140 64 145 c 0
 75 150 83 152 87 152 c 0
 88 152 90 151 92 151 c 0
 94 151 97 150 98 148 c 0
 100 144 103 138 106 131 c 0
 117 103 133 83 154 70 c 0
 171 59 190 54 211 54 c 0
 256 54 298 75 334 117 c 0
 369 159 394 213 409 282 c 0
 413 302 415 319 415 335 c 0
 415 356 411 374 404 389 c 0
 397 405 387 417 372 424 c 0
 360 430 346 433 330 433 c 0
 314 433 297 430 280 426 c 0
 270 424 258 418 242 409 c 0
 238 407 232 403 225 398 c 0
 218 393 213 389 211 387 c 0
 209 385 200 376 185 363 c 0
 174 354 161 348 147 347 c 0
 146 347 145 346 144 346 c 0
 139 346 134 348 129 350 c 0
 122 353 119 364 119 383 c 0
 119 396 121 412 125 432 c 0
 129 452 134 473 140 494 c 0
 146 515 153 538 160 563 c 0
 167 588 171 606 173 619 c 1
 172 623 l 2
 170 627 169 632 169 638 c 0
 169 640 170 644 170 646 c 0
 170 656 173 665 177 673 c 0
 181 681 185 687 191 692 c 0
 197 697 203 700 208 700 c 0
 229 700 277 699 355 698 c 0
 436 697 499 696 543 696 c 0
 544 696 546 695 547 695 c 0xe8
 548 695 549 693 549 692 c 0
 551 687 553 682 553 676 c 2
 553 672 l 2
 553 664 550 657 548 650 c 0
 547 647 545 644 544 642 c 0
 543 640 541 637 539 636 c 0
 537 635 535 633 533 633 c 0
 531 633 527 631 524 631 c 2
 517 631 l 2
 516 631 512 632 507 632 c 0
 502 632 497 633 492 633 c 0
 487 633 474 634 453 636 c 0
 432 638 413 640 397 641 c 0
 381 642 360 643 331 643 c 0
 302 643 268 641 231 639 c 1
 228 626 223 604 215 572 c 0
 207 540 202 517 199 502 c 0
 196 487 190 454 180 403 c 1
 205 430 l 2
 225 450 248 465 277 478 c 0
 306 491 338 497 371 497 c 0
 394 497 414 492 430 482 c 0
 448 473 459 459 468 442 c 0
 479 421 485 395 485 364 c 0
 485 343 483 321 478 299 c 0xd8
EndSplineSet
Validated: 1
EndChar

StartChar: six
Encoding: 54 54 32
Width: 593
GlyphClass: 2
Flags: HMW
HStem: -10 60<218.5 253> 405 64<316.5 383.5>
VStem: 85 58<186.5 192> 428 71<299 358>
LayerCount: 2
Fore
SplineSet
487 248 m 0
 479 213 465 178 446 146 c 0
 427 114 406 86 383 64 c 0
 362 42 339 23 313 10 c 0
 287 -3 261 -10 235 -10 c 0
 202 -10 173 -3 150 12 c 0
 127 27 111 48 101 75 c 0
 91 102 85 134 85 171 c 0
 85 213 92 260 105 313 c 0
 118 370 135 421 156 465 c 0
 177 509 199 547 221 578 c 0
 242 609 266 635 292 656 c 0
 318 677 346 693 374 704 c 0
 404 715 437 722 474 725 c 2
 481 725 l 2
 490 725 498 723 503 720 c 0
 505 719 506 716 507 714 c 0
 508 712 509 709 509 708 c 2
 509 704 l 2
 509 699 504 692 495 684 c 0
 486 676 478 670 469 668 c 0
 462 667 451 664 436 661 c 0
 421 658 408 654 397 651 c 0
 387 648 375 643 362 637 c 0
 335 624 305 601 274 567 c 0
 258 549 242 525 225 494 c 0
 208 463 195 436 186 412 c 2
 168 362 l 1
 206 399 l 2
 227 422 252 440 280 452 c 0
 308 464 339 469 371 469 c 0
 396 469 418 466 437 458 c 0
 456 450 469 438 480 421 c 0
 493 401 499 375 499 341 c 0
 499 314 495 283 487 248 c 0
244 378 m 0
 215 360 188 337 164 309 c 2
 162 307 l 1
 154 276 148 251 146 232 c 0
 144 221 143 209 143 197 c 0
 143 176 146 156 152 136 c 0
 157 120 163 105 172 92 c 0
 181 79 192 69 207 61 c 0
 220 54 235 50 251 50 c 2
 253 50 l 2
 275 50 299 59 321 78 c 0
 343 97 363 119 380 147 c 0
 399 175 411 203 418 232 c 0
 425 262 428 288 428 310 c 0
 428 335 423 355 413 369 c 0
 403 382 391 392 378 397 c 0
 365 402 350 405 331 405 c 0
 302 405 273 396 244 378 c 0
EndSplineSet
Validated: 1
EndChar

StartChar: seven
Encoding: 55 55 33
Width: 593
GlyphClass: 2
Flags: HMW
HStem: 634 68
LayerCount: 2
Fore
SplineSet
538 631 m 0
 525 611 502 581 470 541 c 0
 439 501 406 459 375 417 c 0
 344 375 304 319 257 249 c 0
 210 179 163 107 116 33 c 0
 105 16 94 4 82 -3 c 0
 73 -8 66 -11 59 -11 c 2
 54 -11 l 2
 50 -10 46 -7 44 -4 c 0
 42 -1 41 3 41 9 c 0
 41 15 44 24 50 37 c 0
 97 105 146 173 195 241 c 0
 242 309 282 362 313 403 c 0
 344 444 371 483 398 522 c 0
 425 561 446 592 459 616 c 2
 467 633 l 1
 447 634 l 2
 422 634.5 396.5 634.75 370.125 634.75 c 0
 343.75 634.75 316.5 634.5 288 634 c 0
 231 633 193 629 173 624 c 0
 171 624 169 623 168 623 c 0
 167 623 165 624 164 624 c 0
 162 625 159 628 158 630 c 0
 156 637 154 646 155 658 c 0
 157 666 162 673 167 679 c 0
 172 685 179 690 192 692 c 0
 223 699 275 702 345 702 c 0
 367 702 412 700 478 697 c 0
 510 696 527 695 529 695 c 0
 539 695 546 691 551 682 c 0
 552 680 554 676 554 673 c 0
 554 670 553 667 553 665 c 0
 552 656 547 644 538 631 c 0
EndSplineSet
Validated: 524289
EndChar

StartChar: eight
Encoding: 56 56 34
Width: 593
GlyphClass: 2
Flags: HMW
HStem: -16 61<235.5 240> 658 48<352.5 392.5 367 392.5>
VStem: 68 58<122.5 164> 175 60 425 67<217.5 249.5> 464 62<550 586>
LayerCount: 2
Fore
SplineSet
492 244 m 0xf8
 492 233 490 221 487 207 c 0
 477 163 457 122 426 85 c 0
 409 65 393 49 374 34 c 0
 355 19 333 7 307 -2 c 0
 281 -11 254 -16 226 -16 c 0
 197 -16 171 -12 150 -3 c 0
 129 6 112 16 101 29 c 0
 90 42 81 58 76 77 c 0
 71 96 68 113 68 132 c 0
 68 151 70 172 75 194 c 0
 80 215 90 237 106 262 c 0
 122 287 143 310 167 331 c 0
 189 353 213 368 235 376 c 2
 259 384 l 1
 237 398 l 2
 213 413 196 432 186 457 c 0
 179 473 175 489 175 505 c 0
 175 514 176 523 178 531 c 0
 180 539 183 547 186 556 c 0
 188 565 193 574 199 586 c 0
 205 598 210 609 217 620 c 0
 224 631 234 641 245 652 c 0
 256 663 267 672 280 680 c 0
 293 688 308 694 326 699 c 0
 344 704 362 706 382 706 c 0
 403 706 421 704 439 699 c 0
 457 694 471 688 481 681 c 0
 491 674 499 664 506 654 c 0
 513 644 519 634 521 624 c 0
 524 611 526 595 526 577 c 0xf4
 526 563 524 548 521 533 c 0
 520 526 517 519 514 512 c 0
 511 505 507 499 503 493 c 0
 499 487 493 481 487 475 c 0
 481 469 475 464 470 459 c 0
 462 452 446 441 423 426 c 2
 378 396 l 1
 396 386 l 2
 415 376 431 365 444 352 c 0
 457 339 467 327 474 315 c 0
 481 303 486 292 488 279 c 0
 490 266 492 255 492 244 c 0xf8
424 638 m 0
 407 651 389 658 368 658 c 2
 367 658 l 2
 338 658 312 646 286 622 c 0
 260 598 244 570 238 541 c 0
 236 534 235 527 235 521 c 0
 235 502 241 486 253 471 c 0
 268 453 294 435 331 417 c 2
 335 415 l 1
 339 416 l 1
 366 428 391 444 415 465 c 0
 442 486 457 506 461 526 c 0
 463 535 464 545 464 555 c 0
 464 565 462 576 459 587 c 0
 453 608 441 625 424 638 c 0
136 114 m 0
 147 92 162 74 183 63 c 0
 203 51 224 45 247 45 c 0
 264 45 281 49 299 55 c 0
 317 61 334 70 350 81 c 0
 366 92 380 107 393 126 c 0
 406 145 415 165 420 186 c 0
 423 199 425 212 425 223 c 0xf8
 425 233 423 244 420 257 c 0
 417 270 412 282 404 294 c 0
 397 306 386 318 372 330 c 0
 358 342 341 353 320 363 c 2
 317 365 l 1
 313 364 l 2
 269 351 230 328 197 295 c 0
 161 262 138 227 129 189 c 0
 127 179 126 169 126 159 c 0
 126 143 129 128 136 114 c 0
EndSplineSet
Validated: 1
EndChar

StartChar: nine
Encoding: 57 57 35
Width: 593
GlyphClass: 2
Flags: HMW
HStem: 248 64<234 298> 667 60<342 387.5 353 387.5>
VStem: 114 68<412.5 427> 463 57<522.5 530.5>
LayerCount: 2
Fore
SplineSet
497 382 m 0
 484 330 467 283 446 241 c 0
 425 199 401 162 377 133 c 0
 354 104 328 79 300 58 c 0
 272 37 243 22 213 11 c 0
 181 0 147 -7 110 -10 c 0
 108 -10 106 -11 104 -11 c 0
 95 -11 88 -8 82 -5 c 0
 80 -4 77 -2 76 0 c 0
 75 2 75 6 75 10 c 0
 75 16 80 22 88 30 c 0
 96 38 106 44 115 46 c 0
 122 48 133 51 149 55 c 0
 165 59 181 62 194 65 c 0
 205 68 219 73 234 79 c 0
 267 92 297 114 326 145 c 0
 344 165 360 188 377 214 c 0
 394 241 408 265 417 286 c 2
 439 341 l 1
 397 300 l 2
 378 280 357 266 333 259 c 0
 309 252 280 248 245 248 c 0
 223 248 202 253 184 266 c 0
 164 279 149 295 138 316 c 0
 127 337 119 362 116 390 c 0
 115 399 114 408 114 417 c 0
 114 437 116 456 121 476 c 0
 130 512 142 546 161 577 c 0
 180 608 200 635 222 657 c 0
 243 679 266 696 292 708 c 0
 318 720 346 727 373 727 c 0
 402 727 427 721 448 710 c 0
 474 696 493 673 505 642 c 0
 515 615 520 583 520 546 c 0
 520 499 512 444 497 382 c 0
454 581 m 0
 449 597 443 611 434 624 c 0
 425 637 413 647 398 655 c 0
 385 663 370 667 354 667 c 2
 353 667 l 2
 331 667 307 659 284 642 c 0
 261 625 242 603 225 577 c 0
 208 551 196 523 190 494 c 0
 184 468 182 445 182 425 c 0
 182 400 187 378 196 361 c 0
 213 328 243 312 285 312 c 0
 311 312 338 319 365 333 c 0
 393 347 417 366 439 391 c 1
 442 393 l 1
 447 415 452 445 459 485 c 0
 461 496 463 508 463 520 c 0
 463 541 460 561 454 581 c 0
EndSplineSet
Validated: 1
EndChar

StartChar: colon
Encoding: 58 58 36
Width: 593
GlyphClass: 2
Flags: HMW
HStem: 52 131<241.5 286 246 286> 319 131<311 347 311 347>
VStem: 212 108<80 151.5 84 151.5> 273 109<343 424 351 424>
LayerCount: 2
Fore
SplineSet
273 351 m 2xd0
 275 369 281 392 288 419 c 0
 289 426 292 432 296 436 c 0
 300 440 306 443 312 445 c 0
 322 448 331 450 340 450 c 2
 347 450 l 2
 357 450 366 448 374 443 c 0
 379 440 382 433 382 424 c 2
 382 419 l 1
 378 398 370 376 359 352 c 0
 354 341 347 332 337 327 c 0
 327 322 320 319 313 319 c 2
 311 319 l 2
 299 320 290 323 283 327 c 0
 279 329 276 331 275 334 c 0
 274 337 273 340 273 343 c 2
 273 351 l 2xd0
212 80 m 2xe0
 212 84 l 1
 217 110 l 2
 217 112 220 117 221 122 c 0
 222 127 225 137 230 152 c 0
 231 158 234 163 238 167 c 0
 242 171 247 175 252 177 c 0
 263 181 272 183 280 183 c 2
 286 183 l 2
 292 183 298 182 303 180 c 0
 308 178 311 175 315 170 c 0
 319 165 321 160 321 153 c 2
 321 153 320 152 320 151 c 0
 319 129 312 106 301 83 c 0
 296 73 288 65 277 60 c 0
 266 55 257 52 249 52 c 2
 246 52 l 2
 237 52 228 56 220 62 c 0
 215 67 212 73 212 80 c 2xe0
EndSplineSet
Validated: 1
EndChar

StartChar: semicolon
Encoding: 59 59 37
Width: 593
GlyphClass: 2
Flags: HMW
HStem: 277 131<367 401 367 401>
VStem: 328 109<306 382 310 382>
LayerCount: 2
Fore
SplineSet
401 408 m 2
 410 408 420 406 429 401 c 0
 431 400 434 398 435 394 c 0
 436 390 437 386 437 382 c 2
 437 377 l 1
 433 356 425 334 414 310 c 0
 409 299 401 290 392 285 c 0
 383 280 375 277 368 277 c 2
 367 277 l 2
 351 279 339 285 332 294 c 0
 330 297 328 301 328 306 c 2
 328 310 l 2
 330 328 335 351 342 378 c 0
 344 384 348 390 352 394 c 0
 356 398 362 401 368 403 c 0
 374 405 379 407 384 407 c 0
 389 407 394 408 396 408 c 2
 401 408 l 2
349 77 m 0
 343 56 303 -30 229 -182 c 0
 224 -193 217 -201 209 -206 c 0
 201 -211 194 -213 187 -213 c 2
 185 -213 l 2
 176 -213 168 -210 162 -204 c 0
 160 -202 158 -198 158 -194 c 0
 158 -190 159 -187 160 -183 c 0
 165 -168 180 -129 206 -67 c 0
 232 -5 252 41 267 74 c 0
 271 83 274 90 278 95 c 0
 282 100 287 103 289 104 c 0
 296 106 302 107 307 107 c 0
 308 107 311 106 313 106 c 0
 324 106 334 104 343 99 c 0
 348 97 351 92 351 87 c 0
 351 85 350 81 349 77 c 0
EndSplineSet
Validated: 1
EndChar

StartChar: less
Encoding: 60 60 38
Width: 593
GlyphClass: 2
Flags: HMW
HStem: 680 20G<521 527>
LayerCount: 2
Fore
SplineSet
550 669 m 0
 550 663 547 657 542 650 c 0
 533 639 516 626 493 611 c 0
 453 585 390 543 306 483 c 0
 222 423 163 383 132 362 c 1
 142 352 l 2
 162 332 183 307 206 279 c 0
 229 251 249 226 266 203 c 0
 283 180 301 155 322 131 c 0
 343 107 362 88 379 74 c 0
 399 58 408 45 408 35 c 0
 408 32 406 27 403 20 c 0
 400 15 396 10 390 7 c 0
 384 4 376 1 367 0 c 2
 361 0 l 2
 354 0 346 2 337 5 c 0
 324 10 309 21 291 38 c 0
 273 55 254 77 233 102 c 0
 212 127 193 152 173 178 c 0
 153 204 131 230 108 258 c 0
 85 286 66 308 49 324 c 0
 46 327 44 333 44 341 c 0
 44 351 46 361 51 370 c 0
 56 379 61 385 68 389 c 0
 110 418 160 454 217 496 c 0
 274 538 327 576 374 610 c 0
 421 644 462 671 497 691 c 0
 508 697 517 700 525 700 c 0
 529 700 533 700 535 698 c 0
 543 692 548 684 549 675 c 0
 549 673 550 671 550 669 c 0
EndSplineSet
Validated: 1
EndChar

StartChar: equal
Encoding: 61 61 39
Width: 593
GlyphClass: 2
Flags: HMW
HStem: 259 50 259 58 455 61<186.5 191.5>
LayerCount: 2
Fore
SplineSet
192 516 m 2x20
 194 516.000976562 l 2
 230.318359375 514.829101562 270.068359375 514.34375 313.25 514.34375 c 0
 343.784179688 514.34375 376.034179688 514.5859375 410 515 c 0
 442 515 460 516 467 516 c 0
 477 516 484 515 485 513 c 0
 486 511 487 507 487 502 c 0
 487 495 485 487 482 479 c 0
 478 470 473 463 466 461 c 0
 463 460 460 459 458 459 c 2
 451 459 l 2
 437 459 424 460 412 460 c 2
 378 460 l 1
 275 457 l 2
 233 456 202 455 181 455 c 0
 170 455 161 458 156 463 c 0
 153 466 151 470 151 475 c 0
 151 477 152 480 152 482 c 0
 154 492 160 500 167 507 c 0
 174 513 181 516 192 516 c 2x20
152 317.000976562 m 2x60
 172 317.000976562 195 316.000976562 223 316.000976562 c 0
 251 316.000976562 284 318.000976562 324 318.000976562 c 2
 422 320.000976562 l 2
 433 320.000976562 439 318.000976562 440 316.000976562 c 0
 442 313.000976562 442 307.000976562 441 298.000976562 c 0
 439 288.000976562 436 280.000976562 431 273.000976562 c 0
 429 269.000976562 425 266.000976562 421 265.000976562 c 0
 417 264.000976562 414 264.000976562 412 264.000976562 c 2
 405 264.000976562 l 2
 390 264.000976562 373 265.000976562 353 265.000976562 c 0
 333 265.000976562 292 263.000976562 228 261.000976562 c 0
 184 260.000976562 151 259.000976562 131 259.000976562 c 0
 120 259.000976562 112 261.000976562 109 266.000976562 c 0
 107 269.000976562 106 273.000976562 106 278.000976562 c 0
 106 281.000976562 107 285.000976562 107 288.000976562 c 0
 108 296.000976562 113 303.000976562 121 309.000976562 c 0xa0
 129 315.000976562 138 317.000976562 150 317.000976562 c 2
 152 317.000976562 l 2x60
EndSplineSet
Validated: 524289
EndChar

StartChar: greater
Encoding: 62 62 40
Width: 593
GlyphClass: 2
Flags: HMW
HStem: 687 20G<227 233 233 236.5>
LayerCount: 2
Fore
SplineSet
233 707 m 2
 240 707 248 705 257 702 c 0
 270 697 285 686 304 669 c 0
 323 652 341 631 361 606 c 0
 381 581 401 555 421 529 c 0
 441 503 463 477 485 449 c 0
 507 421 528 399 545 383 c 0
 548 380 550 374 550 366 c 0
 550 356 548 346 543 337 c 0
 538 328 533 322 526 318 c 0
 484 290 434 254 377 212 c 0
 320 170 268 131 221 97 c 0
 174 63 132 36 97 16 c 0
 86 10 77 7 69 7 c 0
 64 7 61 7 59 9 c 0
 55 12 51 16 49 20 c 0
 47 24 45 26 45 30 c 0
 45 34 44 37 44 38 c 0
 44 44 47 50 52 57 c 0
 61 68 77 81 101 96 c 0
 142 122 205 164 289 224 c 0
 373 284 432 324 463 345 c 1
 452 355 l 2
 432 375 412 400 389 428 c 0
 366 456 346 481 329 504 c 0
 312 527 293 552 272 576 c 0
 251 600 233 619 215 633 c 0
 195 649 186 662 186 672 c 0
 186 677 188 682 191 687 c 0
 194 692 199 697 205 700 c 0
 211 703 218 706 227 707 c 2
 233 707 l 2
EndSplineSet
Validated: 1
EndChar

StartChar: question
Encoding: 63 63 41
Width: 593
GlyphClass: 2
Flags: HMW
HStem: -2 130<139.5 203.5 147 203.5> 650 60<323 336>
VStem: 106 132<37.5 90.5> 419 69<578.5 582>
LayerCount: 2
Fore
SplineSet
488 588 m 0
 488 569 485 548 480 525 c 0
 476 508 469 493 461 479 c 0
 453 465 444 453 434 443 c 0
 424 433 412 424 399 415 c 0
 386 406 373 396 359 387 c 0
 345 378 333 368 320 357 c 0
 307 346 296 333 284 318 c 0
 272 303 263 286 256 267 c 0
 250 252 242 240 233 232 c 0
 228 227 222 225 215 225 c 0
 213 225 209 227 204 227 c 0
 199 228 194 231 191 233 c 0
 186 237 184 242 184 249 c 0
 184 259 188 272 195 287 c 0
 203 304 213 320 225 335 c 0
 237 350 247 364 259 375 c 0
 271 386 284 397 297 407 c 0
 310 417 323 427 335 436 c 0
 347 445 359 454 370 464 c 0
 381 474 390 485 398 497 c 0
 406 509 412 522 415 535 c 0
 418 548 419 560 419 571 c 0
 419 593 413 610 401 623 c 0
 383 641 355 650 317 650 c 0
 307 650 297 648 286 643 c 0
 275 638 265 633 257 627 c 0
 249 621 240 613 230 604 c 0
 220 595 212 587 207 581 c 0
 202 575 195 567 187 558 c 0
 174 543 164 534 157 534 c 0
 156 534 153 533 152 533 c 0
 151 533 148 534 146 535 c 0
 144 536 139 538 134 540 c 0
 129 543 126 548 126 555 c 0
 126 564 131 576 142 592 c 0
 162 619 188 645 219 669 c 0
 235 681 253 691 273 699 c 0
 293 707 313 710 333 710 c 0
 396 710 440 695 465 664 c 0
 480 645 488 620 488 588 c 0
238 85 m 0
 238 80 237 74 236 68 c 0
 232 49 223 34 208 21 c 0
 193 8 175 0 155 -2 c 2
 147 -2 l 2
 132 -2 122 3 115 13 c 0
 109 22 106 32 106 43 c 0
 106 48 107 54 108 61 c 0
 113 79 123 94 140 107 c 0
 158 121 176 128 196 128 c 0
 211 128 223 123 230 113 c 0
 235 105 238 96 238 85 c 0
EndSplineSet
Validated: 1
EndChar

StartChar: at
Encoding: 64 64 42
Width: 593
GlyphClass: 2
Flags: HMW
HStem: -117 61<177 224.5 192 224.5> 114 53<390.5 421.5> 130 56<255.5 263.5> 394 52<324 353.5 324 353.5> 625 65<376.5 413 390 406>
VStem: 38 60<100 118.5> 169 53<198 229> 354 33 505 51<460 533.5>
LayerCount: 2
Fore
SplineSet
428 49 m 2xdf80
 428 47 426 42 424 36 c 0
 422 30 418 22 412 12 c 0
 407 3 402 -6 397 -13 c 0
 392 -20 386 -28 378 -38 c 0
 370 -48 362 -55 354 -62 c 0
 346 -69 337 -77 325 -84 c 0
 313 -91 301 -97 289 -102 c 0
 277 -107 262 -111 246 -113 c 0
 230 -115 214 -117 197 -117 c 2
 192 -117 l 2
 162 -117 135 -109 113 -93 c 0
 91 -77 73 -55 60 -26 c 0
 45 8 38 50 38 99 c 0
 38 138 42 180 53 225 c 0
 67 283 84 338 104 388 c 0
 124 438 145 481 168 518 c 0
 191 555 218 586 244 612 c 0
 270 638 297 658 324 671 c 0
 351 684 377 690 403 690 c 0
 423 690 441 689 456 686 c 0
 471 683 486 677 498 669 c 0
 510 661 520 652 528 640 c 0
 536 628 543 611 548 591 c 0
 553 571 556 547 556 520 c 0
 556 463 545 388 524 295 c 0
 513 248 497 206 476 171 c 0
 465 153 453 139 440 129 c 0
 427 119 413 114 399 114 c 0
 382 114 370 119 363 128 c 0
 357 136 354 148 354 163 c 0
 354 169 354 176 355 184 c 2
 364 251 l 1
 332 192 l 2
 310 150 281 130 246 130 c 0xbf80
 214 130 192 140 180 161 c 0
 173 173 169 188 169 208 c 0
 169 225 172 245 177 268 c 0
 182 291 190 312 200 333 c 0
 210 354 220 370 232 384 c 0
 244 398 257 410 270 420 c 0
 283 430 297 436 310 440 c 0
 323 444 335 446 346 446 c 0
 361 446 376 443 390 436 c 0
 401 431 409 425 414 417 c 0
 415 414 416 411 416 409 c 0
 416 407 415 405 414 403 c 0
 408 394 402 389 396 387 c 0
 391 386 386 385 383 385 c 0
 378 385 367 387 351 392 c 0
 344 393 338 394 334 394 c 2
 324 394 l 2
 314 393 304 389 294 383 c 0
 284 377 275 371 267 362 c 0
 259 353 251 343 244 329 c 0
 237 315 232 300 228 283 c 0
 224 266 222 252 222 241 c 2
 222 229 l 2
 222 217 226 207 232 199 c 0
 239 190 249 186 262 186 c 0
 285 186 304 195 319 215 c 0
 332 233 344 261 354 301 c 0
 355 307 363 313 376 318 c 0
 386 322 394 324 401 324 c 0
 405 324 409 323 411 322 c 2
 412 321 l 1
 412 321 411 319 411 317 c 0
 399 281 391 253 389 232 c 0
 388 222 387 213 387 205 c 0
 387 197 388 191 390 186 c 0
 392 179 397 174 402 171 c 0
 407 169 412 167 417 167 c 0xdf80
 426 167 435 173 443 186 c 0xbf80
 449 196 455 208 460 223 c 0
 469 248 476 272 481 293 c 0
 488 327 495 360 499 391 c 0
 503 422 505 449 505 471 c 0
 505 489 503 506 500 522 c 0
 497 538 494 552 490 563 c 0
 486 574 480 584 472 592 c 0
 464 600 457 607 450 611 c 0
 443 615 436 619 427 621 c 0
 418 623 411 625 406 625 c 2
 390 625 l 2
 363 625 336 617 309 599 c 0
 282 581 256 557 232 526 c 0
 208 495 186 457 166 413 c 0
 146 369 130 320 118 267 c 0
 105 208 98 156 98 112 c 0
 98 88 100 68 104 51 c 0
 110 27 119 6 130 -11 c 0
 141 -28 154 -39 168 -46 c 0
 182 -53 199 -56 216 -56 c 0
 233 -56 250 -54 265 -51 c 0
 280 -48 292 -43 303 -38 c 0
 314 -33 324 -26 335 -18 c 0
 346 -10 354 -1 360 6 c 0
 366 13 374 22 382 32 c 0
 387 39 391 44 395 48 c 0
 400 54 404 58 406 59 c 0
 408 59 410 61 412 62 c 0
 414 63 417 63 419 62 c 0
 421 61 424 59 425 58 c 0
 426 57 428 53 428 51 c 2
 428 49 l 2xdf80
412 321 m 1024
EndSplineSet
Validated: 1
EndChar

StartChar: A
Encoding: 65 65 43
Width: 593
GlyphClass: 2
Flags: HMW
HStem: 276 43<441 441 441 451>
VStem: 446 72<66 126> 451 57 465 62
LayerCount: 2
Fore
SplineSet
438 276 m 1xa0
 363 273 293 265 231 253 c 1
 198 196 164 131 129 58 c 0
 120 40 111 28 100 23 c 0
 95 21 89 19 85 19 c 0
 81 19 78 20 75 21 c 0
 72 22 69 25 68 28 c 0
 67 31 66 35 66 39 c 0
 66 49 71 63 79 81 c 0
 88 102 118 157 172 245 c 1
 170 256 167 258 165 252 c 1
 160 255 158 259 158 263 c 0
 158 264 159 266 159 268 c 0
 160 275 164 282 173 289 c 0
 182 296 193 301 204 305 c 1
 205 314 207 315 208 307 c 1
 317 499 398 627 451 691 c 0
 462 704 472 712 479 717 c 0
 486 722 493 725 499 725 c 2
 500 725 l 1
 504 725 l 2
 511 725 516 723 521 720 c 0
 525 718 527 712 527 705 c 2x90
 527 700 l 1
 520 617 516 500 512 348 c 0
 510 289 508 241 508 201 c 0xa0
 508 137 511 98 515 84 c 0
 517 78 518 72 518 68 c 0xc0
 518 64 517 60 516 56 c 0
 513 47 507 41 502 35 c 0
 497 29 491 24 484 22 c 0
 479 20 476 19 473 19 c 0
 469 19 464 20 461 22 c 0
 454 26 449 37 447 54 c 0
 447 62 446 81 446 111 c 0
 446 141 449 197 451 276 c 1
 447 285 443 285 438 276 c 1xa0
442 610 m 2
 405 565 349 470 274 324 c 1
 264 303 l 1
 286 306 l 2
 344 313 395 318 441 319 c 2
 453 320 l 1
 465 637 l 1
 442 610 l 2
EndSplineSet
Validated: 1
EndChar

StartChar: B
Encoding: 66 66 44
Width: 593
GlyphClass: 2
Flags: HMW
HStem: 310 47<273 277 277 278> 642 43<349 366 366 369>
VStem: 433 72<211 215.5 211 215.5> 475 62<533.5 538.5>
LayerCount: 2
Fore
SplineSet
503 201 m 2xd0
 498 177 487 153 470 130 c 0
 453 107 431 85 406 65 c 0
 382 45 352 28 318 14 c 0
 284 0 248 -10 209 -14 c 1
 202.8125 -19.0625 196.625 -21.59375 190.4375 -21.59375 c 2
 176 -17 l 1
 169.8125 -22.0625 163.94140625 -24.59375 158.03125 -24.59375 c 0
 153.43359375 -24.59375 148.8125 -23.0625 144 -20 c 0
 124 -22 110 -23 100 -23 c 0
 94 -23 88 -22 82 -21 c 2
 80 -21 l 1
 77 -21 l 2
 69 -21 63 -18 60 -13 c 0
 58 -11 57 -7 57 -2 c 0
 57 3 58 8 60 14 c 0
 69 42 82 95 99 174 c 0
 116 253 133 335 149 419 c 0
 158 463 165 493 168 508 c 0
 171 523 176 544 183 570 c 0
 188 579 192 597 197 623 c 0
 200 639 206 651 214 658 c 0
 222 665 230 669 239 669 c 2
 243 669 l 1
 244 669 l 2
 255 672 265 675 275 677 c 0
 294 681 311 684 328 684 c 0
 337 684 344 685 349 685 c 2
 366 685 l 1
 376 685 l 2
 413 685 445 678 472 662 c 0
 499 646 517 624 528 595 c 0
 534 578 537 561 537 541 c 0
 537 526 535 509 531 492 c 0
 523 455 508 423 486 397 c 0
 464 371 438 352 409 340 c 1
 400 329 392 325 383 329 c 1
 389.459960938 320.38671875 395.405273438 315.89453125 401.57421875 315.89453125 c 0
 404 315.89453125 406.459960938 316.588867188 409 318 c 0
 426 311 443 300 459 287 c 0
 475 274 487 259 496 242 c 0
 502 231 505 220 505 211 c 2xe0
 503 201 l 2xd0
263 629 m 2
 257 627 l 1
 239 553 227 501 220 470 c 0
 213 439 206 402 197 360 c 1
 232 358 261 357 285 357 c 0
 303 357 320 359 335 362 c 0
 350 365 364 369 375 375 c 0
 386 381 397 388 407 397 c 0
 417 406 426 414 433 423 c 0
 440 432 446 441 451 451 c 0
 456 461 460 471 463 479 c 0
 466 487 470 496 472 506 c 0
 474 516 475 525 475 534 c 0xd0
 475 543 474 550 473 557 c 0
 470 574 464 587 455 598 c 0
 446 609 436 617 423 624 c 0
 403 636 381 642 357 642 c 0
 326 642 294 638 263 629 c 2
401 261 m 0
 390 271 374 280 353 289 c 0
 332 298 307 305 278 310 c 1
 277 310 l 2
 235 310 206 308 187 308 c 1
 165 194 148 109 137 54 c 1
 154 55 170 56 185 56 c 0
 200 56 211 57 218 57 c 0
 245 58 271 64 297 74 c 0
 323 84 345 94 363 108 c 0
 381 122 396 137 408 152 c 0
 421 167 429 182 432 196 c 0
 432 199 433 203 433 206 c 0xe0
 433 225 422 243 401 261 c 0
EndSplineSet
Validated: 524289
EndChar

StartChar: C
Encoding: 67 67 45
Width: 593
GlyphClass: 2
Flags: HMW
HStem: -31 67<160 210 171 210> 654 59<423 427.5> 701 21G
VStem: 25 77<126.5 190.5>
LayerCount: 2
Fore
SplineSet
178 -31 m 2xd0
 171 -31 l 2
 149 -31 129 -27 110 -18 c 0
 91 -9 76 2 64 17 c 0
 52 32 43 49 36 70 c 0
 29 91 25 114 25 139 c 0
 25 159 27 179 32 200 c 0
 43 249 58 297 78 343 c 0
 98 389 119 432 143 469 c 0
 165 506 189 540 215 571 c 0
 241 602 267 627 292 648 c 0
 317 669 343 685 367 696 c 0
 391 707 413 713 433 713 c 0
 454 713 472 710 489 705 c 1
 492 711 496 710 499 701 c 1xb0
 501 712 503 716 504 711 c 1
 508 720 513 727 520 732 c 0
 527 737 533 740 540 740 c 2
 545 741 l 2
 550 741 555 739 560 735 c 0
 566 730 569 723 569 713 c 0
 569 697 567 678 563 656 c 0
 562 647 560 635 556 621 c 0
 552 607 549 598 549 596 c 0
 547 583 539 570 528 557 c 0
 517 544 508 537 501 537 c 2
 496 537 l 2
 489 537 483 539 478 544 c 0
 474 547 472 552 472 558 c 0
 472 559 473 562 473 565 c 0
 474 571 479 588 486 616 c 0
 485 623 483 625 481 621 c 1
 478 623 472 629 463 637 c 0
 461 639 457 642 452 645 c 0
 443 651 433 654 422 654 c 0
 402 654 379 647 355 632 c 0
 331 617 307 596 283 570 c 0
 259 544 234 514 212 481 c 0
 190 448 169 409 151 367 c 0
 131 325 117 281 108 239 c 0
 104 219 102 200 102 181 c 0
 102 169 103 157 105 145 c 0
 109 114 119 88 137 68 c 0
 154 47 175 36 200 36 c 0
 220 36 238 38 258 43 c 0
 278 48 295 54 311 62 c 0
 327 70 341 76 353 84 c 0
 365 92 376 100 387 109 c 0
 395 114 402 119 407 121 c 0
 412 123 417 125 422 125 c 0
 425 125 428 124 430 122 c 0
 434 117 436 113 436 108 c 0
 436 97 428 82 411 64 c 0
 351 1 274 -31 178 -31 c 2xd0
EndSplineSet
Validated: 1
EndChar

StartChar: D
Encoding: 68 68 46
Width: 593
GlyphClass: 2
Flags: HMW
HStem: -31 61<262.5 309 275 309> 712 21G<259 263 259 259>
VStem: 259 4<688 688 712 712> 478 65<341 379>
LayerCount: 2
Fore
SplineSet
263 712 m 1
 259 712 l 1
 260 726 262 732 263 730 c 2
 263 712 l 1
263 687 m 1
 274 686 287 683 300 680 c 0
 317 676 333 671 350 664 c 0
 367 657 384 647 403 635 c 0
 422 623 439 609 456 593 c 0
 473 577 487 557 501 533 c 0
 515 509 525 484 532 457 c 0
 539 430 543 398 543 363 c 0
 543 319 538 272 526 222 c 0
 520 200 512 176 501 153 c 0
 490 130 477 107 460 85 c 0
 443 63 426 43 407 26 c 0
 389 9 369 -6 348 -16 c 0
 327 -26 304 -31 283 -31 c 2
 275 -31 l 2
 250 -31 225 -29 200 -27 c 0
 175 -25 155 -21 139 -17 c 0
 123 -13 108 -9 95 -5 c 0
 82 -1 74 0 71 0 c 0
 63 0 57 3 54 8 c 0
 52 10 51 15 51 20 c 0
 51 25 52 30 54 36 c 0
 63 68 77 125 96 207 c 0
 115 289 132 377 151 472 c 0
 158 509 164 533 167 545 c 0
 170 557 174 575 180 600 c 0
 186 625 190 640 191 645 c 0
 194 660 200 672 208 679 c 0
 216 686 224 690 233 690 c 0
 241 690 250 689 259 688 c 1
 254 654 248 628 242 611 c 0
 221 525 202 433 185 338 c 0
 177 287 169 243 160 208 c 0
 148 151 139 104 132 69 c 0
 134 60 138 58 140 65 c 1
 163 52 187 43 212 38 c 0
 237 33 267 30 300 30 c 0
 318 30 336 36 354 50 c 0
 372 64 388 81 402 102 c 0
 416 123 428 145 440 169 c 0
 452 193 461 218 466 241 c 0
 474 275 478 307 478 337 c 0
 478 421 449 489 389 540 c 0
 364 562 325 586 274 611 c 1
 274 616 l 1
 271 616 l 1
 271 617 l 1
 269 617 l 1
 269 618 l 1
 267 618 l 1
 267 619 l 1
 263 619 l 1
 263 687 l 1
EndSplineSet
Validated: 1
EndChar

StartChar: E
Encoding: 69 69 47
Width: 593
GlyphClass: 2
Flags: HMW
HStem: -20 63<100 180.5> -6 66<369.5 416 376 416> 312 62<157 195> 332 57<448.5 478> 615 59<401 422.5 377 429>
VStem: 22 77<27.5 74.5>
LayerCount: 2
Fore
SplineSet
388 -6 m 2x4c
 376 -6 l 2
 363 -6 342 -7 311 -9 c 0
 216 -16 148 -20 110 -20 c 0xac
 90 -20 76 -19 63 -18 c 0
 52 -18 43 -11 34 0 c 0
 27 9 22 21 22 34 c 0
 22 47 29 81 42 136 c 0
 52 180 63 228 76 279 c 0
 89 330 100 388 113 451 c 0
 121 491 127 517 130 530 c 0
 133 543 138 562 145 587 c 0
 152 612 155 627 156 634 c 0
 160 649 166 660 174 668 c 0
 182 676 191 680 200 680 c 1
 201 672 203 672 204 680 c 0
 208 680 211 679 214 678 c 0
 217 677 220 674 221 670 c 0
 222 659 224 656 225 661 c 1
 227 654 230 654 232 663 c 1
 280 670 341 674 413 674 c 0
 432 674 448 673 465 673 c 0
 501 672 529 669 550 667 c 0
 561 665 568 662 570 659 c 0
 570 658 571 655 571 653 c 0
 571 651 570 647 570 643 c 0
 570 639 568 634 566 630 c 0
 561 621 556 614 549 612 c 0
 546 610 543 609 541 609 c 0
 539 609 537 610 535 610 c 0
 492 613 450 615 408 615 c 0
 394 615 379 614 364 614 c 0
 309 613 262 609 220 602 c 1
 218 593 214 593 212 601 c 1
 192 526 176 450 160 373 c 1
 165 366 169 366 174 374 c 1
 216 374 275 376 348 381 c 0
 422 386 463 389 473 389 c 0x1c
 483 389 489 386 491 384 c 0
 493 380 493 374 492 366 c 0
 490 355 485 346 480 341 c 0
 474 335 465 332 454 332 c 0
 443 332 397 329 318 322 c 0
 239 315 186 312 157 312 c 1xac
 154 303 149 303 147 311 c 1
 137 267 129 225 120 184 c 0
 106 122 99 82 99 67 c 0
 99 63 100 57 100 50 c 0
 102 41 105 41 107 48 c 1
 112 46 119 44 129 44 c 0
 138 44 152 43 171 43 c 0
 190 43 216 44 248 45 c 0
 323 49 373 53 396 58 c 0
 404 59 410 60 414 60 c 0
 418 60 422 59 424 58 c 0
 426 57 428 55 429 54 c 0
 430 53 431 50 431 47 c 0
 431 44 432 41 432 39 c 0
 432 37 431 33 431 31 c 0
 429 20 424 11 416 3 c 0
 411 -4 403 -7 394 -7 c 0
 392 -7 390 -6 388 -6 c 2x4c
EndSplineSet
Validated: 1
EndChar

StartChar: F
Encoding: 70 70 48
Width: 593
GlyphClass: 2
Flags: HMW
HStem: 323 60<260 273> 619 63
LayerCount: 2
Fore
SplineSet
557 677 m 0
 568 676 574 673 575 671 c 0
 577 668 578 662 577 654 c 0
 575 645 569 636 562 629 c 0
 556 622 548 619 537 619 c 2
 535 619 l 2
 502 621 468 622 433 622 c 0
 368 622 296 618 217 611 c 1
 201 544 190 498 184 472 c 0
 178 446 171 414 163 376 c 1
 168 369 174 369 179 378 c 1
 204 381 231 383 260 383 c 2
 281 383 l 2
 318 382 351 379 381 376 c 0
 411 373 434 370 451 367 c 0
 457 366 461 363 464 362 c 0
 467 361 470 359 470 359 c 2
 471 357 472 354 472 350 c 2
 472 344 l 2
 470 335 465 326 459 319 c 0
 455 313 448 310 439 310 c 2
 437 310 l 2
 420 313 394 317 362 319 c 0
 330 321 293 323 253 323 c 0
 215 323 184 320 158 316 c 1
 156 307 153 307 151 315 c 1
 131 207 111 107 91 15 c 0
 87 4 80 -5 70 -12 c 0
 60 -19 50 -22 40 -22 c 0
 39 -22 37 -21 37 -21 c 2
 29 -21 23 -18 20 -13 c 0
 18 -11 17 -7 17 -2 c 0
 17 3 18 8 20 14 c 0
 29 43 41 100 60 183 c 0
 79 266 97 352 114 440 c 0
 123 484 130 515 133 530 c 0
 136 545 140 565 147 591 c 0
 152 601 157 619 162 645 c 0
 165 660 171 672 179 679 c 0
 187 686 196 690 205 690 c 2
 209 690 l 2
 214 690 217 689 220 688 c 0
 223 687 226 684 227 680 c 0
 227 669 229 667 230 672 c 1
 306 679 377 682 443 682 c 0
 488 682 526 680 557 677 c 0
EndSplineSet
Validated: 1
EndChar

StartChar: G
Encoding: 71 71 49
Width: 593
GlyphClass: 2
Flags: HMW
HStem: -31 67<161 210 172 210> 289 59<422.5 463> 666 58<427.5 431.5>
VStem: 26 78<126.5 190.5>
LayerCount: 2
Fore
SplineSet
548 687 m 0
 556 682 561 677 563 674 c 0
 566 669 567 664 567 658 c 0
 567 650 565 640 559 629 c 0
 557 623 550 618 543 615 c 0
 539 614 536 613 534 613 c 0
 532 613 528 615 524 615 c 0
 521 616 514 621 503 630 c 0
 492 639 479 647 465 654 c 0
 451 662 438 666 425 666 c 0
 405 666 383 658 359 643 c 0
 335 628 311 607 286 580 c 0
 261 553 236 522 214 487 c 0
 192 452 171 413 153 370 c 0
 133 327 118 283 109 239 c 0
 105 219 104 200 104 181 c 0
 104 169 104 157 106 145 c 0
 110 114 122 89 139 68 c 0
 157 47 177 36 202 36 c 0
 218 36 234 42 252 54 c 0
 270 66 288 80 303 97 c 0
 318 114 333 132 348 153 c 0
 363 174 376 195 387 215 c 0
 398 235 408 253 415 270 c 0
 417 275 420 281 422 289 c 1
 415 287 409 287 403 288 c 0
 366 286 330 282 293 276 c 0
 256 270 230 263 214 254 c 0
 211 252 208 250 206 250 c 0
 204 250 202 251 200 253 c 0
 196 257 193 262 193 268 c 2
 193 270 l 2
 194 291 207 308 232 320 c 0
 249 329 285 337 338 342 c 0
 378 346 410 348 435 348 c 0
 461 348 476 347 482 345 c 2
 488 341 l 2
 490 339 492 336 492 331 c 2
 492 328 l 2
 491 318 488 310 484 304 c 0
 480 298 475 293 468 291 c 0
 466 289 464 289 462 289 c 0
 461 282 459 275 456 266 c 0
 453 257 451 249 450 244 c 0
 445 230 438 214 429 195 c 0
 420 176 408 157 394 136 c 0
 380 115 365 94 347 74 c 0
 329 54 311 36 292 20 c 0
 273 4 254 -9 233 -18 c 0
 212 -27 193 -31 174 -31 c 2
 172 -31 l 2
 150 -31 130 -27 111 -18 c 0
 92 -9 78 2 66 17 c 0
 54 32 45 49 38 70 c 0
 31 91 26 114 26 139 c 0
 26 159 29 179 34 200 c 0
 46 251 61 300 81 347 c 0
 101 394 122 437 146 475 c 0
 168 513 192 548 218 580 c 0
 244 612 269 638 295 659 c 0
 321 680 346 696 370 707 c 0
 394 718 417 724 438 724 c 0
 460 724 487 718 514 705 c 0
 529 698 540 692 548 687 c 0
EndSplineSet
Validated: 1
EndChar

StartChar: H
Encoding: 72 72 50
Width: 593
GlyphClass: 2
Flags: HMW
HStem: 312 62<166 208.5 166 208.5>
LayerCount: 2
Fore
SplineSet
166 312 m 1
 164 304 162 297 161 293 c 0
 160 289 158 285 158 282 c 0
 139 215 119 126 97 15 c 0
 93 4 86 -5 76 -12 c 0
 66 -19 55 -22 46 -22 c 0
 45 -22 43 -21 43 -21 c 2
 36 -21 30 -18 26 -13 c 0
 24 -11 23 -7 23 -2 c 0
 23 3 24 8 26 14 c 0
 31 31 42 76 59 148 c 0
 68 186 82 248 104 334 c 0
 115 376 123 407 128 428 c 0
 133 449 139 479 148 520 c 0
 155 554 160 573 160 577 c 0
 162 586 164 597 168 612 c 0
 172 627 174 638 176 645 c 0
 180 660 187 672 195 679 c 0
 203 686 212 690 221 690 c 1
 221 682 223 682 223 690 c 1
 231 690 237 688 241 683 c 0
 243 680 245 675 245 670 c 0
 245 665 244 659 243 653 c 0
 242 647 237 633 231 611 c 0
 225 589 220 569 216 550 c 0
 212 531 207 506 200 470 c 0
 193 434 187 402 180 373 c 1
 185 366 188 366 193 374 c 1
 224 374 256 375 289 379 c 0
 322 383 351 388 378 392 c 0
 405 396 426 399 441 400 c 1
 443 411 445 421 446 430 c 0
 447 439 450 445 451 450 c 0
 457 470 462 497 468 533 c 0
 471 546 477 566 484 594 c 0
 491 622 497 639 498 645 c 0
 502 660 508 672 517 679 c 0
 526 686 534 690 543 690 c 1
 543 682 545 682 546 690 c 1
 555 690 562 688 566 683 c 0
 568 680 570 675 570 670 c 0
 570 665 569 657 567 648 c 0
 565 639 559 616 549 576 c 0
 539 536 531 502 524 472 c 0
 517 442 508 399 496 343 c 0
 487 297 472 236 452 161 c 0
 433 85 422 36 417 15 c 0
 414 4 407 -5 398 -12 c 0
 389 -19 380 -22 371 -22 c 0
 370 -22 368 -21 368 -21 c 2
 361 -21 355 -18 352 -13 c 0
 351 -11 349 -7 349 -2 c 0
 349 3 350 8 352 14 c 0
 378 107 402 211 426 327 c 1
 426 325 429 330 430 343 c 1
 425 334 420 334 415 342 c 1
 405 342 368 337 306 327 c 0
 244 317 198 312 173 312 c 2
 166 312 l 1
EndSplineSet
Validated: 1
EndChar

StartChar: I
Encoding: 73 73 51
Width: 593
GlyphClass: 2
Flags: HMW
HStem: -14 56<37 60> -6 53<289.501 291.5 267 306.501> 625 59<202.5 204 204 209 202.5 247>
LayerCount: 2
Fore
SplineSet
330 -7 m 0x60
 326 -7 315.000976562 -6 298.000976562 -6 c 0
 281.000976562 -6 259.000976562 -7 230.000976562 -8 c 1
 209.256835938 -13.333984375 188.512695312 -16.208984375 167.768554688 -16.208984375 c 2
 125 -12 l 1
 85 -13 58 -14 44 -14 c 0xa0
 30 -14 22 -12 18 -8 c 0
 16 -6 15 -2 15 1 c 0
 15 3 16 6 16 8 c 0
 17 17 21 26 28 32 c 0
 35 38 47 42 60 42 c 0
 87 43 134 45 202 47 c 1x60
 234 166 262 290 287 418 c 0
 293 448 296 465 296 470 c 0
 298 481 303 501 310 532 c 0
 312 541 315 555 320 575 c 0
 325 595 330 607 330 610 c 1
 330 607 332 611 333 624 c 1
 297 624 268 625 247 625 c 2
 204 625 l 2
 196 625 190 624 190 624 c 2
 180 624 173 626 170 631 c 0
 168 633 167 637 167 642 c 2
 167 649 l 2
 168 658 173 666 180 673 c 0
 187 680 196 684 209 684 c 0
 258 685 303 686 345 686 c 0
 428 686 498 683 556 676 c 0
 564 676 570 673 574 670 c 0
 578 667 580 663 580 657 c 0
 580 655 579 652 579 650 c 0
 577 641 571 631 563 622 c 0
 560 618 556 615 551 613 c 0
 548 612 545 611 543 611 c 0
 541 611 540 612 538 612 c 0
 521 614 473 618 396 623 c 1
 391 596 387 578 383 568 c 0
 367 504 352 436 339 365 c 0
 330 318 317 258 300 188 c 0
 283 118 272 71 267 47 c 1
 280 47 l 2
 303 47 350 46 419 46 c 0
 428 46 435 44 436 42 c 0xa0
 437 40 438 36 438 31 c 2
 438 23 l 2
 436 13 431 5 426 -2 c 0
 424 -6 421 -8 418 -9 c 0
 415 -10 412 -12 410 -12 c 0
 408 -12 405 -11 403 -11 c 0
 388 -9 365 -7 330 -7 c 0x60
EndSplineSet
Validated: 524289
EndChar

StartChar: J
Encoding: 74 74 52
Width: 593
GlyphClass: 2
Flags: HMW
HStem: -35 77<186 193.5> 611 65<527 545> 625 59<190 194 194 196 190 252>
VStem: 29 63<150 170.5 159.5 161.5>
LayerCount: 2
Fore
SplineSet
217 52 m 0xb0
 223 59 229 69 236 83 c 0
 249 112 264 159 279 224 c 0
 282 237 293 284 309 366 c 0
 325 445 342 531 363 623 c 1
 316 625 280 625 252 625 c 2
 194 625 l 2
 183 625 178 624 178 624 c 2
 168 624 161 626 158 631 c 0
 156 633 153 637 153 642 c 0
 153 644 154 647 154 649 c 0
 155 658 160 666 167 673 c 0
 174 680 184 684 196 684 c 0
 245 685 290 686 331 686 c 0
 413 686 483 683 541 676 c 0xd0
 549 676 555 673 559 670 c 0
 563 667 564 663 564 657 c 0
 564 655 563 652 563 650 c 0
 561 641 556 631 548 622 c 0
 544 618 541 615 536 613 c 0
 534 612 530 611 528 611 c 0
 526 611 523 612 521 612 c 0
 500 615 466 619 415 621 c 1
 409 595 402 563 395 523 c 0
 389 479 382 443 375 416 c 0
 369 384 362 349 354 309 c 0
 346 269 338 235 330 206 c 0
 313 146 295 98 278 62 c 0
 261 26 246 0 231 -14 c 0
 216 -28 201 -35 186 -35 c 0
 168 -35 150 -31 134 -24 c 0
 117 -17 103 -7 92 5 c 0
 81 17 71 31 62 46 c 0
 53 61 47 76 42 91 c 0
 37 106 33 118 32 129 c 0
 31 140 29 146 29 150 c 2
 29 159 l 2
 29 164 31 170 33 177 c 0
 35 184 38 191 41 197 c 0
 44 203 48 209 54 213 c 0
 60 217 67 221 74 222 c 0
 77 222 80 223 82 223 c 0
 87 223 91 221 93 218 c 0
 95 215 97 210 97 205 c 0
 97 203 96 199 96 196 c 0
 94 187 92 176 92 165 c 0
 92 154 94 142 97 128 c 0
 100 114 105 100 112 87 c 0
 119 74 131 64 146 55 c 0
 160 46 176 42 196 42 c 0
 203 42 211 45 217 52 c 0xb0
EndSplineSet
Validated: 1
EndChar

StartChar: K
Encoding: 75 75 53
Width: 593
GlyphClass: 2
Flags: HMW
HStem: -22 21G<57.5 63> 695 20G<543.999 546.999>
LayerCount: 2
Fore
SplineSet
35 10 m 0
 35 13 35.9990234375 18 37.9990234375 23 c 0
 46.9990234375 53 59.9990234375 110 78.9990234375 193 c 0
 96.9990234375 277 113.999023438 363 131.999023438 452 c 0
 140.999023438 496 147.999023438 526 150.999023438 541 c 0
 152.999023438 556 158.999023438 578 165.999023438 607 c 0
 172.999023438 635 177.999023438 653 178.999023438 660 c 0
 182.999023438 678 188.999023438 691 196.999023438 700 c 0
 204.999023438 709 212.999023438 714 221.999023438 714 c 1
 222.999023438 722 224.999023438 722 224.999023438 714 c 1
 232.999023438 714 238.999023438 711 242.999023438 703 c 0
 244.999023438 698 245.999023438 692 245.999023438 683 c 0
 245.999023438 678 244.999023438 674 243.999023438 669 c 0
 240.999023438 653 232.999023438 618 219.999023438 564 c 0
 206.999023438 509 193.999023438 452 180.999023438 391 c 1
 322.999023438 530 l 2
 363.999023438 573 403.999023438 611 445.999023438 642 c 0
 478.999023438 670 499.999023438 688 508.999023438 695 c 0
 517.999023438 704 526.999023438 710 533.999023438 712 c 0
 538.999023438 714 542.999023438 715 544.999023438 715 c 0
 548.999023438 715 552.999023438 711 555.999023438 703 c 0
 557.999023438 698 558.999023438 692 558.999023438 685 c 0
 558.999023438 676 549.999023438 665 532.999023438 651 c 0
 520.999023438 639 480.999023438 603 411.999023438 542 c 1
 347.999023438 478 287.999023438 419 232.999023438 366 c 1
 237.999023438 357 l 2
 251.999023438 334 276.999023438 296 312.999023438 245 c 0
 348.999023438 191 378.999023438 145 403.999023438 106 c 0
 428.977539062 71.0302734375 443.978515625 48.0400390625 446 39.0234375 c 0
 445.884765625 28.3505859375 443.852539062 17.7333984375 439 9 c 0
 435 0 430 -8 423 -13 c 0
 416 -18 411 -21 406 -21 c 0
 398 -21 391 -13 385 4 c 0
 381 13 365 36 338 73 c 0
 311 110 282 152 251 196 c 0
 220 245 198 283 185 310 c 2
 171 337 l 1
 160 286 l 1
 109 24 l 2
 105 9 98 -2 88 -10 c 0
 78 -18 68 -22 58 -22 c 0
 57 -22 55 -21 55 -21 c 2
 47 -21 41 -17 38 -8 c 0
 36 -3 35 3 35 10 c 0
EndSplineSet
Validated: 524289
EndChar

StartChar: L
Encoding: 76 76 54
Width: 593
GlyphClass: 2
Flags: HMW
HStem: -15 62.9962
LayerCount: 2
Fore
SplineSet
504 72 m 0
 507 63 507.999023438 54 506.999023438 44 c 0
 504.999023438 35 499.999023438 27 494.999023438 22 c 0
 489.999023438 17 479.999023438 12 465.999023438 10 c 0
 422.999023438 1 362.999023438 -5 285.999023438 -9 c 0
 206.999023438 -13 146.999023438 -15 106.999023438 -15 c 0
 98.9990234375 -15 92.9990234375 -12 89.9990234375 -7 c 0
 87.9990234375 -5 86.9990234375 -1 86.9990234375 4 c 0
 86.9990234375 9 87.9990234375 14 89.9990234375 20 c 0
 102.999023438 51 114.999023438 89 127.999023438 135 c 0
 150.999023438 206 171.999023438 275 189.999023438 341 c 0
 198.999023438 372 210.999023438 427 225.999023438 506 c 0
 240.999023438 585 248.999023438 629 249.999023438 636 c 0
 253.999023438 652 259.999023438 664 267.999023438 671 c 0
 275.999023438 678 283.999023438 682 291.999023438 682 c 1
 292.999023438 674 294.999023438 674 294.999023438 682 c 1
 301.999023438 682 307.999023438 679 311.999023438 674 c 0
 313.999023438 672 314.999023438 668 314.999023438 662 c 0
 314.999023438 656 313.999023438 650 312.999023438 645 c 0
 308.999023438 626 303.999023438 600 295.999023438 567 c 0
 286.999023438 517 276.999023438 475 266.999023438 441 c 0
 255.999023438 389 245.999023438 345 235.999023438 309 c 0
 229.999023438 281 219.999023438 240 204.999023438 187 c 0
 188.999023438 134 177.999023438 92 170.999023438 62 c 0
 170.411132812 54.35546875 169.477539062 49.8232421875 168.604492188 47.99609375 c 1
 182.645507812 47.9287109375 191.180664062 47 196 47 c 0
 240 47 292 51 352 58 c 0
 416 65 462 72 487 78 c 1
 494 78 l 2
 499 78 502 76 504 72 c 0
EndSplineSet
Validated: 524289
EndChar

StartChar: M
Encoding: 77 77 55
Width: 593
GlyphClass: 2
Flags: HMW
HStem: 664 20G
VStem: 38 1<-14.5 -10> 415 62<39 84 51.5 71>
LayerCount: 2
Fore
SplineSet
235 -7 m 1
 228 -7 223 -5 220 -1 c 0
 217 4 214 11 214 19 c 0
 214 51 219 124 228 239 c 0
 237 354 245 464 254 570 c 0
 256 610 261 648 264 684 c 1
 254 651 243 616 232 578 c 0
 217 529 202 470 184 403 c 0
 174 364 161 316 145 257 c 0
 136 224 127 194 119 167 c 0
 109 137 101 113 96 95 c 0
 91 78 86 65 85 58 c 0
 81 37 74 20 64 8 c 0
 55 -4 48 -10 39 -10 c 1
 39 -19 38 -19 38 -10 c 1
 37 -10 35 -8 34 -7 c 0
 30 -5 27 6 27 25 c 0
 27 33 30 44 33 58 c 0
 35 66 38 79 44 98 c 0
 50 118 59 144 70 178 c 0
 81 214 91 241 96 260 c 2
 143 412 l 2
 151 441 160 477 173 519 c 0
 197 601 215 649 226 666 c 0
 233 679 241 689 252 695 c 0
 263 701 273 704 281 704 c 2
 285 704 l 1
 286 704 l 2
 295 704 302 702 307 697 c 0
 312 691 313 681 313 667 c 2
 313 659 l 2
 313 606 302 483 280 291 c 0
 270 198 264 137 262 107 c 1
 269 97 277 95 284 102 c 1
 310 201 334 289 357 368 c 0
 374 425 393 482 414 539 c 0
 435 595 451 638 465 668 c 0
 469 678 475 686 482 692 c 0
 490 698 497 702 503 703 c 0
 509 703 515 704 518 704 c 2
 526 704 l 1
 530 704 l 1
 542 704 l 2
 544 704 549 703 553 702 c 0
 557 700 560 697 561 695 c 0
 562 693 563 689 564 683 c 0
 565 679 566 674 566 668 c 2
 566 665 l 2
 564 644 549 546 520 370 c 0
 492 195 477 96 477 72 c 0
 477 31 466 6 446 -4 c 0
 442 -6 439 -7 436 -7 c 0
 433 -7 428 -5 425 -2 c 0
 418 3 415 17 415 39 c 2
 415 44 l 2
 415 98 448 294 513 632 c 1
 506 642 497 644 489 639 c 1
 449 537 419 446 397 363 c 0
 375 286 353 212 330 143 c 0
 307 74 292 32 284 17 c 0
 277 1 261 -7 239 -7 c 1
 238 -15 236 -15 235 -7 c 1
EndSplineSet
Validated: 1
EndChar

StartChar: N
Encoding: 78 78 56
Width: 593
GlyphClass: 2
Flags: HMW
HStem: -12 21G<33 39.5> 685 20G<217.5 220.5 547.5 554.5>
LayerCount: 2
Fore
SplineSet
464 190 m 0
 450 133 439 90 431 63 c 0
 422 35 416 18 413 11 c 0
 406 -6 392 -14 370 -14 c 1
 369 -22 367 -22 366 -14 c 1
 359 -14 354 -12 351 -7 c 0
 347 -2 344 5 344 13 c 0
 342 26 335 56 322 101 c 2
 283 246 l 2
 270 295 256 349 243 410 c 0
 230 471 222 523 218 565 c 0
 216 595 212 624 210 653 c 1
 205 626 200 597 195 567 c 0
 183 494 170 425 156 362 c 0
 141 298 125 233 108 167 c 0
 91 103 81 63 79 49 c 0
 76 27 69 11 60 2 c 0
 52 -7 44 -12 35 -12 c 0
 31 -12 28 -10 26 -8 c 0
 24 -6 22 3 22 17 c 0
 22 25 24 35 27 48 c 0
 29 62 43 114 65 204 c 2
 124 443 l 2
 140 512 154 578 165 640 c 0
 167 653 170 664 175 673 c 0
 179 683 184 690 190 695 c 0
 197 699 202 702 207 703 c 0
 212 704 216 705 219 705 c 0
 222 705 226 704 228 704 c 0
 237 704 244 702 249 697 c 0
 253 692 256 682 256 668 c 0
 258 625 275 543 305 422 c 0
 334 301 360 204 382 130 c 0
 386 115 390 102 394 92 c 1
 397 103 401 116 404 132 c 0
 419 195 440 288 465 409 c 0
 492 530 507 609 511 649 c 0
 513 664 518 677 526 688 c 0
 535 699 543 705 552 705 c 0
 557 705 562 704 564 703 c 0
 566 702 569 700 570 698 c 0
 571 693 572 685 572 673 c 0
 572 671 571 664 570 654 c 0
 570 643 558 590 536 495 c 0
 515 397 491 295 464 190 c 0
EndSplineSet
Validated: 1
EndChar

StartChar: O
Encoding: 79 79 57
Width: 593
GlyphClass: 2
Flags: HMW
HStem: -24 72<202 203> 649 44<376 377.5>
VStem: 61 70<138.5 181.5> 468 65<517 533 517 534>
LayerCount: 2
Fore
SplineSet
508 367 m 0
 500 329 490 291 479 252 c 0
 468 213 457 183 446 161 c 0
 432 130 417 104 401 82 c 0
 386 61 370 43 355 29 c 0
 340 15 324 5 306 -3 c 0
 288 -11 270 -17 252 -20 c 0
 234 -23 214 -24 192 -24 c 0
 159 -24 130 -12 108 10 c 0
 86 32 71 62 64 101 c 0
 62 116 61 131 61 146 c 0
 61 161 65 189 72 231 c 0
 73 234 75 240 76 248 c 0
 83 278 88 302 93 320 c 0
 98 338 104 362 113 392 c 0
 130 448 152 501 181 551 c 0
 203 593 233 627 273 653 c 0
 313 679 355 693 397 693 c 0
 418 693 438 688 457 679 c 0
 476 670 491 657 504 639 c 0
 517 621 525 598 530 570 c 0
 532 556 533 541 533 525 c 0
 533 509 531 492 529 473 c 0
 524 440 516 405 508 367 c 0
257 55 m 0
 273 60 289 67 305 77 c 0
 321 87 335 101 349 118 c 0
 363 135 375 154 386 176 c 0
 391 184 398 204 407 237 c 0
 416 269 427 307 438 351 c 0
 449 395 458 439 465 481 c 0
 467 494 468 507 468 519 c 0
 468 549 463 576 450 598 c 0
 439 617 426 630 410 639 c 0
 399 646 385 649 370 649 c 0
 337 649 306 635 278 606 c 0
 251 579 228 541 208 492 c 0
 181 428 159 352 142 265 c 0
 135 225 131 194 131 169 c 0
 131 140 135 116 142 97 c 0
 147 83 156 71 168 62 c 0
 180 53 194 48 210 48 c 0
 226 48 241 50 257 55 c 0
EndSplineSet
Validated: 1
EndChar

StartChar: P
Encoding: 80 80 58
Width: 593
GlyphClass: 2
Flags: HMW
HStem: 230 69<251.5 274.5 249.5 287.5> 642 45<353 398.5>
VStem: 185 3 481 62<538.5 539.5>
LayerCount: 2
Fore
SplineSet
246 633 m 1
 242 614 236 587 227 551 c 0
 218 515 209 478 201 440 c 0
 193 402 184 361 175 319 c 1
 184 315 l 2
 206 304 233 299 266 299 c 0
 283 299 298 301 313 304 c 0
 328 307 341 311 353 316 c 0
 365 321 375 328 385 336 c 0
 395 344 405 352 412 360 c 0
 419 368 426 378 433 389 c 0
 440 400 445 409 449 418 c 0
 453 427 457 437 461 448 c 0
 465 459 469 469 471 476 c 0
 473 483 476 493 478 504 c 0
 480 515 481 526 481 535 c 0
 481 544 481 551 480 558 c 0
 477 575 470 588 461 599 c 0
 452 610 443 618 430 625 c 0
 419 632 407 637 396 639 c 0
 385 641 374 642 363 642 c 0
 343 642 305 639 246 633 c 1
84 141 m 0
 91 163 97.0009765625 193 103.000976562 231 c 0
 110.000976562 258 118.000976562 294 125.000976562 337 c 0
 134.000976562 379 140.000976562 414 146.000976562 442 c 0
 156.786132812 490.04296875 170.455078125 547.69921875 187.0078125 614.96875 c 0
 186.359375 615.579101562 185.536132812 618.640625 185 624 c 1
 184 617 182 619 182 628 c 0
 182 630 181 632 181 634 c 0
 181 636 182 640 183 642 c 0
 185 649 188 655 193 660 c 0
 198 665 203 668 207 669 c 0
 228 674 258 679 298 682 c 0
 338 685 365 687 380 687 c 0
 417 687 451 680 478 665 c 0
 505 650 524 627 535 598 c 0
 541 581 543 563 543 543 c 0
 543 534 542 516 538 489 c 0
 529 453 516 420 497 388 c 0
 478 356 458 328 434 305 c 0
 412 282 386 263 358 250 c 0
 330 237 302 230 273 230 c 0
 230 230 196 233 174 240 c 1
 169 233 166 235 162 244 c 1
 155 207 150 176 146 151 c 0
 142 126 135 81 124 14 c 0
 122 4 115 -4 105 -10 c 0
 95 -16 86 -19 76 -19 c 0
 66 -19 59 -16 54 -11 c 0
 52 -9 50 -5 50 -1 c 0
 50 3 52 7 54 14 c 0
 61 42 71 84 84 141 c 0
EndSplineSet
Validated: 524289
EndChar

StartChar: Q
Encoding: 81 81 59
Width: 593
GlyphClass: 2
Flags: HMW
HStem: -39 20G -24 72 649 44
VStem: 63 71 235 46<146.5 196.5> 466 65
LayerCount: 2
Fore
SplineSet
239 48 m 1x7c
 253 48 l 1
 250 63 l 2
 243 92 238 115 236 132 c 0
 236 138 235 144 235 149 c 0
 235 174 242 193 257 204 c 0
 262 208 267 210 271 210 c 0
 273 210 274 210 276 208 c 0
 278 206 281 200 281 193 c 0
 283 160 292 123 304 82 c 2
 308 67 l 1
 319 75 l 2
 349 96 374 129 391 173 c 0
 396 183 402 203 410 234 c 0
 419 265 428 303 439 349 c 0
 450 395 458 439 463 481 c 0
 465 494 466 507 466 519 c 0
 466 552 460 579 447 601 c 0
 437 618 425 631 409 639 c 0
 398 646 384 649 369 649 c 0
 336 649 305 635 277 608 c 0
 249 581 227 543 207 494 c 0
 176 423 154 347 141 264 c 0
 137 240 134 218 134 197 c 0
 134 184 136 171 138 158 c 0
 143 125 152 99 168 79 c 0
 185 58 205 48 230 48 c 2
 239 48 l 1x7c
348 -211 m 0
 341 -209 336.000976562 -203.999023438 333.000976562 -194.999023438 c 0
 328.000976562 -182.999023438 319.000976562 -159.999023438 307.000976562 -127.999023438 c 0
 295.000976562 -95.9990234375 283.000976562 -59.9990234375 270.000976562 -18.9990234375 c 1xbc
 268.000976562 -27.9990234375 263.000976562 -27.9990234375 260.000976562 -20.9990234375 c 1
 245.000976562 -22.9990234375 229.000976562 -23.9990234375 212.000976562 -23.9990234375 c 0
 189.000976562 -23.9990234375 168.000976562 -19.9990234375 148.000976562 -10.9990234375 c 0
 128.000976562 -1.9990234375 113.000976562 10.0009765625 101.000976562 25.0009765625 c 0
 89.0009765625 40.0009765625 79.0009765625 60.0009765625 72.0009765625 81.0009765625 c 0
 65.0009765625 102.000976562 63.0009765625 126.000976562 63.0009765625 152.000976562 c 0
 63.0009765625 178.000976562 65.0009765625 205.000976562 70.0009765625 232.000976562 c 0
 95.0009765625 360.000976562 133.000976562 465.000976562 180.000976562 547.000976562 c 0
 202.000976562 589.000976562 233.000976562 623.000976562 273.000976562 651.000976562 c 0
 313.000976562 679.000976562 354.000976562 693.000976562 396.000976562 693.000976562 c 0
 441.000976562 693.000976562 476.000976562 677.000976562 501.000976562 644.000976562 c 0
 514.000976562 627.000976562 522.000976562 605.000976562 527.000976562 576.000976562 c 0
 529.000976562 561.000976562 531.000976562 545.000976562 531.000976562 528.000976562 c 0
 531.000976562 511.000976562 529.000976562 493.000976562 527.000976562 473.000976562 c 0
 521.000976562 427.000976562 510.000976562 372.000976562 494.000976562 307.000976562 c 0
 478.000976562 242.000976562 461.000976562 191.000976562 446.000976562 155.000976562 c 0
 418.000976562 86.0009765625 381.000976562 36.0009765625 334.000976562 7.0009765625 c 1
 331.427734375 -1.5751953125 328.119140625 -4.267578125 325.967773438 -0.4453125 c 1
 342.645507812 -42.5927734375 359.341796875 -83.77734375 377 -124 c 0
 382 -144 388 -155 393 -158 c 0
 393 -160 394 -163 394 -165 c 0
 394 -167 394 -170 393 -173 c 0
 391 -180 386 -187 381 -193 c 0
 376 -199 373 -205 369 -207 c 0
 364 -210 359 -212 354 -212 c 0
 352 -212 350 -211 348 -211 c 0
EndSplineSet
Validated: 524289
EndChar

StartChar: R
Encoding: 82 82 60
Width: 593
GlyphClass: 2
Flags: HMW
VStem: 72 1<-21 -19> 252 3 255 4<682 682> 481 64<459.5 483>
LayerCount: 2
Fore
SplineSet
409 -17 m 0xd0
 403 -15 398 -9 394 0 c 0
 387 15 378 32 365 53 c 0
 352 74 337 97 318 122 c 0
 299 147 278 172 252 197 c 0
 226 222 201 242 175 257 c 0
 173.296875 255.296875 171.709960938 254.40625 170.16015625 254.40625 c 0
 167.159179688 254.40625 164.296875 257.74609375 161 265 c 1
 161 253.838867188 159.525390625 248.57421875 158.475585938 248.57421875 c 0
 158.302734375 248.57421875 158.141601562 248.716796875 158 249 c 1
 151 210 143 165 136 112 c 0
 129 59 125 27 123 14 c 0
 121 4 115 -4 105 -10 c 0
 95 -16 86 -19 75 -19 c 2
 73 -19 l 1
 73 -23 72.75 -25 72.5 -25 c 0
 72.25 -25 72 -23 72 -19 c 1
 63 -19 56 -16 52 -11 c 0
 51 -9 49 -5 49 -1 c 0
 49 3 50 8 52 14 c 0
 63 49 71 79 77 104 c 0
 83 129 97 189 118 284 c 0
 120 298 127 325 138 365 c 0
 149 407 159 446 166 483 c 0
 170 505 174 537 180 576 c 0
 186 615 190 638 192 645 c 1
 140.037109375 468.625 114.037109375 380.375 114 380.375 c 1
 114 380.375 139.962890625 468.875 192 646 c 1
 192 643.215820312 192.158203125 641.85546875 192.348632812 641.85546875 c 0
 192.63671875 641.85546875 193 644.9765625 193 651 c 0
 194 661 199 670 208 678 c 0
 215 686 224 690 234 690 c 0
 243 690 249 688 252 685 c 0
 252.5625 679.9375 253.44140625 677.40625 254.102539062 677.40625 c 0
 254.6171875 677.40625 255 678.9375 255 682 c 1
 255.5 678 256.25 676 257 676 c 0
 257.75 676 258.5 678 259 682 c 1xb0
 303 680 344 672 379 661 c 0
 414 649 444 635 466 619 c 0
 488 603 507 584 520 563 c 0
 533 542 542 523 544 502 c 0
 544 495 545 487 545 479 c 0
 545 466 543 453 541 440 c 0
 534 409 521 383 501 363 c 0
 492 354 481 345 468 337 c 0
 455 329 442 323 428 318 c 0
 415 313 400 308 383 304 c 0
 366 300 350 295 333 293 c 0
 316 291 297 289 276 287 c 1
 269.8125 281.9375 263.625 279.40625 257.4375 279.40625 c 2
 243 284 l 1
 251.36328125 270.060546875 260.590820312 263.893554688 269.076171875 263.893554688 c 0
 269.721679688 263.893554688 270.36328125 263.9296875 271 264 c 0
 320 230 360 190 393 146 c 0
 427 102 448 64 455 33 c 1
 455 30 l 2
 455 22 453 15 449 8 c 0
 444 -1 437 -7 430 -12 c 0
 424 -16 419 -18 414 -18 c 0
 413 -18 411 -17 409 -17 c 0xd0
401 368 m 0
 413 372 424 377 435 384 c 0
 457 397 472 417 478 442 c 0
 480 449 481 456 481 463 c 0
 481 477 478 491 471 504 c 0
 461 524 447 540 430 554 c 0
 414 568 395 581 374 592 c 0
 334 613 296 628 256 636 c 2
 246 638 l 1
 235 581 226 535 220 500 c 0
 219 493 216 480 211 462 c 0
 206 444 196 407 179 350 c 1
 191 347 l 2
 198 346 208 345 219 345 c 2
 222 345 l 2
 224 345 234 346 253 347 c 0
 323 350 372 357 401 368 c 0
EndSplineSet
Validated: 524289
EndChar

StartChar: S
Encoding: 83 83 61
Width: 593
GlyphClass: 2
Flags: HMW
HStem: -29 62<186.5 190.5> 668 56<395.5 440.5>
VStem: 147 70<474 520.5> 411 71<234.5 287.5>
LayerCount: 2
Fore
SplineSet
50 117 m 0
 57 120 63 123 66 123 c 0
 69 123 73 124 74 124 c 2
 79 124 l 2
 80 124 82 122 84 119 c 0
 86 116 90 110 93 103 c 0
 101 82 114 65 134 52 c 0
 152 39 174 33 199 33 c 0
 214 33 230 36 247 41 c 0
 264 46 280 52 297 62 c 0
 314 72 330 84 345 97 c 0
 360 110 372 125 383 143 c 0
 394 161 402 180 406 200 c 0
 409 216 411 229 411 240 c 0
 411 259 408 275 401 290 c 0
 396 299 389 308 380 317 c 0
 371 326 361 334 348 341 c 0
 335 348 320 353 301 358 c 0
 282 363 261 368 238 371 c 0
 220 373 204 380 191 389 c 0
 178 398 169 409 162 422 c 0
 152 442 147 463 147 485 c 0
 147 492 147 499 149 508 c 0
 154 530 161 551 172 572 c 0
 183 593 197 612 214 631 c 0
 231 650 251 666 272 680 c 0
 293 694 318 704 346 712 c 0
 374 720 402 724 433 724 c 0
 448 724 470 722 497 719 c 0
 524 716 543 712 552 708 c 0
 559 706 564 701 566 694 c 0
 566 691 567 687 567 683 c 0
 567 679 566 673 564 667 c 0
 562 661 559 656 556 654 c 0
 553 652 549 649 545 649 c 0
 541 649 538 648 534 648 c 0
 530 648 526 649 521 650 c 0
 519 650 515 652 513 653 c 0
 502 656 494 660 487 661 c 0
 480 662 470 664 456 665 c 0
 442 667 426 668 409 668 c 0
 382 668 355 663 329 653 c 0
 303 643 279 628 258 608 c 0
 237 588 225 566 220 540 c 0
 218 532 217 524 217 517 c 0
 217 495 225 476 238 460 c 0
 255 439 283 428 321 426 c 0
 351 424 377 418 398 409 c 0
 419 400 436 389 447 376 c 0
 459 363 468 348 474 331 c 0
 480 314 482 296 482 279 c 0
 482 262 481 243 476 223 c 0
 469 192 458 164 443 137 c 0
 428 110 412 87 392 67 c 0
 372 47 351 30 328 15 c 0
 305 0 279 -11 254 -18 c 0
 229 -25 203 -29 178 -29 c 0
 138 -29 106 -20 79 -2 c 0
 52 16 35 36 29 60 c 0
 28 67 27 74 27 80 c 0
 27 86 29 92 31 97 c 0
 35 106 41 112 50 117 c 0
EndSplineSet
Validated: 1
EndChar

StartChar: T
Encoding: 84 84 62
Width: 593
GlyphClass: 2
Flags: HMW
HStem: 612 64<461 488.5 461 488.5>
LayerCount: 2
Fore
SplineSet
202 303 m 0
 230 459 248 560 257 606 c 1
 257 603 259 607 260 620 c 1
 176 625 129 628 117 630 c 0
 97 633 87 640 87 649 c 0
 87 651 88 653 88 655 c 0
 89 665 95 674 104 682 c 0
 110 687 117 690 124 690 c 0
 126 690 128 689 130 689 c 0
 163 682 280 678 483 676 c 0
 494 676 501 674 503 670 c 0
 505 666 506 662 506 657 c 0
 506 655 505 652 505 650 c 0
 503 640 497 631 489 622 c 0
 482 615 474 612 465 612 c 2
 461 612 l 2
 442.25 609.75 423.921875 608.625 406.015625 608.625 c 0
 376.171875 608.625 347.5 611.75 320 618 c 1
 292 475 255 277 210 24 c 0
 207 13 200 4 190 -3 c 0
 180 -10 170 -13 161 -13 c 2
 158 -13 l 2
 150 -13 144 -10 140 -5 c 0
 139 -3 138 1 138 6 c 0
 138 11 139 16 141 23 c 0
 150 54 171 147 202 303 c 0
EndSplineSet
Validated: 524289
EndChar

StartChar: U
Encoding: 85 85 63
Width: 593
GlyphClass: 2
Flags: HMW
HStem: -29 67<175 232>
VStem: 35 68<141.5 183.5> 135 62
LayerCount: 2
Fore
SplineSet
467 251 m 0
 460 222 451 194 438 168 c 0
 427 143 414 121 401 102 c 0
 388 83 375 66 360 51 c 0
 345 36 330 24 315 14 c 0
 300 4 285 -5 269 -11 c 0
 253 -17 239 -21 225 -24 c 0
 211 -27 196 -29 182 -29 c 0
 168 -29 153 -27 138 -22 c 0
 122 -17 106 -8 91 4 c 0
 76 16 64 31 54 49 c 0
 44 67 38 91 36 121 c 0
 36 129 35 137 35 146 c 0
 35 170 37 196 42 224 c 0
 84 427 115 564 135 637 c 0
 139 653 146 665 155 673 c 0
 164 681 173 685 182 685 c 0
 188 685 192 684 194 681 c 0
 196 678 197 673 197 667 c 0
 197 661 195 655 194 648 c 0
 144 422 115 285 108 238 c 0
 104 214 103 193 103 174 c 0
 103 160 104 146 106 131 c 0
 109 113 116 97 124 83 c 0
 132 69 144 59 159 50 c 0
 174 42 190 38 210 38 c 0
 254 38 293 54 327 88 c 0
 361 122 386 172 404 239 c 0
 413 267 423 303 432 345 c 0
 442 387 451 426 458 459 c 0
 481 566 494 623 495 629 c 0
 502 656 510 673 518 679 c 0
 522 682 525 685 528 685 c 0
 531 685 535 686 540 686 c 0
 545 686 548 685 550 684 c 0
 552 683 555 680 557 676 c 0
 559 672 560 669 560 664 c 0
 560 659 559 652 558 645 c 0
 539 541 509 410 467 251 c 0
EndSplineSet
Validated: 1
EndChar

StartChar: V
Encoding: 86 86 64
Width: 593
GlyphClass: 2
Flags: HMW
VStem: 72 64<623 664 631 664>
LayerCount: 2
Fore
SplineSet
522 674 m 2
 522 668 l 2
 521 662 516 654 509 645 c 0
 487 610 435 512 352 352 c 1
 275 193 224 85 200 27 c 0
 196 15 191 6 184 -1 c 0
 177 -8 169 -12 160 -12 c 2
 154 -12 l 2
 144 -12 136 -10 131 -5 c 0
 125 0 121 10 120 24 c 0
 111 96 100 204 89 350 c 0
 78 494 72 585 72 623 c 2
 72 631 l 2
 72 672 81 697 101 707 c 0
 106 709 109 711 113 711 c 0
 117 711 121 709 124 706 c 0
 131 700 135 686 136 664 c 0
 136 659 139 599 145 486 c 2
 153 359 l 1
 161 226 l 2
 164 184 167 151 169 126 c 0
 169 109 171 94 172 82 c 1
 179 90 185 102 192 117 c 0
 228 192 280 301 347 445 c 2
 454 664 l 2
 464 685 475 699 486 705 c 0
 491 709 496 711 501 711 c 0
 503 711 506 710 511 708 c 0
 514 704 517 699 519 692 c 0
 521 687 522 681 522 674 c 2
EndSplineSet
Validated: 1
EndChar

StartChar: W
Encoding: 87 87 65
Width: 593
GlyphClass: 2
Flags: HMW
VStem: 509 57
LayerCount: 2
Fore
SplineSet
40 27 m 2
 40 30 l 1
 40 30 41 31 41 32 c 0
 41 34 42 58 45 105 c 0
 47 136 51 168 55 199 c 0
 65 276 86 420 117 632 c 0
 123 675 135 702 155 711 c 0
 157 713 162 714 164 714 c 2
 166 714 l 2
 170 713 173 710 176 708 c 0
 178 707 180 702 180 693 c 0
 180 690 181 686 181 681 c 0
 181 679 180 676 179 672 c 0
 170 633 148 490 113 242 c 0
 110 219 107 187 102 147 c 0
 97 103 93 75 92 65 c 1
 99 55 107 53 115 59 c 1
 122 81 132 108 142 140 c 0
 151 169 172 237 205 342 c 2
 205 342 219 392 251 493 c 0
 268 545 283 588 295 622 c 0
 307 657 315 678 320 687 c 0
 327 703 342 711 363 711 c 1
 364 720 366 720 367 712 c 1
 382 712 389 703 389 685 c 0
 389 668 385 621 377 544 c 0
 375 517 370 479 364 428 c 0
 359 378 355 340 353 313 c 0
 348 273 341 208 335 116 c 0
 333 81 332 49 330 18 c 1
 339 45 348 75 357 108 c 0
 387 204 424 332 467 493 c 0
 491 572 505 623 509 645 c 0
 512 667 519 684 529 696 c 0
 538 707 546 713 554 713 c 0
 556 713 560 712 561 711 c 0
 565 708 566 697 566 678 c 0
 566 670 565 659 562 645 c 0
 554 611 539 560 517 491 c 2
 472 347 l 1
 472 347 461 303 434 217 c 0
 417 161 404 118 393 89 c 0
 382 59 373 39 366 28 c 0
 359 14 349 4 338 -3 c 0
 327 -8 319 -11 312 -11 c 2
 308 -11 l 1
 306 -11 l 2
 297 -11 290 -8 285 -3 c 0
 280 2 278 12 278 26 c 2
 278 30 l 2
 278 92 285 175 299 279 c 2
 317 411 l 2
 329 504 337 566 340 595 c 1
 333 605 325 607 318 601 c 1
 287 490 253 374 217 255 c 0
 182 137 157 61 142 26 c 0
 139 15 133 7 125 1 c 0
 117 -4 109 -8 101 -9 c 0
 93 -10 87 -11 80 -11 c 0
 69 -10 59 -9 51 -8 c 0
 48 -6 46 -4 45 -2 c 0
 43 0 42 4 41 11 c 0
 40 16 40 21 40 27 c 2
74 -11 m 1024
EndSplineSet
Validated: 1
EndChar

StartChar: X
Encoding: 88 88 66
Width: 593
GlyphClass: 2
Flags: HMW
VStem: 170 66
LayerCount: 2
Fore
SplineSet
399 -18 m 0
 392 -15 386 -7 380 5 c 0
 373 19 364 41 355 71 c 0
 346 100 335 137 323 183 c 0
 311 230 300 271 291 305 c 1
 278 288 l 2
 253 255 213 200 160 123 c 0
 104 48 73 7 66 0 c 0
 57 -11 49 -18 42 -21 c 0
 38 -23 34 -24 32 -24 c 0
 27 -24 23 -19 18 -9 c 0
 15 -3 13 4 13 11 c 0
 13 18 20 31 32 48 c 0
 39 56 75 98 139 175 c 1
 199 255 242 315 271 357 c 1
 175 627 l 2
 172 635 170 642 170 649 c 0
 170 667 176 682 187 693 c 0
 195 702 203 706 211 706 c 0
 213 706 217 704 221 702 c 0
 227 698 232 690 236 679 c 0
 249 651 276 567 318 427 c 2
 325 405 l 1
 338 424 l 2
 436 568 498 654 524 683 c 0
 532 694 540 701 548 705 c 0
 553 707 558 709 562 709 c 0
 567 709 571 707 575 700 c 0
 577 695 580 689 580 683 c 0
 580 682 581 679 581 676 c 2
 578 667 l 2
 576 661 572 655 565 648 c 2
 471 532 l 1
 412 450 373 395 352 364 c 0
 350 362 347 358 343 351 c 1
 353 321 369 269 390 195 c 0
 411 121 426 75 435 55 c 0
 440 45 442 36 442 28 c 0
 442 22 441 16 440 11 c 0
 439 6 436 1 432 -5 c 0
 424 -16 416 -22 409 -22 c 0
 407 -22 403 -20 399 -18 c 0
EndSplineSet
Validated: 1
EndChar

StartChar: Y
Encoding: 89 89 67
Width: 593
GlyphClass: 2
Flags: HMW
VStem: 104 76<613 653.5 626 653.5>
LayerCount: 2
Fore
SplineSet
527 623 m 0
 522 615 513 601.999023438 500 582.999023438 c 0
 487 563.999023438 475 546.999023438 467 533.999023438 c 0
 459 520.999023438 442 496.999023438 417 461.999023438 c 0
 395 426.999023438 375 396.999023438 361 374.999023438 c 0
 328.958007812 324.647460938 293.34765625 298.091796875 265 209 c 0
 244 143 248.8203125 95.607421875 201 -17 c 0
 195.903320312 -29.0009765625 175 -35 164 -38 c 0
 162 -38 158 -39 156 -39 c 0
 151 -39 146 -37 141 -33 c 0
 136 -28 132 -21 132 -13 c 0
 132 -10 134 -6 134 -4 c 0
 135 3 140.305664062 8.7080078125 144 18 c 0
 177 101 144 18 208 231 c 1
 202 258 194 291 183 329 c 0
 172 367 165 393 161 407 c 0
 157 421 150 443 140 475 c 0
 131 504 123 530 117 551 c 0
 111 572 106 593 104 613 c 2
 104 626 l 2
 104 634 105 641 107 647 c 0
 110 657 115 665 120 670 c 0
 125 675 130 680 137 682 c 0
 143 684 148 686 153 686 c 0
 157 686 161 685 165 684 c 0
 169 683 172 679 174 673 c 0
 176 667 180 659 180 648 c 0
 181 625 184 600 188 573 c 0
 189 564 191 552 195 536 c 0
 199 520 202 510 203 506 c 0
 214 464 221 442 221 442 c 2
 232 403 240 365 246 328 c 0
 247 311 249 301 250 300 c 0
 255 300 261 308 266 323 c 0
 268 327 277 340 290 362 c 0
 303 384 325 418 354 465 c 0
 383 512 404 548 419 574 c 0
 424 583 432 595 443 611 c 0
 455 627 465 640 470 649 c 0
 476 660 482 668 488 675 c 0
 494 682 500 686 505 688 c 0
 515 692 523 692 530 689 c 0
 532 687 536 684 538 682 c 0
 541 677 542 670 542 663 c 0
 542 661 542 656 541 651 c 0
 539 642 533 633 527 623 c 0
EndSplineSet
Validated: 524289
EndChar

StartChar: Z
Encoding: 90 90 68
Width: 593
GlyphClass: 2
Flags: HMW
HStem: 9 63 627 69<183.5 230 187 230> 629 55
LayerCount: 2
Fore
SplineSet
438 40 m 2xa0
 436 29 431 21 424 14 c 0
 417 7 408 3 394 3 c 0
 391 3 358 4 298 6 c 0
 238 8 182 9 129 9 c 0
 106 9 76 8 37 7 c 2
 36 7 l 2
 34 7 30 8 29 9 c 0
 28 10 25 15 23 20 c 0
 21 25 21 31 21 36 c 2
 21 49 l 2
 22 55 28 66 37 81 c 0
 46 96 61 117 82 144 c 0
 110 181 168 256 258 368 c 0
 347 480 415 561 459 612 c 2
 479 634 l 1
 430 632 375 630 313 629 c 0
 251 628 209 627 188 627 c 2xc0
 187 627 l 2
 180 627 174 628 173 632 c 0
 172 636 170 640 170 644 c 0
 170 648 171 651 171 655 c 0
 173 664 180 674 190 683 c 0
 200 692 212 696 224 696 c 0
 236 696 253 694 274 690 c 0
 295 686 314 684 329 684 c 2
 346 684 l 2
 385 684 436 686 500 691 c 0
 538 693 559 695 559 695 c 2
 561 695 564 694 565 693 c 0
 566 692 568 689 569 687 c 0
 571 682 574 676 574 670 c 0
 574 667 572 663 572 658 c 0
 570 654 566 648 557 639 c 0
 548 630 535 618 521 605 c 0
 507 592 498 581 491 573 c 0
 464 540 425 493 375 431 c 0
 325 369 276 308 228 247 c 0
 180 186 138 131 105 84 c 2
 90 63 l 1
 117 65 l 2
 186 70 249 72 308 72 c 0
 355 72 390 70 412 66 c 0
 424 64 432 60 436 55 c 0
 438 53 438 50 438 46 c 2
 438 40 l 2xa0
EndSplineSet
Validated: 1
EndChar

StartChar: bracketleft
Encoding: 91 91 69
Width: 593
GlyphClass: 2
Flags: HMW
HStem: -69 47 773 64<515 517>
LayerCount: 2
Fore
SplineSet
439 837 m 1
 510 837 l 2
 524 837 532 838 532 838 c 2
 541 838 547 837 549 833 c 0
 551 829 552 824 552 819 c 2
 552 812 l 2
 551 807 548 803 546 798 c 0
 540 786 533 778 524 775 c 0
 521 774 518 773 516 773 c 0
 514 773 511 774 510 774 c 0
 487 778 449 780 397 780 c 0
 374 780 344 779 309 778 c 1
 304 758 295 719 280 661 c 0
 265 603 253 555 243 516 c 0
 233 477 222 431 210 377 c 0
 203 337 187 268 163 170 c 0
 139 72 124 8 117 -22 c 1
 160 -22 l 2
 190 -22 226 -21 268 -20 c 0
 310 -19 333 -17 338 -17 c 0
 348 -17 354 -19 356 -21 c 0
 358 -25 358 -31 357 -39 c 0
 355 -49 351 -58 345 -65 c 0
 343 -68 339 -71 336 -72 c 0
 333 -73 330 -74 328 -74 c 0
 326 -74 323 -73 321 -73 c 0
 306 -71 286 -70 261 -70 c 0
 259 -70 251 -69 240 -69 c 0
 229 -69 214 -70 197 -71 c 0
 134 -75 91 -77 69 -77 c 0
 56 -77 48 -74 44 -70 c 0
 42 -68 41 -65 41 -61 c 0
 41 -55 43 -47 48 -37 c 1
 48 -36 l 1
 51 -27 l 2
 62 8 79 71 101 161 c 0
 123 251 144 341 163 431 c 0
 166 452 171 474 177 500 c 0
 183 526 195 579 215 660 c 0
 220 681 225 703 232 729 c 0
 239 755 243 772 245 781 c 2
 246 784 l 2
 246 788 245 791 245 793 c 0
 245 805 250 815 260 824 c 0
 267 831 278 835 291 835 c 0
 335 836 376 837 412 837 c 2
 439 837 l 1
EndSplineSet
Validated: 1
EndChar

StartChar: backslash
Encoding: 92 92 70
Width: 593
GlyphClass: 2
Flags: HMW
VStem: 361 71<4.29497e+09 4.29497e+09>
LayerCount: 2
Fore
SplineSet
384 -45 m 0
 373 -39 366 -29 361 -14 c 0
 359 -3 351 27 340 76 c 0
 329 125 321 160 316 181 c 0
 307 214 280 296 237 429 c 0
 194 562 168 645 160 679 c 0
 159 684 158 689 158 694 c 0
 158 702 160 709 162 715 c 0
 167 724 174 731 184 736 c 0
 192 739 199 741 206 741 c 0
 211 741 217 739 221 735 c 0
 225 731 228 726 230 718 c 0
 253 621 277 535 299 458 c 0
 334 333 379 190 433 30 c 0
 435 24 436 17 436 10 c 0
 436 3 434 -6 432 -15 c 0
 427 -31 420 -41 412 -45 c 0
 407 -47 403 -49 398 -49 c 0
 393 -49 389 -47 384 -45 c 0
EndSplineSet
Validated: 1
EndChar

StartChar: bracketright
Encoding: 93 93 71
Width: 593
GlyphClass: 2
Flags: HMW
HStem: -69 49 780 57<376 390.5>
LayerCount: 2
Fore
SplineSet
403 837 m 2
 440 837 480 836 522 835 c 0
 534 835 542 832 545 827 c 0
 547 824 549 820 549 816 c 0
 549 812 548 809 548 806 c 0
 546 801 544 796 542 792 c 2
 540 789 l 1
 540 787 l 1
 538 781 l 1
 538 780 l 2
 538 775 533 760 528 735 c 2
 498 591 l 2
 486 535 473 483 460 436 c 0
 438 346 417 256 397 166 c 0
 377 76 365 14 360 -21 c 2
 358 -30 l 1
 358 -32 l 2
 358 -39 357 -45 356 -50 c 0
 355 -58 350 -64 343 -69 c 0
 336 -74 326 -77 313 -77 c 0
 291 -77 249 -74 188 -71 c 0
 170 -71 149 -69 126 -69 c 0
 103 -69 83 -71 63 -73 c 0
 60 -73 56 -74 55 -74 c 0
 50 -74 46 -72 45 -70 c 0
 44 -63 44 -55 46 -44 c 0
 48 -35 53 -29 58 -24 c 0
 63 -19 72 -17 83 -17 c 0
 87 -17 109 -19 151 -20 c 0
 193 -21 228 -22 258 -22 c 2
 295 -22 l 1
 301 4 315 67 336 165 c 0
 357 263 373 331 384 371 c 1
 384 372 l 1
 397 425 409 472 417 511 c 0
 425 550 443 639 472 778 c 1
 433 779 402 780 379 780 c 0
 329 780 292 778 266 774 c 0
 264 774 260 773 258 773 c 0
 256 773 253 773 251 774 c 0
 249 775 247 778 247 780 c 0
 244 789 243 798 245 807 c 0
 247 816 251 823 258 830 c 0
 264 835 272 838 283 838 c 2
 284 838 l 2
 312 838 343 837 376 837 c 2
 403 837 l 2
EndSplineSet
Validated: 1
EndChar

StartChar: asciicircum
Encoding: 94 94 72
Width: 593
GlyphClass: 2
Flags: HMW
HStem: 607 326<84.5 367>
LayerCount: 2
Fore
SplineSet
477 614 m 0
 472 619 463 630 451 648 c 0
 449 650 445 654 443 658 c 0
 416 698 399 726 389 743 c 0
 379 760 367 787 350 824 c 2
 341 841 l 1
 329 828 l 2
 307 803 288 783 271 767 c 0
 254 751 241 739 231 731 c 0
 221 723 208 713 192 699 c 0
 176 685 160 670 142 653 c 0
 139 651 134 647 129 642 c 0
 111 625 98 615 91 610 c 0
 89 608 86 607 85 607 c 0
 84 607 83 609 81 609 c 0
 74 613 68 620 65 631 c 0
 65 632 64 634 64 636 c 0
 64 647 72 659 84 672 c 0
 99 689 120 709 146 734 c 0
 172 759 201 786 233 817 c 0
 265 848 297 882 330 918 c 0
 336 925 344 929 353 931 c 0
 357 932 361 933 365 933 c 0
 369 933 373 932 377 931 c 0
 382 929 387 926 388 922 c 2
 388 921 l 1
 404 886 418 857 430 834 c 0
 442 811 451 794 458 783 c 0
 465 772 475 756 488 735 c 0
 501 714 513 696 524 679 c 0
 527 674 529 668 529 663 c 0
 529 655 526 648 521 642 c 0
 511 629 500 621 488 616 c 0
 485 614 482 613 481 613 c 0
 480 613 478 614 477 614 c 0
EndSplineSet
Validated: 1
EndChar

StartChar: underscore
Encoding: 95 95 73
Width: 593
GlyphClass: 2
Flags: HMW
HStem: -87 60<92.5 114>
LayerCount: 2
Fore
SplineSet
76 -72 m 0
 76 -68 77 -64 78 -59 c 0
 80 -49 83 -41 88 -36 c 0
 93 -30 101 -27 112 -27 c 2
 114 -27 l 2
 171 -28 219 -29 259 -29 c 0
 299 -29 348 -28 409 -27 c 0
 458 -27 487 -25 498 -25 c 0
 509 -25 515 -27 516 -30 c 0
 518 -35 519 -42 518 -51 c 0
 516 -62 511 -70 506 -75 c 0
 499 -82 490 -85 479 -85 c 0
 250 -86 123 -87 96 -87 c 0
 89 -87 84 -86 81 -84 c 0
 78 -82 76 -78 76 -72 c 0
EndSplineSet
Validated: 1
EndChar

StartChar: grave
Encoding: 96 96 74
Width: 593
GlyphClass: 2
Flags: HMW
HStem: 636 161<252 352>
LayerCount: 2
Fore
SplineSet
351 636 m 0
 343 636 335 639 326 644 c 0
 297 665 278 678 271 683 c 0
 264 688 255 695 244 704 c 0
 233 713 223 721 216 728 c 0
 211 734 208 743 208 754 c 0
 208 763 211 772 216 781 c 0
 223 788 233 794 244 796 c 0
 247 796 251 797 253 797 c 0
 259 797 264 796 269 792 c 0
 271 790 287 773 316 742 c 0
 321 736 329 729 339 720 c 0
 349 711 359 703 367 698 c 0
 377 692 383 684 385 673 c 0
 385 670 386 666 386 664 c 0
 386 658 383 653 380 649 c 0
 375 642 367 638 357 637 c 0
 355 637 353 636 351 636 c 0
EndSplineSet
Validated: 1
EndChar

StartChar: a
Encoding: 97 97 75
Width: 593
GlyphClass: 2
Flags: HMW
HStem: -28 69 438 72
VStem: 426 51
LayerCount: 2
Fore
SplineSet
264 450 m 0
 289 471 324 486.999023438 367 499.999023438 c 0
 388 505.999023438 410 509.999023438 433 509.999023438 c 2
 441 509.999023438 l 2
 493 508.999023438 525 492.999023438 535 464.999023438 c 0
 542.201171875 444.74609375 545.755859375 420.64453125 545.755859375 392.51171875 c 0
 545.755859375 358.13671875 540.448242188 317.743164062 530 270.999023438 c 0
 530 268.999023438 528 260.999023438 525 247.999023438 c 0
 522 234.999023438 517 212.999023438 509 182.999023438 c 0
 501 152.999023438 498 136.999023438 498 135.999023438 c 0
 494 118.999023438 489 86.9990234375 483 36.9990234375 c 0
 482 21.9990234375 479 8.9990234375 477 -2.0009765625 c 0
 472 -26.0009765625 465 -38.0009765625 457 -38.0009765625 c 0
 436 -38.0009765625 426 -34.0009765625 426 -25.0009765625 c 0
 424.828125 -7.427734375 424.342773438 12.205078125 424.342773438 34.09765625 c 0
 424.342773438 49.578125 424.584960938 66.1884765625 424.999023438 84 c 1
 417.999023438 71 412.999023438 64 408.999023438 64 c 0
 380.999023438 29 355.999023438 5 332.999023438 -10 c 0
 313.999023438 -22 286.999023438 -28 249.999023438 -28 c 0
 233.999023438 -28 216.999023438 -23 198.999023438 -12 c 0
 179.999023438 -1 164.999023438 17 153.999023438 40 c 0
 142.999023438 63 137.999023438 87 135.999023438 111 c 1
 139.999023438 128 145.999023438 146 153.999023438 165 c 0
 162.999023438 186 174.999023438 203 190.999023438 217 c 0
 213.999023438 238 229.999023438 251 237.999023438 255 c 0
 272.999023438 273 292.999023438 284 297.999023438 285 c 0
 339.999023438 298 362.999023438 306 367.999023438 307 c 0
 396.999023438 311 414.999023438 314 422.999023438 316 c 0
 425.999023438 317 443.999023438 323 475.999023438 335 c 0
 476.999023438 339 478.999023438 340 478.999023438 340 c 2
 481.999023438 346 483.999023438 353 484.999023438 359 c 0
 485.999023438 365 487.999023438 370 487.999023438 376 c 0
 487.999023438 382 486.999023438 389 482.999023438 398 c 0
 477.999023438 410 469.999023438 419 460.999023438 425 c 0
 453.999023438 431 439.999023438 436 420.999023438 437 c 0
 417.999023438 437 414.999023438 438 411.999023438 438 c 0
 398.999023438 438 385.999023438 435 369.999023438 430 c 0
 353.999023438 425 340.999023438 417 328.999023438 409 c 0
 306.999023438 395 289.999023438 383 278.999023438 373 c 0
 258.999023438 352 243.999023438 340 230.999023438 340 c 0
 224.999023438 340 218.999023438 343 213.999023438 348 c 0
 206.764648438 354.430664062 203.407226562 361.5078125 203.407226562 369.75 c 0
 203.407226562 371.76171875 203.607421875 373.842773438 204 376 c 0
 206 387 215 401 227 415 c 0
 238 428 250 439 264 450 c 0
353 67.9990234375 m 0
 366 77.9990234375 378 89.9990234375 389 103.999023438 c 0
 401 117.999023438 413 135.999023438 424 156.999023438 c 0
 435 177.999023438 445 200.999023438 452 225.999023438 c 2
 455 236.999023438 l 1
 444 235.999023438 l 2
 329 224.999023438 250 191.999023438 207 136.999023438 c 1
 204 131.999023438 l 1
 205 126.999023438 l 2
 213 94.9990234375 223 72.9990234375 237 59.9990234375 c 0
 249 46.9990234375 264 40.9990234375 283 40.9990234375 c 0
 305 40.9990234375 329 48.9990234375 353 67.9990234375 c 0
EndSplineSet
Validated: 524289
EndChar

StartChar: b
Encoding: 98 98 76
Width: 593
GlyphClass: 2
Flags: HMW
HStem: -14 74<256 278.5> 425 65<322 396.5>
VStem: 88 60 437 69<295.5 370.5>
LayerCount: 2
Fore
SplineSet
495 263 m 0
 488 227 477 194 464 164 c 0
 451 134 435 107 419 86 c 0
 403 65 386 46 369 31 c 0
 352 16 336 4 319 -3 c 0
 302 -10 286 -14 271 -14 c 0
 229 -14 194 2 168 31 c 1
 163 29 159 34 154 47 c 1
 152 32 150 26 148 26 c 0
 143 12 138 2 131 -3 c 0
 124 -8 116 -11 107 -11 c 0
 100 -11 94 -9 92 -6 c 0
 90 -3 88 2 88 8 c 0
 88 14 89 22 91 30 c 0
 109 115 136 237 172 396 c 0
 207 555 230 663 243 722 c 0
 247 741 252 753 258 759 c 0
 264 765 272 768 282 768 c 0
 288 768 293 766 296 761 c 0
 298 759 299 754 299 748 c 0
 299 742 298 733 296 723 c 0
 289 698 282 666 275 624 c 0
 262 564 249 499 236 428 c 1
 244 437 252 443 259 445 c 0
 296 475 337 490 380 490 c 0
 413 490 441 480 462 461 c 0
 491 436 506 397 506 344 c 0
 506 319 502 292 495 263 c 0
405 397 m 0
 388 416 366 425 340 425 c 0
 304 425 267 408 228 374 c 2
 225 371 l 1
 208 288 187 201 165 109 c 1
 168 105 l 2
 179 88 193 77 211 70 c 0
 226 63 245 60 267 60 c 0
 307 60 340 78 368 113 c 0
 397 147 418 193 431 251 c 0
 435 269 437 287 437 304 c 0
 437 344 426 375 405 397 c 0
EndSplineSet
Validated: 1
EndChar

StartChar: c
Encoding: 99 99 77
Width: 593
GlyphClass: 2
Flags: HMW
HStem: -31 68<219 266> 458 69<357 413>
VStem: 107 70<123.5 126.5> 417 70<358.5 405>
LayerCount: 2
Fore
SplineSet
463 492 m 0
 480 468 487 440 487 407 c 2
 487 405 l 2
 487 389 485 376 480 365 c 0
 474 352 464 343 451 337 c 0
 445 335 440 333 435 333 c 0
 432 333 428 334 426 335 c 0
 424 335 422 338 420 343 c 0
 418 348 417 354 417 363 c 0
 417 366 415 377 415 397 c 0
 415 402 415 408 414 415 c 0
 413 422 411 428 409 432 c 0
 407 436 403 440 399 444 c 0
 391 453 379 458 362 458 c 0
 352 458 342 456 331 451 c 0
 320 446 308 438 295 426 c 0
 282 414 270 399 258 382 c 0
 246 365 234 343 223 315 c 0
 210 287 199 256 190 221 c 0
 181 189 177 161 177 137 c 0
 177 110 183 88 194 71 c 0
 209 50 230 39 257 37 c 2
 266 37 l 2
 289 37 310 42 328 52 c 0
 349 64 364 78 371 93 c 0
 377 104 383 112 389 118 c 0
 395 124 398 128 402 129 c 0
 406 130 410 131 413 131 c 0
 416 131 419 129 424 127 c 0
 427 125 430 122 432 120 c 0
 434 118 435 114 435 110 c 0
 435 100 430 86 419 69 c 0
 404 44 380 22 349 2 c 0
 334 -9 316 -17 296 -23 c 0
 276 -28 254 -31 232 -31 c 0
 206 -31 184 -26 164 -14 c 0
 146 -3 133 12 124 32 c 0
 113 57 107 85 107 116 c 0
 107 137 110 158 115 180 c 0
 126 227 140 269 157 308 c 0
 174 347 193 379 214 406 c 0
 234 433 253 455 273 474 c 0
 312 509 354 527 400 527 c 0
 426 527 447 515 463 492 c 0
EndSplineSet
Validated: 1
EndChar

StartChar: d
Encoding: 100 100 78
Width: 593
GlyphClass: 2
Flags: HMW
HStem: -14 76<176 211> 436 75<283 287 283 283>
VStem: 56 62<171 182> 327 65<20.5 50>
LayerCount: 2
Fore
SplineSet
239 65 m 0
 248 67 256 71 263 74 c 0
 270 77 276 81 283 87 c 0
 290 93 295 99 300 103 c 0
 305 107 310 113 316 121 c 0
 322 129 328 135 330 139 c 0
 332 143 335 147 338 152 c 0
 341 157 344 162 346 164 c 0
 359 226 366 261 368 268 c 0
 369 275 371 286 375 301 c 0
 379 316 381 329 383 338 c 1
 382 341 l 2
 375 368 364 391 347 409 c 0
 330 427 310 436 287 436 c 2
 283 436 l 2
 259 435 236 426 215 410 c 0
 194 394 178 373 163 348 c 0
 148 323 136 296 129 267 c 0
 121 235 118 207 118 183 c 0
 118 159 120 137 127 120 c 0
 135 99 149 83 166 74 c 0
 179 66 193 62 210 62 c 2
 211 62 l 2
 220 62 230 63 239 65 c 0
56 166 m 0
 56 198 60 233 69 271 c 0
 78 316 95 358 117 394 c 0
 139 430 165 458 196 479 c 0
 225 500 257 511 289 511 c 0
 333 511 369 498 394 472 c 1
 399 475 403 471 408 458 c 1
 439 595 461 681 472 716 c 0
 477 733 484 745 491 754 c 0
 500 764 509 769 521 769 c 0
 528 769 535 766 537 761 c 0
 538 760 539 757 539 753 c 0
 539 746 536 736 533 723 c 0
 522 681 503 606 475 495 c 0
 447 384 428 299 415 242 c 1
 415 241 l 1
 408 202 402 168 398 139 c 0
 394 110 393 89 393 77 c 0
 393 65 392 54 392 46 c 0
 392 38 391 32 389 27 c 0
 385 16 380 8 373 2 c 0
 368 -3 361 -7 352 -9 c 0
 349 -9 344 -10 342 -10 c 0
 340 -10 337 -9 335 -8 c 0
 333 -7 332 -4 331 -1 c 0
 329 6 327 15 327 26 c 0
 327 34 328 43 329 52 c 0
 330 60 332 74 334 95 c 1
 326 78 318 67 310 62 c 0
 302 51 294 42 286 34 c 0
 278 26 269 17 258 10 c 0
 237 -6 213 -14 184 -14 c 0
 168 -14 152 -10 137 -3 c 0
 122 4 107 15 95 30 c 0
 83 45 73 64 66 85 c 0
 59 106 56 134 56 166 c 0
EndSplineSet
Validated: 1
EndChar

StartChar: e
Encoding: 101 101 79
Width: 593
GlyphClass: 2
Flags: HMW
HStem: -28 60<229 262 229 262> 455 66<332 380>
VStem: 108 61<134 140.5>
LayerCount: 2
Fore
SplineSet
413 60 m 0
 401 45 389 33 378 24 c 0
 367 14 355 5 341 -4 c 0
 315 -20 280 -28 238 -28 c 2
 229 -28 l 2
 177 -27 142 -4 123 39 c 0
 113 63 108 91 108 124 c 0
 108 157 113 193 122 234 c 0
 132 279 147 320 167 356 c 0
 187 392 208 423 231 447 c 0
 252 471 274 489 298 502 c 0
 322 515 347 521 372 521 c 0
 388 521 404 516 421 505 c 0
 438 494 452 479 465 458 c 0
 478 437 485 416 486 393 c 0
 486 378 478 362 464 343 c 0
 450 324 436 310 423 300 c 0
 397 280 365 261 325 241 c 0
 305 232 289 224 275 217 c 0
 261 210 245 202 224 193 c 0
 206 184 188 178 171 173 c 1
 170 158 169 146 169 138 c 0
 169 130 170 123 170 116 c 0
 172 101 176 88 182 75 c 0
 188 62 196 51 209 44 c 0
 222 36 238 32 256 32 c 0
 268 32 281 35 295 40 c 0
 309 45 321 51 332 60 c 0
 352 77 366 89 373 98 c 0
 384 110 393 119 401 124 c 0
 406 127 412 129 416 129 c 0
 420 129 424 127 427 124 c 0
 432 119 435 112 435 105 c 0
 435 93 428 78 413 60 c 0
280 427 m 0
 269 417 258 405 248 391 c 0
 238 377 228 360 218 339 c 0
 207 318 198 295 191 270 c 2
 186 249 l 1
 206 255 l 2
 309 287 379 319 416 352 c 2
 422 357 l 1
 420 364 l 2
 413 396 404 419 391 433 c 0
 377 448 361 455 342 455 c 0
 322 455 301 446 280 427 c 0
EndSplineSet
Validated: 1
EndChar

StartChar: f
Encoding: 102 102 80
Width: 593
GlyphClass: 2
Flags: HMW
HStem: -16 63 422 65 428 61 703 62
LayerCount: 2
Fore
SplineSet
337 -5 m 0xb0
 330 -12 322.999023438 -16.0009765625 311.999023438 -16.0009765625 c 0
 255.999023438 -17.0009765625 218.999023438 -18.0009765625 200.999023438 -18.0009765625 c 0
 146.999023438 -18.0009765625 106.999023438 -16.0009765625 79.9990234375 -14.0009765625 c 1
 79.9990234375 -22.0009765625 78.9990234375 -22.0009765625 78.9990234375 -14.0009765625 c 1
 68.9990234375 -14.0009765625 61.9990234375 -11.0009765625 59.9990234375 -6.0009765625 c 0
 57.9990234375 -2.0009765625 56.9990234375 1.9990234375 56.9990234375 5.9990234375 c 0
 56.9990234375 9.9990234375 57.9990234375 13.9990234375 58.9990234375 18.9990234375 c 0
 60.9990234375 29.9990234375 64.9990234375 38.9990234375 71.9990234375 45.9990234375 c 0
 77.9990234375 51.9990234375 87.9990234375 54.9990234375 98.9990234375 54.9990234375 c 2
 103.999023438 54.9990234375 l 2
 107.999023438 54.9990234375 114.999023438 53.9990234375 126.999023438 53.9990234375 c 0
 138.999023438 53.9990234375 151.999023438 51.9990234375 164.999023438 51.9990234375 c 0
 165.999023438 48.9990234375 166.999023438 51.9990234375 166.999023438 61.9990234375 c 0
 169.999023438 74.9990234375 172.999023438 87.9990234375 173.999023438 98.9990234375 c 0
 174.999023438 109.999023438 176.999023438 123.999023438 179.999023438 137.999023438 c 0
 182.999023438 151.999023438 185.999023438 171.999023438 189.999023438 198.999023438 c 0
 207.999023438 311.999023438 220.999023438 386.999023438 226.999023438 423.999023438 c 1
 221.999023438 428.999023438 216.999023438 427.999023438 211.999023438 422.999023438 c 1
 202.999023438 422.999023438 189.999023438 421.999023438 173.999023438 421.999023438 c 0
 167.999023438 421.999023438 163.999023438 422.999023438 161.999023438 424.999023438 c 0
 159.999023438 426.999023438 157.999023438 431.999023438 157.999023438 437.999023438 c 0
 157.999023438 441.999023438 158.999023438 446.999023438 159.999023438 451.999023438 c 0
 161.999023438 462.999023438 164.999023438 471.999023438 169.999023438 477.999023438 c 0
 174.999023438 483.999023438 181.999023438 486.999023438 190.999023438 486.999023438 c 2
 237.999023438 486.999023438 l 1xd0
 239.999023438 505.999023438 244.999023438 524.999023438 248.999023438 545.999023438 c 0
 255.999023438 576.999023438 263.999023438 603.999023438 276.999023438 628.999023438 c 0
 289.999023438 653.999023438 303.999023438 673.999023438 320.999023438 690.999023438 c 0
 337.999023438 707.999023438 355.999023438 720.999023438 376.999023438 731.999023438 c 0
 397.999023438 742.999023438 418.999023438 751.999023438 440.999023438 756.999023438 c 0
 464.999023438 761.999023438 490.999023438 764.999023438 515.999023438 764.999023438 c 0
 524.999023438 764.999023438 530.999023438 761.999023438 534.999023438 757.999023438 c 0
 536.999023438 755.999023438 537.999023438 752.999023438 537.999023438 749.999023438 c 0
 537.999023438 746.999023438 536.999023438 742.999023438 536.999023438 739.999023438 c 0
 534.999023438 728.999023438 528.999023438 719.999023438 522.999023438 712.999023438 c 0
 516.999023438 705.999023438 509.999023438 702.999023438 504.999023438 702.999023438 c 0
 451.999023438 702.999023438 407.999023438 687.999023438 370.999023438 657.999023438 c 0
 334.999023438 627.999023438 310.999023438 588.999023438 300.999023438 540.999023438 c 0
 297.999023438 525.999023438 294.999023438 513.999023438 293.999023438 502.999023438 c 2
 293.999023438 502.999023438 292.999023438 500.999023438 292.999023438 488.999023438 c 1xb0
 320.87109375 492.901367188 349.053710938 494.939453125 377.720703125 494.939453125 c 0
 400.479492188 494.939453125 423.543945312 493.655273438 447 491 c 0
 456 491 461 489 462 487 c 0xd0
 464 482 465 476 464 467 c 0
 462 456 458 446 453 440 c 0
 448 434 440 431 430 431 c 0
 417 431 389 430 346 428 c 0
 324 428 303 426 282 426 c 1
 277 401 272 370 266 334 c 0
 260 298 248 226 229 116 c 0
 224 83 221 65 221 63 c 2
 221 51 l 2
 224 44 227 44 230 50 c 1
 274 48 309 47 331 47 c 0
 340 47 347 45 349 41 c 0
 351 39 352 35 352 32 c 0
 352 29 351 25 351 22 c 0
 349 11 344 2 337 -5 c 0xb0
EndSplineSet
Validated: 524289
EndChar

StartChar: g
Encoding: 103 103 81
Width: 593
GlyphClass: 2
Flags: HMW
HStem: -292 59<160 181 160 186> -258 57<68 92> -31 75<263.5 274.5> 437 72<389 451.5 395 451.5>
VStem: 146 61<85 151.5>
LayerCount: 2
Fore
SplineSet
323 55 m 0x38
 338 61 351 69 362 79 c 0
 373 89 384 99 393 112 c 0
 402 125 410 137 416 149 c 0
 423 161 428 173 433 186 c 0
 433 187 449 253 480 383 c 0
 481 390 484 397 489 403 c 2
 500 418 l 1
 480 422 l 1
 477 422 l 1
 451 432 426 437 402 437 c 2
 395 437 l 2
 383 437 371 434 359 430 c 0
 347 426 334 418 321 409 c 0
 308 400 295 388 283 375 c 0
 271 362 260 346 250 326 c 0
 240 306 233 284 226 260 c 0
 221 239 217 219 213 199 c 0
 209 179 207 161 207 142 c 0
 207 123 209 107 213 92 c 0
 217 77 224 65 235 56 c 0
 245 48 256 44 271 44 c 0
 288 44 306 48 323 55 c 0x38
532 402 m 0
 524 367 516 327 507 285 c 0
 491 208 476 144 463 91 c 0
 450 38 438 -8 426 -50 c 0
 416 -82 403 -112 389 -139 c 0
 375 -166 359 -188 342 -207 c 0
 325 -226 306 -241 286 -254 c 0
 248 -279 207 -292 165 -292 c 0xb8
 148 -292 131 -289 116 -284 c 0
 101 -279 89 -273 80 -267 c 2
 74 -263 l 2
 71 -261 69 -258 68 -258 c 2
 64 -255 l 1
 62 -251 l 2
 62 -250 61 -248 61 -247 c 2
 61 -243 l 2
 61 -242 62 -239 63 -236 c 0
 65 -225 70 -216 78 -209 c 0
 83 -204 88 -201 92 -201 c 2x78
 92 -201 94 -202 95 -202 c 0
 97 -202 102 -205 108 -210 c 0
 114 -215 123 -220 133 -225 c 0
 143 -230 154 -233 166 -233 c 0xb8
 196 -233 224 -225 252 -210 c 0
 280 -195 305 -174 327 -146 c 0
 349 -118 365 -87 376 -52 c 0
 381 -38 387 -13 396 22 c 0
 401 32 406 50 410 75 c 1
 399 53 389 38 378 33 c 1
 345 -9 301 -31 248 -31 c 0
 227 -31 210 -27 196 -19 c 0
 178 -9 165 7 157 29 c 0
 150 48 146 71 146 99 c 0
 146 119 153 159 163 221 c 0
 172 263 184 299 199 332 c 0
 214 365 229 393 247 414 c 0
 265 435 284 453 305 468 c 0
 326 483 348 494 369 500 c 0
 390 506 413 509 437 509 c 0
 466 509 487 507 498 505 c 0
 509 503 520 497 530 489 c 0
 532 487 533 483 533 478 c 0
 533 469 530 460 525 453 c 1
 525 452 l 2
 524 451 518 444 507 433 c 1
 514 437 520 435 527 427 c 0
 529 427 530 425 531 423 c 0
 532 421 533 418 533 415 c 0
 533 412 533 407 532 402 c 0
EndSplineSet
Validated: 1
EndChar

StartChar: h
Encoding: 104 104 82
Width: 593
GlyphClass: 2
Flags: HMW
HStem: 414 87<379.5 448.5 388 448.5>
VStem: 295 2<768 772> 433 68<334.5 420>
LayerCount: 2
Fore
SplineSet
489 320 m 0
 480 278 469 226 458 163 c 0
 447 100 438 55 433 33 c 0
 429 14 422 0 412 -10 c 0
 403 -19 394 -23 386 -23 c 0
 379 -23 373 -18 368 -11 c 0
 366 -6 364 -1 364 6 c 0
 364 9 365 13 365 17 c 0
 368 36 376 72 389 126 c 0
 403 180 413 224 421 259 c 0
 429 294 433 323 433 346 c 0
 433 369 429 387 421 398 c 0
 414 409 403 414 389 414 c 2
 388 414 l 2
 371 414 355 410 340 403 c 0
 325 396 312 386 301 376 c 0
 290 366 281 354 271 340 c 0
 261 326 253 314 247 301 c 0
 241 288 235 276 230 264 c 0
 225 252 222 242 220 235 c 0
 218 228 215 221 215 217 c 0
 215 213 212 207 210 199 c 0
 208 191 206 184 205 179 c 0
 202 166 197 151 193 131 c 0
 189 111 185 96 182 82 c 0
 179 68 172 46 163 16 c 0
 159 4 152 -5 142 -12 c 0
 132 -19 123 -22 114 -22 c 1
 112 -21 l 2
 109 -21 105 -21 103 -20 c 0
 101 -19 98 -16 96 -14 c 0
 94 -11 93 -7 93 -2 c 0
 93 3 94 8 96 15 c 0
 104 44 118 94 137 167 c 0
 156 240 167 288 172 313 c 0
 194 428 222 565 256 723 c 0
 259 738 265 750 272 757 c 0
 279 764 287 768 295 768 c 1
 295 776 297 776 297 768 c 1
 304 768 309 766 312 761 c 0
 316 756 316 746 314 732 c 0
 299 655 274 527 241 349 c 1
 252 367 262 384 272 401 c 0
 279 414 288 426 298 437 c 0
 308 448 320 458 333 468 c 0
 346 478 361 486 378 492 c 0
 398 498 418 501 440 501 c 0
 457 501 470 496 479 488 c 0
 488 480 495 468 498 452 c 0
 500 440 501 427 501 413 c 0
 501 387 497 356 489 320 c 0
EndSplineSet
Validated: 1
EndChar

StartChar: i
Encoding: 105 105 83
Width: 593
GlyphClass: 2
Flags: HMW
HStem: -17 62<125 285> 406 61<325 399> 581 130<391.5 438.5 395 438.5>
VStem: 356 125
LayerCount: 2
Fore
SplineSet
116 -12 m 0
 115 -10 113 -5 113 -1 c 0
 113 3 115 8 116 13 c 0
 119 23 123 31 128 37 c 0
 133 42 140 45 150 45 c 2
 285 45 l 1
 292 82 297 111 300 132 c 0
 303 153 308 173 312 194 c 0
 317 217 325 262 339 326 c 0
 347 362 353 383 354 388 c 1
 355 385 356 389 357 401 c 1
 353 394 350 395 347 404 c 0
 343 405 337 406 329 406 c 0
 321 406 311 405 299 405 c 0
 287 405 278 404 271 404 c 2
 253 404 l 1
 252 404 l 2
 247 404 245 406 243 409 c 0
 242 412 241 416 241 418 c 0
 241 420 242 424 242 427 c 0
 243 438 246 446 251 453 c 0
 255 458 261 461 268 461 c 2
 269 461 l 1
 306 465 341 467 372 467 c 2
 399 467 l 2
 405 467 410 465 413 463 c 0
 416 461 418 457 418 453 c 0
 420 442 420 432 418 424 c 0
 405 382 394 338 384 296 c 0
 374 254 365 217 359 186 c 0
 354 155 346 108 336 45 c 1
 455 45 l 2
 463 45 467 44 468 42 c 0
 469 40 470 36 470 34 c 0
 470 32 469 27 468 21 c 0
 466 10 462 3 456 -3 c 0
 450 -9 443 -12 433 -12 c 0
 423 -12 377 -12 295 -14 c 0
 212 -16 156 -17 129 -17 c 0
 121 -17 117 -15 116 -12 c 0
388 690 m 0
 405 703 421 710 438 711 c 0
 439 711 440 712 441 712 c 0
 456 712 467 706 474 696 c 0
 479 688 480 679 480 669 c 0
 480 664 480 658 479 652 c 0
 474 633 465 617 451 604 c 0
 437 591 420 583 400 581 c 2
 395 581 l 2
 388 581 382 582 377 584 c 0
 372 586 367 591 363 597 c 0
 358 606 356 616 356 627 c 0
 356 652 367 673 388 690 c 0
EndSplineSet
Validated: 1
EndChar

StartChar: j
Encoding: 106 106 84
Width: 593
GlyphClass: 2
Flags: HMW
HStem: -287 66<62 106.5> 397 68 578 129<465.5 515.5>
VStem: 428 120<621.5 670>
LayerCount: 2
Fore
SplineSet
449 582 m 0
 442 585 437 590 434 597 c 0
 430 606 428 616 428 627 c 0
 428 634 428 641 430 649 c 0
 434 666 443 680 457 690 c 0
 473 701 489 707 508 707 c 0
 523 707 534 702 541 692 c 0
 546 684 548 675 548 665 c 0
 548 660 547 654 546 647 c 0
 541 627 533 611 518 598 c 0
 503 585 487 578 470 578 c 0
 461 578 454 580 449 582 c 0
208 -193 m 0
 227 -183 243 -171 259 -156 c 0
 275 -141 288 -123 300 -102 c 0
 312 -81 322 -56 327 -29 c 0
 328 -23 332 3 340 48 c 0
 348 93 357 139 366 186 c 0
 375 233 392 303 414 398 c 1
 409 389 402 389 397 397 c 1
 384 396 347 396 285 396 c 0
 259 396 243 397 238 397 c 0
 233 397 229 398 227 399 c 0
 225 400 222 403 220 407 c 0
 218 411 216 415 216 420 c 0
 216 422 216 426 217 431 c 0
 219 438 224 445 230 451 c 0
 236 457 244 459 254 459 c 0
 274 460 302 462 339 463 c 0
 376 464 403 465 419 465 c 0
 437 465 450 464 461 464 c 2
 462 464 l 2
 467 464 472 462 475 460 c 0
 478 458 480 454 480 450 c 0
 481 439 481 430 480 423 c 0
 472 401 466 382 461 367 c 0
 459 360 457 351 455 342 c 0
 451 325 439 270 420 178 c 0
 403 87 388 15 377 -36 c 0
 371 -64 364 -90 354 -113 c 0
 344 -136 332 -156 319 -173 c 0
 306 -190 293 -205 277 -218 c 0
 261 -231 246 -242 230 -250 c 0
 214 -258 197 -265 179 -271 c 0
 159 -277 141 -282 122 -284 c 0
 103 -286 85 -287 66 -287 c 0
 58 -287 52 -284 48 -280 c 0
 46 -278 45 -275 45 -272 c 0
 45 -269 46 -265 46 -262 c 0
 48 -251 54 -241 62 -233 c 0
 70 -225 77 -221 83 -221 c 0
 130 -221 171 -212 208 -193 c 0
EndSplineSet
Validated: 1
EndChar

StartChar: k
Encoding: 107 107 85
Width: 593
GlyphClass: 2
Flags: HMW
VStem: 376 58
LayerCount: 2
Fore
SplineSet
392 -22 m 0
 390 -22 387 -20 385 -17 c 0
 382 -14 378 -7 376 4 c 0
 375 9 369 23 360 45 c 0
 351 68 342 91 333 113 c 0
 324 136 315 163 307 192 c 0
 298 219 293 242 291 261 c 2
 289 283 l 1
 198 199 l 1
 193 199 l 1
 191 190 l 2
 184 165 178 135 173 101 c 0
 167 67 162 44 159 32 c 0
 155 11 148 -3 139 -11 c 0
 131 -19 122 -23 113 -23 c 0
 112 -23 110 -22 109 -22 c 0
 101 -22 95 -18 90 -9 c 0
 88 -4 87 2 87 10 c 0
 87 13 88 18 90 23 c 0
 99 54 112 104 128 173 c 0
 157 291 187 424 219 571 c 0
 234 650 244 698 248 718 c 0
 250 735 256 748 264 756 c 0
 272 764 281 768 290 768 c 0
 297 768 303 764 306 756 c 0
 308 751 309 745 309 737 c 0
 309 733 308 729 307 724 c 0
 290 638 258 488 211 277 c 1
 237 302 l 2
 272 339 315 382 367 433 c 1
 424 480 456 506 463 512 c 0
 472 521 479 528 486 530 c 0
 489 532 493 533 495 533 c 0
 498 533 502 529 504 522 c 0
 506 516 507 510 507 504 c 0
 507 495 500 483 483 469 c 0
 468 452 417 404 331 324 c 1
 333 317 l 2
 338 292 349 257 366 212 c 0
 383 165 399 125 412 93 c 0
 426 64 434 45 435 37 c 0
 433 15 424 -2 410 -13 c 0
 402 -19 396 -22 392 -22 c 0
EndSplineSet
Validated: 1
EndChar

StartChar: l
Encoding: 108 108 86
Width: 593
GlyphClass: 2
Flags: HMW
HStem: -30 61 414 59 481 21G
VStem: 184 67<87.501 125>
LayerCount: 2
Fore
SplineSet
448 44 m 0
 448 33 444 23.0009765625 435 13.0009765625 c 0
 426 4.0009765625 415 -2.9990234375 404 -7.9990234375 c 0
 381 -19.9990234375 318 -29.9990234375 307 -29.9990234375 c 2
 298 -29.9990234375 l 2
 258 -27.9990234375 227 -12.9990234375 206 14.0009765625 c 0
 196 27.0009765625 190 45.0009765625 187 66.0009765625 c 0
 186 75.0009765625 184 83.0009765625 184 92.0009765625 c 0
 184 107.000976562 187 123.000976562 190 141.000976562 c 0
 192 156.000976562 195 172.000976562 200 192.000976562 c 0
 205 215.000976562 210 231.000976562 212 239.000976562 c 0
 214 247.000976562 217 262.000976562 223 283.000976562 c 0
 229 304.000976562 233 317.000976562 234 324.000976562 c 0
 235 331.000976562 239 344.000976562 245 364.000976562 c 0
 295.357421875 531.858398438 295.357421875 531.858398438 310 649.000976562 c 0
 310 657.000976562 314 665.000976562 319 673.000976562 c 0
 324 680.000976562 328 683.000976562 333 683.000976562 c 0
 339 683.000976562 344 680.000976562 351 673.000976562 c 0
 359.26953125 664.731445312 364.576171875 659.424804688 364.576171875 641.909179688 c 0
 364.576171875 610.530273438 347.543945312 539.969726562 300 343 c 0
 292 314 286 294 284 283 c 0
 282 272 277 254 271 228 c 0
 265 202 260 187 260 183 c 0
 260 179 258 168 254 151 c 0
 252 140 251 130 251 120 c 0
 251 99 254 82 263 67 c 0
 276 45 297 32 324 31 c 2
 331 31 l 2
 358 31 405 43 436 59 c 0
 438 59 441 60 442 60 c 0
 443 60 444 59 444 59 c 2
 446 57 448 51 448 44 c 0
EndSplineSet
Validated: 524289
EndChar

StartChar: m
Encoding: 109 109 87
Width: 593
GlyphClass: 2
Flags: HMW
HStem: 416 94<286.5 339.5>
VStem: 311 40 466 65<387.5 472.5>
LayerCount: 2
Fore
SplineSet
266 408 m 0
 257 402 247 392 236 379 c 0
 217 357 200 329 183 297 c 1
 177 275 168 234 156 177 c 0
 151 154 145 124 138 87 c 0
 131 50 126 28 124 19 c 0
 122 10 118 3 115 -3 c 0
 112 -9 108 -15 104 -17 c 0
 100 -19 96 -20 92 -21 c 0
 88 -22 85 -23 80 -23 c 0
 73 -23 67 -21 65 -17 c 0
 64 -15 63 -11 63 -5 c 0
 63 1 64 7 65 15 c 0
 66 23 70 39 75 65 c 0
 80 91 84 116 89 140 c 0
 113 251 137 360 161 467 c 0
 166 488 173 504 184 513 c 0
 193 521 201 525 209 525 c 2
 210 525 l 1
 211 525 l 2
 213 525 216 525 218 524 c 0
 223 522 225 516 225 508 c 0
 225 500 223 490 219 477 c 0
 217 472 214 464 210 453 c 2
 202 427 l 2
 193 405 184 374 174 335 c 1
 190 370 206 397 222 416 c 1
 258 478 296 510 337 510 c 0
 342 510 347 504 349 492 c 0
 352 479 354 462 354 441 c 0
 354 435 353 415 352 381 c 1
 359 401 366 412 373 415 c 1
 415 478 462 510 515 510 c 0
 519 510 522 508 524 506 c 0
 529 499 531 484 531 461 c 0
 531 449 529 433 526 413 c 0
 516 346 499 264 476 167 c 0
 465 122 455 77 447 34 c 0
 445 21 441 10 438 2 c 0
 435 -6 432 -12 429 -15 c 0
 426 -18 422 -20 420 -21 c 0
 418 -22 414 -23 411 -23 c 2
 405 -23 l 2
 403 -23 400 -22 398 -21 c 0
 396 -20 393 -18 391 -16 c 0
 389 -14 387 -7 387 3 c 0
 387 10 389 18 390 27 c 0
 394 53 399 80 405 107 c 0
 413 132 421 164 429 205 c 0
 437 240 445 272 452 301 c 0
 459 330 463 354 465 374 c 0
 465 380 466 385 466 390 c 0
 466 399 464 405 462 409 c 0
 459 414 454 416 449 416 c 2
 448 416 l 2
 428 416 410 405 391 383 c 0
 374 362 358 335 342 301 c 1
 336 262 325 212 310 150 c 0
 295 88 285 46 282 24 c 0
 280 13 277 4 275 -2 c 0
 273 -9 269 -14 266 -16 c 0
 261 -21 255 -23 250 -23 c 0
 248 -23 246 -22 246 -22 c 1
 245 -22 l 2
 239 -22 234 -20 232 -16 c 0
 231 -14 230 -9 230 -2 c 0
 230 1 231 9 232 20 c 0
 235 41 244 78 258 131 c 0
 272 184 282 226 288 256 c 0
 290 256 292 263 293 279 c 0
 305 339 311 374 311 387 c 0
 311 401 307 410 299 414 c 0
 297 415 293 416 290 416 c 0
 283 416 275 414 266 408 c 0
EndSplineSet
Validated: 1
EndChar

StartChar: n
Encoding: 110 110 88
Width: 593
GlyphClass: 2
Flags: HMW
HStem: 242 2 417 93<375.5 424>
VStem: 403 2<-26.5 -23> 431 61<352 417.5>
LayerCount: 2
Fore
SplineSet
104 17 m 0
 106 23 109 40 112 68 c 0
 115 96 119 120 122 140 c 0
 131 185 146 248 167 326 c 0
 188 404 202 449 204 462 c 0
 209 482 217 495 226 503 c 0
 234 511 242 515 250 515 c 2
 252 515 l 1
 253 515 l 2
 260 515 265 512 267 507 c 0
 268 505 269 502 269 496 c 0
 269 490 266 482 264 472 c 0
 260 455 257 445 256 440 c 0
 249 427 243 405 237 375 c 1
 250 400 262 418 274 428 c 1
 290 451 310 470 333 486 c 0
 356 502 384 510 416 510 c 0
 432 510 445 507 456 501 c 0
 469 494 477 482 483 466 c 0
 489 450 492 429 492 406 c 0
 492 383 488 355 482 324 c 0
 474 281 466 226 459 161 c 0
 452 96 447 51 444 30 c 0
 441 10 435 -3 428 -11 c 0
 421 -19 413 -22 405 -22 c 1
 405 -31 403 -31 403 -23 c 1
 395 -23 389 -20 385 -14 c 0
 382 -10 380 -4 380 5 c 0
 380 10 380 16 381 21 c 0
 382 26 387 58 395 118 c 0
 402 175 410 222 417 258 c 0
 426 306 431 341 431 363 c 0
 431 368 430 373 430 377 c 0
 428 392 422 402 412 409 c 0
 405 414 395 417 383 417 c 0
 368 417 354 415 340 409 c 0
 326 403 315 396 304 387 c 0
 293 378 282 367 271 355 c 0
 260 343 251 332 244 321 c 0
 237 310 229 299 221 286 c 0
 211 253.5 211 253.5 194 177 c 0
 189 154 184 124 179 88 c 0
 174 52 170 30 168 20 c 0
 164 4 158 -7 149 -14 c 0
 142 -20 134 -22 125 -22 c 0
 116 -22 110 -19 106 -14 c 0
 102 -9 102 2 104 17 c 0
EndSplineSet
Validated: 524289
EndChar

StartChar: o
Encoding: 111 111 89
Width: 593
GlyphClass: 2
Flags: HMW
HStem: -27 74<259 260> 472 46<316.5 371>
VStem: 91 70<156.5 163.5> 431 71<341 367>
LayerCount: 2
Fore
SplineSet
176 91 m 0
 184 78 196 68 211 61 c 0
 224 53 240 48 259 47 c 2
 266 47 l 2
 281 47 297 52 312 62 c 0
 327 72 341 85 353 104 c 0
 378 139 399 186 414 245 c 0
 425 289 431 326 431 356 c 0
 431 378 427 398 420 414 c 0
 411 435 398 451 379 461 c 0
 366 468 351 472 334 472 c 0
 299 472 269 452 244 412 c 0
 218 374 195 321 175 253 c 0
 165 214 161 183 161 161 c 0
 161 152 162 144 162 137 c 0
 164 119 168 104 176 91 c 0
481 224 m 0
 469 182 455 147 439 116 c 0
 423 85 402 59 380 37 c 0
 341 -5 291 -27 229 -27 c 0
 200 -27 175 -20 154 -5 c 0
 134 9 119 28 109 51 c 0
 97 80 91 113 91 150 c 0
 91 177 96 204 103 233 c 1
 103 234 l 1
 112 274 125 312 143 347 c 0
 161 382 182 412 206 437 c 0
 228 462 252 483 278 497 c 0
 304 511 332 518 361 518 c 0
 381 518 400 514 417 508 c 0
 434 502 450 492 464 478 c 0
 478 464 488 445 495 424 c 0
 500 406 502 384 502 358 c 0
 502 318 495 273 481 224 c 0
EndSplineSet
Validated: 1
EndChar

StartChar: p
Encoding: 112 112 90
Width: 593
GlyphClass: 2
Flags: HMW
HStem: -34 20G -31 70<236.5 281 236.5 295> 437 72<391.5 392.5>
VStem: 458 67<329 381.5>
LayerCount: 2
Fore
SplineSet
196 -20 m 1xb0
 192 -26 189 -24 184 -14 c 1
 175 -56 163 -102 152 -155 c 0
 141 -208 133 -242 130 -256 c 0
 127 -270 121 -280 114 -287 c 0
 107 -294 99 -297 91 -297 c 0
 84 -297 79 -294 76 -292 c 0
 71 -289 68 -283 68 -274 c 0
 68 -270 70 -265 70 -260 c 0
 81 -198 104 -90 136 61 c 0
 168 212 193 332 212 419 c 0
 219 454 225 478 229 492 c 0
 234 508 237 518 239 523 c 0
 244 532 251 538 259 543 c 0
 266 546 271 548 276 548 c 0
 283 548 289 545 292 539 c 0
 293 537 293 533 293 531 c 0
 293 529 293 525 292 523 c 0
 287 512 280 496 275 476 c 0
 273 473 270 462 268 443 c 1
 276 458 283 464 292 462 c 1
 334 493 374 509 409 509 c 0
 430 509 448 507 462 502 c 0
 476 497 489 489 499 477 c 0
 509 465 517 448 521 427 c 0
 524 411 525 392 525 371 c 0
 525 329 519 279 506 220 c 0
 501 198 495 174 485 151 c 0
 475 128 463 105 449 83 c 0
 435 61 419 42 402 25 c 0
 387 8 371 -6 352 -16 c 0
 333 -25 314 -31 295 -31 c 2x70
 281 -31 l 2
 241 -31 213 -27 196 -20 c 1xb0
322 419 m 0
 299 407 278 392 259 375 c 2
 255 372 l 1
 255 368 l 1
 245 311 l 2
 242 292 224 206 194 52 c 1
 202 48 l 2
 213 42 227 39 246 39 c 0
 265 39 284 39 304 40 c 0
 323 41 339 49 355 62 c 0
 371 75 385 92 396 113 c 0
 418 152 435 197 446 248 c 0
 453 285 458 316 458 342 c 0
 458 355 457 367 455 376 c 0
 453 391 447 403 440 413 c 0
 433 423 425 429 416 432 c 0
 407 435 398 437 387 437 c 0
 367 437 345 431 322 419 c 0
EndSplineSet
Validated: 1
EndChar

StartChar: q
Encoding: 113 113 91
Width: 593
GlyphClass: 2
Flags: HMW
HStem: -31 71<204 253 214 253> 417 53<338 392.5>
VStem: 93 72<112 162.5> 268 81 270 2
LayerCount: 2
Fore
SplineSet
93 122 m 0xf0
 93 142 96 161 101 181 c 0
 111 223 124 261 141 295 c 0
 158 329 175 357 195 378 c 0
 214 399 232 417 253 431 c 0
 274 445 293 455 314 461 c 0
 335 467 356 470 378 470 c 0
 407 470 431 465 452 455 c 0
 473 445 488 433 495 418 c 0
 499 411 501 403 501 395 c 0
 501 386 498 378 493 372 c 0
 488 367 483 364 477 362 c 1
 475 353 473 353 471 360 c 1
 438 218 417 129 408 92 c 0
 398 43 388 3 378 -30 c 0
 367 -83 357 -127 349 -162 c 1
 349 -163 l 1xf0
 340 -216 330 -261 321 -298 c 1
 270 -298 270 -298 270 -288 c 0xe8
 270 -284.837890625 268 -280 268 -275 c 0
 268 -270 269 -263 271 -255 c 0
 284 -205 304 -121 331 -3 c 1
 324 -15 318 -19 311 -14 c 1
 288 -25 258 -31 222 -31 c 2
 214 -31 l 2
 194 -31 176 -26 160 -18 c 0
 144 -10 132 2 122 16 c 0
 112 30 105 45 100 64 c 0
 95 83 93 102 93 122 c 0xf0
165 150 m 0
 165 135 166 122 168 109 c 0
 172 89 180 74 193 61 c 0
 206 48 222 41 240 40 c 2
 253 40 l 2
 286 40 314 46 339 61 c 2
 344 64 l 1
 353 106 379 216 421 394 c 1
 415 399 l 2
 405 406 395 411 384 413 c 0
 374 415 360 417 343 417 c 0
 333 417 322 415 311 411 c 0
 300 407 288 401 275 392 c 0
 262 383 250 371 239 357 c 0
 228 343 216 326 205 304 c 0
 193 282 183 257 176 230 c 0
 169 202 165 175 165 150 c 0
EndSplineSet
Validated: 524289
EndChar

StartChar: r
Encoding: 114 114 92
Width: 593
GlyphClass: 2
Flags: HMW
HStem: 441 65
LayerCount: 2
Fore
SplineSet
105 62 m 0
 109 94 113 120 116 140 c 0
 125 184 139 245 160 320 c 0
 181 395 194 443 199 463 c 0
 204 482 211 495 220 503 c 0
 229 511 238 515 247 515 c 0
 254 515 259 512 261 507 c 0
 262 505 263 501 263 495 c 0
 263 489 262 481 260 472 c 0
 247 431 235 386 223 335 c 1
 236 359 248 379 261 396 c 0
 269 409 279 421 293 434 c 0
 307 447 322 459 341 470 c 0
 360 481 382 490 407 496 c 0
 434 503 459 506 484 506 c 2
 492 506 l 2
 493 503 494 498 495 492 c 0
 496 486 497 480 497 473 c 0
 497 466 496 458 496 451 c 0
 494 434 491 417 488 400 c 0
 485 383 481 370 476 360 c 0
 471 349 465 340 459 335 c 0
 453 330 446 325 437 323 c 2
 433 323 l 2
 428 323 424 325 422 328 c 0
 419 333 417 338 417 345 c 2
 417 349 l 2
 417 356 418 365 421 377 c 0
 424 389 426 400 426 409 c 0
 426 418 423 427 419 435 c 0
 419 443 417 445 416 441 c 1
 409 441 l 2
 388 441 369 436 350 427 c 0
 331 418 314 407 300 394 c 0
 286 381 272 366 259 350 c 0
 237 323 219 297 207 272 c 1
 198 235 191 207 188 187 c 0
 182 160 176 125 170 83 c 0
 167 54 163 31 160 14 c 0
 158 2 153 -7 148 -13 c 0
 142 -20 133 -24 121 -24 c 0
 111 -24 104 -22 100 -17 c 0
 98 -15 97 -11 97 -6 c 0
 97 -1 99 4 99 10 c 0
 101 21 103 38 105 62 c 0
EndSplineSet
Validated: 1
EndChar

StartChar: s
Encoding: 115 115 93
Width: 593
GlyphClass: 2
Flags: HMW
HStem: -35 63<202.5 248.5> 405 64<401 486 410 486>
VStem: 102 72 180 61<282.5 313> 400 65<140 162> 422 70<393 428 405 428>
LayerCount: 2
Fore
SplineSet
158 -26 m 0xf8
 142 -20 128 -10 118 3 c 0
 108 16 102 32 102 51 c 0
 102 81 111 101 130 110 c 0
 137 113 144 115 151 115 c 0
 156 115 162 112 166 108 c 0
 170 104 173 98 174 89 c 0
 175 80 177 74 178 69 c 0
 179 64 181 59 184 52 c 0
 187 45 192 40 198 37 c 0
 209 31 224 28 241 28 c 0
 256 28 274 33 295 42 c 0
 316 51 337 63 357 79 c 0
 378 96 392 113 398 131 c 0
 399 134 400 138 400 142 c 0xf8
 400 151 397 158 391 165 c 0
 384 173 373 180 360 185 c 0
 348 190 336 195 323 199 c 0
 320.1875 198.4375 317.41015625 198.15625 314.654296875 198.15625 c 0
 302.71484375 198.15625 291.1875 203.4375 279 214 c 1
 261 220 247 226 235 231 c 0
 209 242 192 253 185 264 c 0
 182 270 180 278 180 287 c 0
 180 296 181 306 183 317 c 0
 194 363 224 400 273 427 c 0
 320 455 391 469 486 469 c 1
 486 469 488 466 488 464 c 0
 488 462 490 457 491 449 c 0
 492 441 492 432 492 424 c 0
 492 416 492 407 491 396 c 0
 490 385 488 375 487 367 c 0
 485 359 483 352 482 346 c 0
 481 340 478 334 474 329 c 0
 470 324 464 321 458 319 c 0
 455 318 451 317 447 317 c 0
 443 317 440 318 437 320 c 0
 432 324 428 329 428 334 c 0
 424 354 422 373 422 393 c 2
 422 405 l 1xf4
 410 405 l 2
 392 405 375 403 357 400 c 0
 340 397 324 392 307 386 c 0
 290 380 276 370 264 359 c 0
 251 346 243 332 241 316 c 2
 241 313 l 2
 241 302 247 293 260 285 c 0
 273 277 292 268 319 261 c 0
 338 256 354 251 369 246 c 0
 385 241 401 234 416 226 c 0
 431 218 442 210 450 201 c 0
 458 192 462 182 464 171 c 0
 464 168 465 164 465 160 c 0
 465 151 463 142 460 132 c 0
 449 98 429 68 401 42 c 0
 374 17 345 -3 313 -16 c 0
 281 -29 248 -35 213 -35 c 0
 192 -35 174 -32 158 -26 c 0xf8
EndSplineSet
Validated: 524289
EndChar

StartChar: t
Encoding: 116 116 94
Width: 593
GlyphClass: 2
Flags: HMW
HStem: -22 61<248 281 248 281> 422 59<423 444.5> 489 21G
VStem: 134 67<95.5 133>
LayerCount: 2
Fore
SplineSet
381 48 m 0
 381 37 377 27 368 17 c 0
 359 8 348 1 337 -4 c 0
 314 -16 287 -22 257 -22 c 2
 248 -22 l 2
 208 -20 177 -5 156 22 c 0
 146 35 140 53 137 74 c 0
 136 83 134 91 134 100 c 0
 134 115 137 131 140 149 c 0
 142 164 145 180 150 200 c 0
 155 223 160 239 162 247 c 0
 164 255 167 270 173 291 c 0
 179 312 183 325 184 332 c 0
 185 339 189 352 195 372 c 0
 201 392 206 409 211 426 c 1
 152 426 l 2
 146 426 142 427 140 429 c 0
 138 431 137 434 137 439 c 0
 137 444 138 450 139 456 c 0
 141 467 145 476 150 482 c 0
 155 488 163 491 173 491 c 0
 191 491 206 490 217 490 c 1
 220 494 225 494 228 489 c 1
 229 497 230 500 230 499 c 1
 243 548 253 601 260 657 c 0
 260 665 264 673 269 681 c 0
 274 688 278 691 283 691 c 0
 289 691 294 688 301 681 c 0
 306 676 310 671 310 666 c 0
 299 612 288 552 278 487 c 1
 375 483 429 481 441 481 c 0
 448 481 454 480 456 478 c 0
 458 476 459 472 459 465 c 0
 459 461 459 456 458 451 c 0
 456 442 450 434 445 429 c 0
 440 424 433 422 423 422 c 0
 364 424 313 424 266 424 c 1
 263 404 257 380 250 351 c 0
 242 322 236 302 234 291 c 0
 232 280 227 262 221 236 c 0
 215 210 210 195 210 191 c 0
 210 187 208 176 204 159 c 0
 202 148 201 138 201 128 c 0
 201 107 204 90 213 75 c 0
 226 53 247 40 274 39 c 2
 281 39 l 2
 308 39 338 47 369 63 c 0
 371 63 374 64 375 64 c 0
 376 64 377 63 377 63 c 2
 379 61 381 55 381 48 c 0
EndSplineSet
Validated: 1
EndChar

StartChar: u
Encoding: 117 117 95
Width: 593
GlyphClass: 2
Flags: HMW
HStem: -17 69<176.5 229>
VStem: 93 69<80 107.5>
LayerCount: 2
Fore
SplineSet
499 446 m 0
 499 436 494 414 487 381 c 0
 480 348 476 329 475 322 c 0
 463 264 441 164 408 23 c 0
 404 6 398 -5 391 -12 c 0
 384 -19 376 -23 368 -23 c 0
 366 -23 363 -24 363 -24 c 2
 356 -24 351 -22 348 -17 c 0
 345.856445312 -14.3203125 344.861328125 -9.91796875 344.861328125 -3.7919921875 c 0
 344.861328125 1.5126953125 345.607421875 8.1103515625 347 16 c 0
 351 28 354 48 358 77 c 1
 350.5 62.9375 343 55.90625 335.5 55.90625 c 2
 334 56 l 1
 319 43 305 31 288 20 c 0
 271 9 252 -1 230 -8 c 0
 213 -14 196 -17 179 -17 c 0
 174 -17 170 -16 165 -16 c 0
 149 -15 135 -7 122 6 c 0
 109 19 101 35 97 55 c 0
 95 66 93 75 93 85 c 0
 93 95 95 105 96 114 c 0
 103 160 113 213 127 274 c 0
 132 295 140 324 150 362 c 0
 160 400 167 426 169 441 c 0
 172 454 178 464 186 470 c 0
 194 476 201 479 210 479 c 0
 219 479 226 476 230 471 c 0
 232 469 232 464 232 458 c 0
 232 455 232 450 231 444 c 0
 230 438 225 418 216 381 c 0
 206 343 198 311 193 284 c 0
 177 215 168 163 164 126 c 0
 163 118 162 111 162 104 c 0
 162 86 165 73 173 65 c 0
 180 60 187 56 194 55 c 0
 201 54 209 52 218 52 c 0
 240 52 266 58 292 72 c 0
 318 86 344 102 367 122 c 1
 367 115 369 116 370 125 c 0
 380 167 390 218 402 278 c 0
 419 352 432 407 437 442 c 0
 439 453 444 462 452 468 c 0
 460 474 468 479 476 479 c 0
 484 479 491 477 496 471 c 0
 499 467 500 462 500 457 c 0
 500 454 500 450 499 446 c 0
EndSplineSet
Validated: 524289
EndChar

StartChar: v
Encoding: 118 118 96
Width: 593
GlyphClass: 2
Flags: HMW
VStem: 109 70<415 453.5 421 453.5>
LayerCount: 2
Fore
SplineSet
484 462 m 2
 483 453 478 443 471 430 c 1
 471 436 470 436 470 430 c 0
 457 403 441 375 422 345 c 0
 403 313 374 261 333 188 c 0
 295 117 261 52 230 -7 c 0
 227 -16 221 -22 213 -25 c 0
 209 -26 206 -27 202 -27 c 0
 198 -27 194 -26 190 -24 c 0
 185 -20 181 -14 180 -7 c 0
 145 144 121 285 109 415 c 1
 109 421 l 2
 109 449 116 470 129 484 c 0
 133 488 138 492 143 494 c 0
 147 497 151 499 155 499 c 0
 158 499 162 497 165 495 c 0
 168 493 172 486 174 477 c 0
 177 470 179 460 179 447 c 0
 181 392 185 346 189 306 c 2
 193 264 l 2
 194 253 198 225 204 182 c 0
 211 135 215 110 215 107 c 0
 216 90 218 77 218 66 c 1
 224 71 230 81 236 95 c 0
 312 232 374 352 423 455 c 0
 433 477 443 491 454 498 c 0
 460 502 465 504 468 504 c 0
 471 504 475 503 477 501 c 0
 482 496 484 487 484 472 c 2
 484 462 l 2
EndSplineSet
Validated: 1
EndChar

StartChar: w
Encoding: 119 119 97
Width: 593
GlyphClass: 2
Flags: HMW
HStem: -6 21G<114 114>
VStem: 76 84 274 45<48.5 78> 300 43
LayerCount: 2
Fore
SplineSet
78 3 m 0xd0
 77 43 76 81 76 118 c 0
 76 239 84 347 99 442 c 0
 101 459 104 472 111 480 c 0
 119 491 130 496 141 496 c 0
 147 496 151 493 154 488 c 0
 157 483 160 475 160 462 c 2
 160 455 l 1
 148 371 135 246 122 80 c 0
 120 49 116 21 114 -6 c 1
 193 200 l 1
 239 335 271 422 287 460 c 0
 291 471 295 480 301 487 c 0
 307 495 314 499 322 499 c 0
 329 499 334 495 337 489 c 0
 340 485 343 475 343 459 c 0
 343 454 341 429 337 385 c 0
 334 341 331 288 327 226 c 0
 322 165 319 116 319 78 c 2xe0
 319 10 l 1
 326 27 333 47 340 69 c 0
 363 135 405 263 465 452 c 0
 470 471 477 483 484 489 c 0
 489 493 495 495 500 495 c 0
 502 495 504 494 506 494 c 0
 510 492 514 488 516 482 c 0
 518 478 519 472 519 465 c 0
 519 461 517 453 514 441 c 0
 492 373 463 295 429 208 c 0
 397 120 371 54 351 10 c 0
 345 -4 338 -14 330 -20 c 0
 323 -25 316 -27 307 -27 c 2
 304 -27 l 1
 303 -27 l 2
 296 -27 290 -24 285 -19 c 0
 281 -14 277 -5 276 9 c 0
 275 24 274 40 274 57 c 0
 274 99 280 165 290 252 c 0
 297 307 300 341 300 353 c 0
 301 380 304 405 306 428 c 1
 297 410 288 388 279 363 c 0
 269 337 257 301 242 255 c 0
 227 211 210 165 193 120 c 0
 174 76 157 34 137 -4 c 0
 133 -15 127 -23 120 -28 c 0
 113 -33 106 -36 101 -36 c 0
 96 -36 90 -33 85 -27 c 0
 80 -22 78 -12 78 3 c 0xd0
EndSplineSet
Validated: 1
EndChar

StartChar: x
Encoding: 120 120 98
Width: 593
GlyphClass: 2
Flags: HMW
HStem: -22 21G<397.5 403> 483 20G<222.5 224.5>
LayerCount: 2
Fore
SplineSet
84 -23 m 0
 81 -21 77 -17 74 -10 c 0
 72 -3 69 4 69 12 c 0
 69 22 75 34 88 48 c 0
 97 60 113 76 135 96 c 2
 208 175 l 2
 233 201 253 226 270 248 c 2
 274 254 l 1
 271 261 l 2
 260 290 247 322 228 359 c 0
 209 392 197 414 193 424 c 0
 189 432 188 439 188 446 c 0
 188 457 189 466 192 473 c 0
 194 479 199 485 204 491 c 0
 209 496 213 500 218 502 c 0
 219 502 222 503 223 503 c 0
 226 503 229 501 232 499 c 0
 237 495 243 488 247 477 c 0
 255 462 265 438 279 405 c 0
 293 372 305 340 315 311 c 2
 322 292 l 1
 339 315 369 356 411 413 c 0
 439 446 460 468 473 481 c 0
 488 498 500 506 510 506 c 0
 513 506 517 503 519 498 c 0
 523 490 524 481 524 471 c 0
 524 469 523 466 522 463 c 0
 520 458 515 452 508 447 c 2
 347 256 l 2
 345 254 340 250 337 248 c 2
 340 240 l 2
 349 216 360 192 371 170 c 0
 383 145 393 123 403 102 c 0
 414 84 424 69 429 56 c 0
 433 47 435 38 435 30 c 0
 435 23 434 17 433 12 c 0
 432 7 428 1 423 -6 c 0
 418 -13 414 -18 409 -20 c 0
 407 -21 404 -22 402 -22 c 0
 393 -22 385 -13 378 5 c 0
 346 71 319 132 298 188 c 2
 292 205 l 1
 280 191 l 2
 260 165 231 128 192 80 c 1
 150 36 125 9 117 0 c 0
 109 -11 102 -18 95 -21 c 0
 92 -23 88 -24 87 -24 c 0
 86 -24 84 -24 84 -23 c 0
EndSplineSet
Validated: 1
EndChar

StartChar: y
Encoding: 121 121 99
Width: 593
GlyphClass: 2
Flags: HMW
VStem: 158 64<430 470.5 442 470.5> 221 1<448.5 472.5>
LayerCount: 2
Fore
SplineSet
537 441 m 0x80
 515 401 482 348 440 280 c 0
 400 212 363 148 328 88 c 0
 271 -13 215 -109 158 -200 c 2
 94 -296 l 2
 87 -306 78 -313 69 -316 c 0
 67 -316 64 -317 62 -317 c 0
 58 -317 54 -316 50 -312 c 0
 45 -307 43 -300 43 -292 c 0
 43 -289 44 -285 44 -282 c 0
 44 -275 48 -268 54 -260 c 0
 113 -177 169 -88 224 6 c 1
 191 169 169 310 158 430 c 1
 158 442 l 2
 158 451 159 459 161 466 c 0
 164 476 168 484 172 489 c 0
 176 494 182 499 187 501 c 0
 192 504 196 506 201 506 c 0
 203 506 206 505 209 504 c 0
 212 503 215 499 217 493 c 0
 219 487 221 478 221 467 c 1x40
 221 474 222 474 222 467 c 0
 222 430 226 387 231 340 c 0
 236 293 242 256 246 228 c 0
 250 200 258 151 269 84 c 1
 274 92 280 101 285 110 c 0
 369 255 436 374 486 468 c 0
 492 479 498 488 504 495 c 0
 510 502 515 506 520 508 c 0
 525 510 529 511 532 511 c 0
 535 511 539 510 541 509 c 0
 543 507 546 504 547 502 c 0
 549 497 551 490 551 482 c 0
 551 480 550 475 549 469 c 0
 547 460 543 451 537 441 c 0x80
EndSplineSet
Validated: 1
EndChar

StartChar: z
Encoding: 122 122 100
Width: 593
GlyphClass: 2
Flags: HMW
HStem: 9 57<170.5 201> 417 61<285 411>
LayerCount: 2
Fore
SplineSet
405 13 m 0
 399 6 390 3 377 3 c 0
 373 3 350 4 307 6 c 0
 264 8 222 9 180 9 c 0
 161 9 135 8 100 7 c 0
 98 7 95 8 94 9 c 0
 93 10 90 15 89 20 c 0
 88 25 86 31 86 37 c 0
 86 46 88 54 92 61 c 0
 94 65 100 73 109 83 c 0
 118 93 131 106 149 122 c 0
 160 133 188 157 230 197 c 0
 269 237 305 275 342 313 c 0
 379 350 407 379 426 399 c 2
 447 421 l 1
 417 420 l 2
 374 418 337 417 307 417 c 0
 263 417 229 419 209 424 c 0
 203 425 199 428 196 430 c 0
 193 432 191 437 191 442 c 0
 191 444 192 448 192 452 c 0
 194 464 200 474 207 482 c 0
 211 487 216 490 222 490 c 0
 223 490 225 489 226 489 c 0
 282 482 338 478 394 478 c 0
 428 478 462 479 495 481 c 2
 496 481 l 2
 498 481 499 480 500 479 c 0
 501 478 503 475 504 473 c 0
 506 468 507 463 507 456 c 0
 507 452 506 448 506 444 c 0
 506 440 502 433 496 423 c 0
 490 413 478 399 463 379 c 0
 441 350 416 322 388 295 c 0
 363 268 341 245 321 226 c 2
 250 159 l 2
 222 132 197 108 175 87 c 2
 153 66 l 1
 396 66 l 2
 407 64 415 60 417 56 c 0
 419 54 420 50 420 48 c 0
 420 46 419 43 419 40 c 0
 417 29 412 20 405 13 c 0
EndSplineSet
Validated: 1
EndChar

StartChar: braceleft
Encoding: 123 123 101
Width: 593
GlyphClass: 2
Flags: HMW
HStem: -87 60<283.5 318> 332 76<73.5 100.5> 778 60<483 496.5>
VStem: 114 68<13.5 47> 224 65<271 292.5 275 292.5> 247 69<571.5 615> 265 69<472 488 481 483.5>
LayerCount: 2
Fore
SplineSet
341 -46 m 0xf8
 341 -48 340 -50 340 -52 c 0
 338 -61 332 -70 325 -77 c 0
 319 -84 310 -87 298 -87 c 0
 269 -87 242 -85 218 -79 c 0
 194 -73 173 -65 156 -54 c 0
 139 -43 127 -30 120 -13 c 0
 116 -3 114 8 114 19 c 0
 114 27 115 35 117 44 c 0
 121 62 126 79 134 96 c 0
 142 113 150 128 158 141 c 2
 158 141 166 155 183 182 c 0
 192 195 200 210 207 225 c 0
 214 240 220 256 224 271 c 1
 224 275 l 2
 224 285 216 295 198 306 c 0
 180 316 156 323 127 328 c 0
 110 330 93 332 75 332 c 0
 72 332 68 333 65 334 c 0
 62 335 60 339 57 344 c 0
 54 349 52 354 52 361 c 0
 52 364 53 368 53 371 c 0
 55 382 60 391 67 398 c 0
 74 405 83 408 92 408 c 0
 109 408 124 409 137 410 c 0
 150 411 164 413 179 415 c 0
 194 417 206 420 217 424 c 0
 228 428 239 435 248 443 c 0
 257 451 263 461 265 472 c 2xf2
 265 481 l 2
 265 486 263 494 261 503 c 0
 259 512 256 523 252 534 c 0
 248 545 247 561 247 582 c 0xf4
 247 601 249 621 254 642 c 0
 268 702 298 750 345 785 c 0
 392 820 449 838 517 838 c 0
 526 838 533 836 538 831 c 0
 540 828 542 824 542 821 c 0
 542 812 536 802 522 791 c 0
 510 782 500 778 493 778 c 0
 449 778 411 768 380 746 c 0
 338 716 316 672 316 615 c 2
 316 601 l 2
 317 580 319 562 323 547 c 0
 327 532 331 520 332 509 c 0
 333 498 334 491 334 488 c 2xf2
 334 481 l 2
 332 470 325 459 316 449 c 0xf4
 307 439 296 429 283 421 c 0
 256 404 227 393 196 386 c 2
 153 377 l 1
 195 363 l 2
 226 352 250 339 268 322 c 0
 282 309 289 297 289 288 c 0
 289 287 288 285 288 284 c 0
 286 270 280 256 273 241 c 0
 266 226 258 213 250 200 c 0
 242 187 234 173 226 159 c 0
 218 145 209 129 201 111 c 0
 193 93 187 76 183 57 c 0
 183 53 182 49 182 45 c 0
 182 35 185 26 191 17 c 0
 199 6 210 -2 223 -8 c 0
 236 -14 251 -19 266 -22 c 0
 281 -25 297 -27 313 -27 c 0
 323 -27 331 -30 336 -35 c 0
 339 -37 341 -41 341 -46 c 0xf8
EndSplineSet
Validated: 1
EndChar

StartChar: bar
Encoding: 124 124 102
Width: 593
GlyphClass: 2
Flags: HMW
VStem: 155 284
LayerCount: 2
Fore
SplineSet
437 789 m 2
 335 367 l 2
 268 92 229 -76 216 -138 c 0
 212 -150 206 -160 197 -166 c 0
 188 -172 180 -175 171 -175 c 2
 169 -175 l 2
 166 -175 163 -174 161 -173 c 0
 159 -172 157 -171 156 -169 c 0
 155 -167 155 -164 155 -159 c 0
 155 -154 157 -148 159 -139 c 0
 167 -112 187 -34 218 96 c 2
 317 513 l 2
 352 661 373 750 380 780 c 0
 384 795 390 805 396 813 c 0
 402 821 410 825 419 825 c 2
 422 825 l 2
 429 825 434 823 436 820 c 0
 438 817 439 813 439 808 c 0
 439 803 438 796 437 789 c 2
EndSplineSet
Validated: 1
EndChar

StartChar: braceright
Encoding: 125 125 103
Width: 593
GlyphClass: 2
Flags: HMW
HStem: -87 60<95.5 109> 353 77 778 60<274.5 309.5>
VStem: 261 69<268.5 281.5> 277 69<130.5 184.5> 306 65<468.5 487> 411 68<704 737.5>
LayerCount: 2
Fore
SplineSet
338 109 m 0xea
 324 49 294 1 247 -34 c 0
 200 -69 143 -87 75 -87 c 0
 66 -87 60 -85 55 -80 c 0
 53 -77 51 -73 51 -70 c 2
 51 -66 l 2
 53 -57 60 -49 71 -40 c 0
 82 -31 92 -27 99 -27 c 0
 144 -27 182 -16 213 5 c 0
 244 26 263 56 272 92 c 0
 275 107 277 122 277 139 c 0
 277 142 276 146 276 151 c 0
 276 172 273 191 270 208 c 0
 264 243 261 264 261 273 c 0xf2
 261 277 262 280 262 281 c 0
 264 292 269 303 278 313 c 0
 287 323 299 332 312 340 c 0
 339 356 368 368 399 375 c 2
 441 385 l 1
 401 399 l 2
 370 410 345 423 327 440 c 0
 313 453 306 464 306 473 c 0xe6
 306 474 307 476 307 477 c 0
 310 492 315 506 322 520 c 0
 329 534 335 546 343 558 c 0
 351 570 359 583 367 596 c 0
 375 609 384 624 391 641 c 0
 398 658 404 675 409 694 c 0
 410 698 411 702 411 706 c 0
 411 716 408 725 402 734 c 0
 395 745 384 753 370 759 c 0
 356 765 342 770 326 773 c 0
 310 776 295 778 279 778 c 0
 270 778 262 781 257 786 c 0
 254 789 252 793 252 797 c 0
 252 799 253 801 253 803 c 0
 255 812 260 821 267 828 c 0
 274 835 284 838 295 838 c 0
 324 838 350 835 374 829 c 0
 398 823 419 815 437 804 c 0
 454 794 466 781 473 764 c 0
 477 754 479 743 479 732 c 0
 479 724 478 716 476 707 c 0
 472 689 466 672 459 656 c 0
 452 640 444 625 436 613 c 0
 428 601 420 589 411 576 c 0
 402 563 394 550 387 536 c 0
 380 522 374 506 371 491 c 2
 371 487 l 2
 371 481 373 476 378 471 c 0
 383 466 389 461 397 456 c 0
 405 451 415 447 426 443 c 0
 437 439 451 436 468 434 c 0
 485 432 502 430 520 430 c 0
 523 430 527 429 530 428 c 0
 533 427 536 423 539 418 c 0
 542 413 544 408 544 401 c 2
 542 391 l 2
 540 380 534 371 528 364 c 0
 522 357 514 354 504 354 c 0
 487 354 471 354 458 353 c 0
 445 352 431 350 416 348 c 0
 401 346 388 341 377 337 c 0
 366 333 357 327 348 319 c 0
 339 311 333 301 331 290 c 0
 331 288 330 284 330 279 c 0xf2
 330 274 331 267 333 257 c 0
 335 247 338 236 341 224 c 0
 344 212 346 195 346 174 c 0
 346 153 343 131 338 109 c 0xea
EndSplineSet
Validated: 1
EndChar

StartChar: asciitilde
Encoding: 126 126 104
Width: 593
GlyphClass: 2
Flags: HMW
HStem: 276 81<344.5 375> 437 82<210 240.5>
LayerCount: 2
Fore
SplineSet
542 496 m 2
 542 493 l 2
 542 485 537 472 528 452 c 0
 524 444 520 434 513 423 c 0
 480 368 448 328 417 304 c 0
 393 285 371 276 350 276 c 0
 339 276 329 278 321 282 c 0
 313 286 305 291 299 299 c 0
 293 307 288 317 284 327 c 0
 280 337 275 350 270 367 c 0
 265 384 262 394 261 396 c 0
 260 398 258 403 256 409 c 0
 254 415 251 420 249 422 c 0
 247 422 245 425 243 427 c 0
 238 432 233 435 228 436 c 0
 224 436 219 437 213 437 c 0
 207 437 202 436 196 434 c 0
 190 432 185 427 179 422 c 0
 173 417 169 412 165 407 c 0
 157 397 139 369 114 324 c 0
 107 312 98 301 84 292 c 0
 73 285 65 282 59 282 c 2
 57 282 l 2
 56 282 54 286 53 292 c 0
 53 294 51 297 51 300 c 0
 51 303 54 310 57 320 c 0
 88 383 119 433 153 468 c 0
 186 502 214 519 236 519 c 0
 245 519 253 519 259 518 c 0
 265 517 271 515 277 513 c 0
 283 511 288 506 292 501 c 0
 296 496 300 489 304 479 c 0
 308 469 312 458 316 444 c 2
 320 426 l 2
 321 419 324 413 325 409 c 0
 329 394 332 385 335 380 c 0
 337 377 340 373 342 370 c 0
 346 365 350 360 355 359 c 0
 360 358 366 357 371 357 c 2
 375 357 l 1
 389 357 l 2
 392 357 396 359 402 360 c 0
 408 361 413 365 417 369 c 0
 421 373 427 378 432 384 c 0
 442 395 455 413 472 440 c 0
 483 457 494 472 507 485 c 0
 514 492 520 498 527 500 c 0
 529 500 533 501 535 501 c 0
 540 501 542 500 542 496 c 2
57 282 m 1024
EndSplineSet
Validated: 1
EndChar

StartChar: lambda
Encoding: 955 955 113
Width: 593
GlyphClass: 2
Flags: HMW
HStem: -28.1074 21G
LayerCount: 2
Fore
SplineSet
36.4248046875 -28.107421875 m 0
 31.091796875 -28.107421875 25.7744140625 -26.4423828125 20.470703125 -23.109375 c 0
 14.3603515625 -20.4423828125 9.994140625 -16.609375 7.3720703125 -11.609375 c 0
 4.75 -6.609375 4.1494140625 0.890625 5.5712890625 10.890625 c 0
 5.9892578125 12.890625 6.07421875 14.890625 5.8251953125 16.890625 c 0
 7.6357421875 25.5576171875 11.98828125 35.224609375 18.8837890625 45.8916015625 c 0
 86.58984375 162.55859375 176.473632812 299.225585938 288.536132812 455.892578125 c 1
 267.228515625 548.559570312 243.194335938 634.559570312 216.435546875 713.892578125 c 0
 213.966796875 721.225585938 213.360351562 727.892578125 214.61328125 733.892578125 c 2
 215.03125 735.892578125 l 2
 217.23046875 743.225585938 220.38671875 749.55859375 224.5 754.891601562 c 0
 228.614257812 760.224609375 233.756835938 764.891601562 239.924804688 768.891601562 c 0
 248.372070312 774.224609375 255.859375 776.557617188 262.387695312 775.890625 c 0
 265.720703125 775.890625 268.983398438 775.557617188 272.177734375 774.890625 c 0
 281.481445312 771.557617188 287.3515625 764.557617188 289.790039062 753.890625 c 0
 295.194335938 731.890625 303.579101562 700.223632812 314.944335938 658.890625 c 0
 340.170898438 572.223632812 363.7421875 479.223632812 385.658203125 379.890625 c 0
 400.208007812 321.890625 416.325195312 260.223632812 434.008789062 194.890625 c 0
 451.693359375 129.557617188 464.56640625 77.890625 472.627929688 39.890625 c 0
 475.06640625 29.2236328125 475.450195312 19.890625 473.778320312 11.890625 c 0
 472.107421875 3.890625 469.381835938 -2.7763671875 465.600585938 -8.109375 c 0
 458.84375 -18.109375 450.381835938 -25.109375 440.212890625 -29.109375 c 0
 430.044921875 -33.109375 420.044921875 -33.109375 410.212890625 -29.109375 c 0
 405.297851562 -27.109375 401.203125 -22.7763671875 397.928710938 -16.109375 c 0
 393.849609375 -10.109375 390.922851562 -1.7763671875 389.151367188 8.890625 c 0
 373.42578125 99.5576171875 348.256835938 215.224609375 313.64453125 355.891601562 c 0
 313.623046875 368.55859375 312.209960938 374.55859375 309.403320312 373.891601562 c 0
 272.092773438 316.55859375 244.58203125 274.225585938 226.872070312 246.892578125 c 0
 209.162109375 219.559570312 186.834960938 182.892578125 159.891601562 136.892578125 c 0
 132.420898438 91.5595703125 109.258789062 50.892578125 90.404296875 14.892578125 c 0
 84.564453125 2.892578125 78.31640625 -6.2744140625 71.66015625 -12.607421875 c 0
 65.0048828125 -18.9404296875 58.80078125 -23.107421875 53.0498046875 -25.107421875 c 0
 47.2998046875 -27.107421875 41.7578125 -28.107421875 36.4248046875 -28.107421875 c 0
EndSplineSet
Validated: 524289
EndChar

StartChar: endash
Encoding: 8211 8211 114
Width: 593
GlyphClass: 2
Flags: HMW
HStem: 261 63<144.5 190.5>
LayerCount: 2
Fore
SplineSet
129 276 m 0
 129 280 130 285 131 290 c 0
 133 301 136 309 141 314 c 0
 147 321 156 324 167 324 c 0
 214 324 269 323 334 322 c 0
 399 321 437 320 447 320 c 0
 457 320 462 318 463 316 c 0
 465 312 465 306 464 298 c 0
 462 287 457 278 452 273 c 0
 446 267 438 264 427 264 c 0
 260 262 167 261 148 261 c 0
 141 261 137 262 134 264 c 0
 131 266 129 270 129 276 c 0
EndSplineSet
Validated: 1
EndChar

StartChar: emdash
Encoding: 8212 8212 115
Width: 593
GlyphClass: 2
Flags: HMW
HStem: 261 61<90.5 112>
LayerCount: 2
Fore
SplineSet
74 276 m 0
 74 280 75 284 76 289 c 0
 78 300 81 308 86 313 c 0
 91 319 99 322 110 322 c 2
 112 322 l 2
 169 322 216 321 255 321 c 0
 294 321 345 322 409 322 c 0
 459 322 490 323 500 323 c 0
 510 323 516 321 518 318 c 0
 520 313 520 307 519 298 c 0
 517 287 512 278 507 273 c 0
 501 267 492 264 481 264 c 0
 250 262 121 261 94 261 c 0
 87 261 82 262 79 264 c 0
 76 266 74 270 74 276 c 0
EndSplineSet
Validated: 1
EndChar

StartChar: quoteleft
Encoding: 8216 8216 116
Width: 593
GlyphClass: 2
Flags: HMW
HStem: 495 235<293 295 290 296.5>
VStem: 242 69<684.5 718.5> 242 111
LayerCount: 2
Fore
SplineSet
274 512 m 0xc0
 268 533 262 560 256 594 c 0
 250 628 245 657 243 680 c 0
 243 682 242 684 242 685 c 0
 242 693 245 700 250 707 c 0
 256 716 262 722 271 725 c 0
 280 728 287 730 293 730 c 0
 297 730 302 729 305 727 c 0
 308 725 311 721 311 716 c 0
 315 681 329 624 352 547 c 0
 352 545 353 541 353 539 c 0xa0
 353 526 340 514 314 501 c 0
 306 497 299 495 294 495 c 0
 292 495 291 496 289 496 c 0
 287 496 284 498 281 500 c 0
 278 502 275 507 274 512 c 0xc0
EndSplineSet
Validated: 1
EndChar

StartChar: quoteright
Encoding: 8217 8217 117
Width: 593
GlyphClass: 2
Flags: HMW
HStem: 467 252<228.5 363.5>
VStem: 205 184
LayerCount: 2
Fore
SplineSet
205 502 m 0
 205 510 208 518 214 526 c 0
 229 546 249 574 274 611 c 0
 299 648 317 679 330 701 c 0
 335 708 340 713 345 715 c 0
 350 717 356 719 361 719 c 0
 366 719 372 717 378 714 c 0
 383 712 387 707 389 700 c 2
 389 694 l 2
 389 690 387 683 383 674 c 0
 334 588 298 530 275 499 c 0
 265 485 254 476 243 471 c 0
 238 469 233 467 230 467 c 0
 227 467 224 468 222 469 c 0
 215 473 209 481 206 493 c 0
 206 496 205 500 205 502 c 0
EndSplineSet
Validated: 1
EndChar

StartChar: quotesinglbase
Encoding: 8218 8218 118
Width: 593
GlyphClass: 2
Flags: HMW
VStem: 255 83 271 68<502 528.001 523.001 528.001 523.001 528.5>
LayerCount: 2
Fore
SplineSet
271 512 m 2x40
 271 545 266 601.001953125 255 683.001953125 c 0x80
 255 686.001953125 254 689.001953125 254 689.001953125 c 2
 254 691.001953125 255 693.001953125 256 696.001953125 c 0
 257 699.001953125 260 703.001953125 262 706.001953125 c 0
 264 709.001953125 268 712.001953125 272 714.001953125 c 0
 276 716.001953125 281 720.001953125 285 721.001953125 c 0
 289 722.001953125 292 724.001953125 297 724.001953125 c 0
 305 726.001953125 312 728.001953125 317 728.001953125 c 0
 319 728.001953125 323 727.001953125 326 724.001953125 c 0
 329 721.001953125 332 715.001953125 333 708.001953125 c 0
 335 684.001953125 337 654.001953125 338 618.001953125 c 0
 338.70703125 592.545898438 339.4140625 569.58984375 339.4140625 550.194335938 c 0
 339.4140625 542.16015625 339.29296875 534.737304688 339 528.000976562 c 0
 339 518.000976562 336 509.000976562 329 502.000976562 c 0
 322 495.000976562 314 490.000976562 306 488.000976562 c 0
 299.452148438 486.69140625 293.666992188 485.953125 288.810546875 485.953125 c 0
 282.540039062 485.953125 277.817382812 487.182617188 275 490 c 0
 273 492 271 497 271 502 c 2
 271 512 l 2x40
EndSplineSet
Validated: 524289
EndChar

StartChar: quotedblleft
Encoding: 8220 8220 119
Width: 593
GlyphClass: 2
Flags: HMW
VStem: 165 69<673.5 707.5> 165 112 317 69<723 761.5 728 761.5>
LayerCount: 2
Fore
SplineSet
350 554 m 0x20
 344 575 338 603 331 637 c 0
 324 671 319 700 317 723 c 2
 317 728 l 2
 317 736 320 743 325 750 c 0
 331 759 339 765 347 768 c 0
 355 771 362 773 368 773 c 0
 372 773 375 772 379 770 c 0
 383 768 386 764 386 759 c 0
 390 724 404 667 427 590 c 0
 428 588 429 584 429 582 c 0
 429 569 415 557 389 544 c 0
 382 540 375 538 369 538 c 0
 367 538 365 539 363 539 c 0
 361 539 358 540 356 542 c 0
 354 544 352 549 350 554 c 0x20
198 501 m 0
 192 522 186 549 180 583 c 0
 174 617 168 647 166 670 c 0
 166 671 165 673 165 674 c 0xa0
 165 682 168 689 173 696 c 0
 179 705 186 711 195 714 c 0
 204 717 211 719 217 719 c 0
 221 719 225 718 228 716 c 0
 231 714 234 710 234 705 c 0
 239 670 253 613 276 536 c 0
 276 534 277 530 277 528 c 0x60
 277 515 264 503 238 490 c 0
 230 487 223 485 218 485 c 2
 212 485 l 2
 210 485 208 487 205 489 c 0
 202 491 199 496 198 501 c 0
EndSplineSet
Validated: 1
EndChar

StartChar: quotedblright
Encoding: 8221 8221 120
Width: 593
GlyphClass: 2
Flags: HMW
HStem: 467 306<294.5 303.5> 699 20G<424.5 429.5>
VStem: 139 316<548 695>
LayerCount: 2
Fore
SplineSet
329 748 m 0xa0
 329 742 327 735 322 728 c 0
 273 642 237 583 215 552 c 0
 208 543 201 537 193 532 c 0
 185 527 178 524 173 524 c 0
 168 524 163 525 159 527 c 0
 146 536 139 544 139 552 c 0
 139 557 142 563 147 570 c 0
 162 589 183 618 210 660 c 0
 237 700 256 732 269 755 c 0
 273 762 278 767 284 769 c 0
 290 771 296 773 301 773 c 0
 306 773 312 771 318 768 c 0
 323 766 326 761 328 754 c 0
 328 752 329 750 329 748 c 0xa0
411 715 m 0
 417 717 422 719 427 719 c 0x60
 432 719 438 717 444 714 c 0
 449 712 453 707 455 700 c 2
 455 695 l 2
 455 691 453 684 449 674 c 0
 400 588 364 529 342 498 c 0
 331 485 320 476 309 471 c 0
 304 469 299 467 296 467 c 0
 293 467 290 468 288 469 c 0
 281 473 275 481 272 493 c 0
 272 496 271 500 271 502 c 0
 271 507 275 515 280 526 c 0
 296 546 316 574 340 611 c 0
 364 648 383 679 396 701 c 0
 400 708 405 713 411 715 c 0
EndSplineSet
Validated: 1
EndChar

StartChar: bullet
Encoding: 8226 8226 121
Width: 593
GlyphClass: 2
Flags: HMW
HStem: 348 159<258 324 267 324>
VStem: 215 164<397 460.5>
LayerCount: 2
Fore
SplineSet
215 404 m 0
 215 435 229 460 257 481 c 0
 278 497 300 506 321 507 c 2
 324 507 l 2
 344 507 359 500 368 487 c 0
 375 478 379 467 379 454 c 0
 379 447 378 440 376 433 c 0
 371 411 359 391 341 375 c 0
 323 359 301 350 276 348 c 2
 267 348 l 2
 249 348 236 354 227 367 c 0
 219 378 215 390 215 404 c 0
EndSplineSet
Validated: 1
EndChar
